<?xml version="1.0" encoding="utf-8" standalone="no"?>
<!DOCTYPE svg PUBLIC "-//W3C//DTD SVG 1.1//EN"
  "http://www.w3.org/Graphics/SVG/1.1/DTD/svg11.dtd">
<!-- Created with matplotlib (http://matplotlib.org/) -->
<svg height="1440pt" version="1.1" viewBox="0 0 2160 1440" width="2160pt" xmlns="http://www.w3.org/2000/svg" xmlns:xlink="http://www.w3.org/1999/xlink">
 <defs>
  <style type="text/css">
*{stroke-linecap:butt;stroke-linejoin:round;}
  </style>
 </defs>
 <g id="figure_1">
  <g id="patch_1">
   <path d="M 0 1440 
L 2160 1440 
L 2160 0 
L 0 0 
z
" style="fill:#ffffff;"/>
  </g>
  <g id="axes_1">
   <g id="patch_2">
    <path d="M 87.63 630.56 
L 698.7275 630.56 
L 698.7275 49.88 
L 87.63 49.88 
z
" style="fill:#ffffff;"/>
   </g>
   <g id="matplotlib.axis_1">
    <g id="xtick_1">
     <g id="line2d_1">
      <path clip-path="url(#p2634e9155a)" d="M 87.63 630.56 
L 87.63 49.88 
" style="fill:none;stroke:#cccccc;stroke-linecap:round;"/>
     </g>
     <g id="line2d_2"/>
     <g id="text_1">
      <text style="fill:#262626;font-family:Arial;font-size:30px;font-style:normal;font-weight:400;text-anchor:middle;" transform="rotate(-0, 87.63, 659.033438)" x="87.63" y="659.033438">0</text>
     </g>
    </g>
    <g id="xtick_2">
     <g id="line2d_3">
      <path clip-path="url(#p2634e9155a)" d="M 209.8495 630.56 
L 209.8495 49.88 
" style="fill:none;stroke:#cccccc;stroke-linecap:round;"/>
     </g>
     <g id="line2d_4"/>
     <g id="text_2">
      <text style="fill:#262626;font-family:Arial;font-size:30px;font-style:normal;font-weight:400;text-anchor:middle;" transform="rotate(-0, 209.8495, 659.033438)" x="209.8495" y="659.033438">1</text>
     </g>
    </g>
    <g id="xtick_3">
     <g id="line2d_5">
      <path clip-path="url(#p2634e9155a)" d="M 332.069 630.56 
L 332.069 49.88 
" style="fill:none;stroke:#cccccc;stroke-linecap:round;"/>
     </g>
     <g id="line2d_6"/>
     <g id="text_3">
      <text style="fill:#262626;font-family:Arial;font-size:30px;font-style:normal;font-weight:400;text-anchor:middle;" transform="rotate(-0, 332.069, 659.033438)" x="332.069" y="659.033438">2</text>
     </g>
    </g>
    <g id="xtick_4">
     <g id="line2d_7">
      <path clip-path="url(#p2634e9155a)" d="M 454.2885 630.56 
L 454.2885 49.88 
" style="fill:none;stroke:#cccccc;stroke-linecap:round;"/>
     </g>
     <g id="line2d_8"/>
     <g id="text_4">
      <text style="fill:#262626;font-family:Arial;font-size:30px;font-style:normal;font-weight:400;text-anchor:middle;" transform="rotate(-0, 454.2885, 659.033438)" x="454.2885" y="659.033438">3</text>
     </g>
    </g>
    <g id="xtick_5">
     <g id="line2d_9">
      <path clip-path="url(#p2634e9155a)" d="M 576.508 630.56 
L 576.508 49.88 
" style="fill:none;stroke:#cccccc;stroke-linecap:round;"/>
     </g>
     <g id="line2d_10"/>
     <g id="text_5">
      <text style="fill:#262626;font-family:Arial;font-size:30px;font-style:normal;font-weight:400;text-anchor:middle;" transform="rotate(-0, 576.508, 659.033438)" x="576.508" y="659.033438">4</text>
     </g>
    </g>
    <g id="xtick_6">
     <g id="line2d_11">
      <path clip-path="url(#p2634e9155a)" d="M 698.7275 630.56 
L 698.7275 49.88 
" style="fill:none;stroke:#cccccc;stroke-linecap:round;"/>
     </g>
     <g id="line2d_12"/>
     <g id="text_6">
      <text style="fill:#262626;font-family:Arial;font-size:30px;font-style:normal;font-weight:400;text-anchor:middle;" transform="rotate(-0, 698.7275, 659.033438)" x="698.7275" y="659.033438">5</text>
     </g>
    </g>
    <g id="text_7">
     <text style="fill:#262626;font-family:Arial;font-size:33px;font-style:normal;font-weight:400;text-anchor:middle;" transform="rotate(-0, 393.17875, 692.616719)" x="393.17875" y="692.616719">RMSD</text>
    </g>
   </g>
   <g id="matplotlib.axis_2">
    <g id="ytick_1">
     <g id="line2d_13">
      <path clip-path="url(#p2634e9155a)" d="M 87.63 630.56 
L 698.7275 630.56 
" style="fill:none;stroke:#cccccc;stroke-linecap:round;"/>
     </g>
     <g id="line2d_14"/>
     <g id="text_8">
      <text style="fill:#262626;font-family:Arial;font-size:30px;font-style:normal;font-weight:400;text-anchor:end;" transform="rotate(-0, 80.63, 641.296719)" x="80.63" y="641.296719">0.0</text>
     </g>
    </g>
    <g id="ytick_2">
     <g id="line2d_15">
      <path clip-path="url(#p2634e9155a)" d="M 87.63 514.424 
L 698.7275 514.424 
" style="fill:none;stroke:#cccccc;stroke-linecap:round;"/>
     </g>
     <g id="line2d_16"/>
     <g id="text_9">
      <text style="fill:#262626;font-family:Arial;font-size:30px;font-style:normal;font-weight:400;text-anchor:end;" transform="rotate(-0, 80.63, 525.160719)" x="80.63" y="525.160719">0.2</text>
     </g>
    </g>
    <g id="ytick_3">
     <g id="line2d_17">
      <path clip-path="url(#p2634e9155a)" d="M 87.63 398.288 
L 698.7275 398.288 
" style="fill:none;stroke:#cccccc;stroke-linecap:round;"/>
     </g>
     <g id="line2d_18"/>
     <g id="text_10">
      <text style="fill:#262626;font-family:Arial;font-size:30px;font-style:normal;font-weight:400;text-anchor:end;" transform="rotate(-0, 80.63, 409.024719)" x="80.63" y="409.024719">0.4</text>
     </g>
    </g>
    <g id="ytick_4">
     <g id="line2d_19">
      <path clip-path="url(#p2634e9155a)" d="M 87.63 282.152 
L 698.7275 282.152 
" style="fill:none;stroke:#cccccc;stroke-linecap:round;"/>
     </g>
     <g id="line2d_20"/>
     <g id="text_11">
      <text style="fill:#262626;font-family:Arial;font-size:30px;font-style:normal;font-weight:400;text-anchor:end;" transform="rotate(-0, 80.63, 292.888719)" x="80.63" y="292.888719">0.6</text>
     </g>
    </g>
    <g id="ytick_5">
     <g id="line2d_21">
      <path clip-path="url(#p2634e9155a)" d="M 87.63 166.016 
L 698.7275 166.016 
" style="fill:none;stroke:#cccccc;stroke-linecap:round;"/>
     </g>
     <g id="line2d_22"/>
     <g id="text_12">
      <text style="fill:#262626;font-family:Arial;font-size:30px;font-style:normal;font-weight:400;text-anchor:end;" transform="rotate(-0, 80.63, 176.752719)" x="80.63" y="176.752719">0.8</text>
     </g>
    </g>
    <g id="ytick_6">
     <g id="line2d_23">
      <path clip-path="url(#p2634e9155a)" d="M 87.63 49.88 
L 698.7275 49.88 
" style="fill:none;stroke:#cccccc;stroke-linecap:round;"/>
     </g>
     <g id="line2d_24"/>
     <g id="text_13">
      <text style="fill:#262626;font-family:Arial;font-size:30px;font-style:normal;font-weight:400;text-anchor:end;" transform="rotate(-0, 80.63, 60.616719)" x="80.63" y="60.616719">1.0</text>
     </g>
    </g>
   </g>
   <g id="PolyCollection_1">
    <path clip-path="url(#p2634e9155a)" d="M -1.629304 630.558557 
L -1.629304 630.56 
L 5.673811 630.56 
L 12.976926 630.56 
L 20.28004 630.56 
L 27.583155 630.56 
L 34.88627 630.56 
L 42.189385 630.56 
L 49.4925 630.56 
L 56.795615 630.56 
L 64.09873 630.56 
L 71.401845 630.56 
L 78.70496 630.56 
L 86.008075 630.56 
L 93.31119 630.56 
L 100.614304 630.56 
L 107.917419 630.56 
L 115.220534 630.56 
L 122.523649 630.56 
L 129.826764 630.56 
L 137.129879 630.56 
L 144.432994 630.56 
L 151.736109 630.56 
L 159.039224 630.56 
L 166.342339 630.56 
L 173.645453 630.56 
L 180.948568 630.56 
L 188.251683 630.56 
L 195.554798 630.56 
L 202.857913 630.56 
L 210.161028 630.56 
L 217.464143 630.56 
L 224.767258 630.56 
L 232.070373 630.56 
L 239.373488 630.56 
L 246.676603 630.56 
L 253.979717 630.56 
L 261.282832 630.56 
L 268.585947 630.56 
L 275.889062 630.56 
L 283.192177 630.56 
L 290.495292 630.56 
L 297.798407 630.56 
L 305.101522 630.56 
L 312.404637 630.56 
L 319.707752 630.56 
L 327.010867 630.56 
L 334.313981 630.56 
L 341.617096 630.56 
L 348.920211 630.56 
L 356.223326 630.56 
L 363.526441 630.56 
L 370.829556 630.56 
L 378.132671 630.56 
L 385.435786 630.56 
L 392.738901 630.56 
L 400.042016 630.56 
L 407.34513 630.56 
L 414.648245 630.56 
L 421.95136 630.56 
L 429.254475 630.56 
L 436.55759 630.56 
L 443.860705 630.56 
L 451.16382 630.56 
L 458.466935 630.56 
L 465.77005 630.56 
L 473.073165 630.56 
L 480.37628 630.56 
L 487.679394 630.56 
L 494.982509 630.56 
L 502.285624 630.56 
L 509.588739 630.56 
L 516.891854 630.56 
L 524.194969 630.56 
L 531.498084 630.56 
L 538.801199 630.56 
L 546.104314 630.56 
L 553.407429 630.56 
L 560.710544 630.56 
L 568.013658 630.56 
L 575.316773 630.56 
L 582.619888 630.56 
L 589.923003 630.56 
L 597.226118 630.56 
L 604.529233 630.56 
L 611.832348 630.56 
L 619.135463 630.56 
L 626.438578 630.56 
L 633.741693 630.56 
L 641.044807 630.56 
L 648.347922 630.56 
L 655.651037 630.56 
L 662.954152 630.56 
L 670.257267 630.56 
L 677.560382 630.56 
L 684.863497 630.56 
L 692.166612 630.56 
L 699.469727 630.56 
L 706.772842 630.56 
L 714.075957 630.56 
L 721.379071 630.56 
L 728.682186 630.56 
L 735.985301 630.56 
L 743.288416 630.56 
L 750.591531 630.56 
L 757.894646 630.56 
L 765.197761 630.56 
L 772.500876 630.56 
L 779.803991 630.56 
L 787.107106 630.56 
L 794.41022 630.56 
L 801.713335 630.56 
L 809.01645 630.56 
L 816.319565 630.56 
L 823.62268 630.56 
L 830.925795 630.56 
L 838.22891 630.56 
L 845.532025 630.56 
L 852.83514 630.56 
L 860.138255 630.56 
L 867.44137 630.56 
L 874.744484 630.56 
L 882.047599 630.56 
L 889.350714 630.56 
L 896.653829 630.56 
L 903.956944 630.56 
L 911.260059 630.56 
L 918.563174 630.56 
L 925.866289 630.56 
L 925.866289 50.053417 
L 925.866289 50.053417 
L 918.563174 50.217333 
L 911.260059 50.510317 
L 903.956944 51.011729 
L 896.653829 51.83336 
L 889.350714 53.122469 
L 882.047599 55.05904 
L 874.744484 57.844575 
L 867.44137 61.680901 
L 860.138255 66.739783 
L 852.83514 73.127218 
L 845.532025 80.849267 
L 838.22891 89.787959 
L 830.925795 99.695215 
L 823.62268 110.209375 
L 816.319565 120.893632 
L 809.01645 131.289824 
L 801.713335 140.976738 
L 794.41022 149.620774 
L 787.107106 157.009017 
L 779.803991 163.059662 
L 772.500876 167.810613 
L 765.197761 171.391971 
L 757.894646 173.990756 
L 750.591531 175.816132 
L 743.288416 177.071248 
L 735.985301 177.934724 
L 728.682186 178.551844 
L 721.379071 179.033545 
L 714.075957 179.46042 
L 706.772842 179.88908 
L 699.469727 180.358892 
L 692.166612 180.897911 
L 684.863497 181.527552 
L 677.560382 182.265987 
L 670.257267 183.13049 
L 662.954152 184.138998 
L 655.651037 185.311096 
L 648.347922 186.668584 
L 641.044807 188.235653 
L 633.741693 190.038686 
L 626.438578 192.105639 
L 619.135463 194.464989 
L 611.832348 197.14427 
L 604.529233 200.168285 
L 597.226118 203.55719 
L 589.923003 207.324668 
L 582.619888 211.476512 
L 575.316773 216.009853 
L 568.013658 220.913207 
L 560.710544 226.167369 
L 553.407429 231.746993 
L 546.104314 237.62258 
L 538.801199 243.762497 
L 531.498084 250.134718 
L 524.194969 256.708035 
L 516.891854 263.452707 
L 509.588739 270.34064 
L 502.285624 277.3453 
L 494.982509 284.441621 
L 487.679394 291.606059 
L 480.37628 298.816887 
L 473.073165 306.054658 
L 465.77005 313.302673 
L 458.466935 320.547232 
L 451.16382 327.777442 
L 443.860705 334.984414 
L 436.55759 342.159795 
L 429.254475 349.293723 
L 421.95136 356.372444 
L 414.648245 363.376004 
L 407.34513 370.276491 
L 400.042016 377.037305 
L 392.738901 383.613854 
L 385.435786 389.955794 
L 378.132671 396.010691 
L 370.829556 401.728666 
L 363.526441 407.067365 
L 356.223326 411.996565 
L 348.920211 416.501767 
L 341.617096 420.586431 
L 334.313981 424.272801 
L 327.010867 427.601634 
L 319.707752 430.631417 
L 312.404637 433.437738 
L 305.101522 436.1134 
L 297.798407 438.769495 
L 290.495292 441.537133 
L 283.192177 444.568822 
L 275.889062 448.037883 
L 268.585947 452.133929 
L 261.282832 457.052592 
L 253.979717 462.97862 
L 246.676603 470.063025 
L 239.373488 478.397038 
L 232.070373 487.98755 
L 224.767258 498.739762 
L 217.464143 510.452426 
L 210.161028 522.828964 
L 202.857913 535.504361 
L 195.554798 548.083911 
L 188.251683 560.186819 
L 180.948568 571.486369 
L 173.645453 581.739302 
L 166.342339 590.799919 
L 159.039224 598.618244 
L 151.736109 605.225195 
L 144.432994 610.710039 
L 137.129879 615.196002 
L 129.826764 618.818874 
L 122.523649 621.711484 
L 115.220534 623.994719 
L 107.917419 625.774107 
L 100.614304 627.140065 
L 93.31119 628.169868 
L 86.008075 628.92988 
L 78.70496 629.477238 
L 71.401845 629.860836 
L 64.09873 630.121797 
L 56.795615 630.293783 
L 49.4925 630.403412 
L 42.189385 630.470912 
L 34.88627 630.511016 
L 27.583155 630.533989 
L 20.28004 630.546669 
L 12.976926 630.55341 
L 5.673811 630.556859 
L -1.629304 630.558557 
z
" style="fill:#55a868;fill-opacity:0.25;"/>
   </g>
   <g id="line2d_25">
    <path clip-path="url(#p2634e9155a)" d="M 83.478531 630.55984 
L 95.355023 630.481129 
L 101.293269 629.910282 
L 107.231514 627.327077 
L 113.16976 619.747623 
L 119.108006 603.876574 
L 125.046252 578.544105 
L 130.984497 545.660967 
L 142.860989 471.65166 
L 148.799235 436.940392 
L 154.737481 406.266576 
L 160.675726 379.043477 
L 166.613972 352.631546 
L 172.552218 323.70818 
L 178.490464 288.690941 
L 184.428709 245.847927 
L 190.366955 200.799404 
L 196.305201 164.091106 
L 202.243447 141.110804 
L 208.181693 129.194735 
L 214.119938 123.212373 
L 220.058184 119.777989 
L 225.99643 117.518096 
L 231.934676 115.93499 
L 237.872921 114.683492 
L 243.811167 113.580046 
L 255.687659 111.681167 
L 285.378888 107.176607 
L 297.255379 105.57728 
L 309.131871 103.989226 
L 332.884854 99.925032 
L 338.8231 98.805992 
L 356.637837 95.067891 
L 362.576083 93.915104 
L 368.514329 92.612641 
L 392.267312 86.751018 
L 404.143803 84.325766 
L 410.082049 82.911419 
L 416.020295 81.174853 
L 427.896786 77.2655 
L 433.835032 75.152554 
L 445.711524 70.66698 
L 451.649769 68.615173 
L 469.464507 62.966736 
L 475.402753 61.472955 
L 487.279244 59.00574 
L 493.21749 57.958096 
L 499.155736 57.113032 
L 505.093982 56.444208 
L 516.970473 55.505149 
L 528.846965 54.672704 
L 552.599948 53.383041 
L 570.414685 52.896399 
L 600.105914 52.386091 
L 623.858897 51.996179 
L 677.303109 51.649339 
L 778.253287 51.568504 
L 807.944516 51.552108 
L 813.882762 51.39617 
L 819.821008 50.859674 
L 825.759254 50.206731 
L 831.697499 49.924994 
L 837.635745 49.882279 
L 837.635745 49.882279 
" style="fill:none;stroke:#4c72b0;stroke-linecap:round;stroke-width:4;"/>
   </g>
   <g id="line2d_26">
    <path clip-path="url(#p2634e9155a)" d="M -1 630.55841 
L 42.189385 630.470912 
L 56.795615 630.293783 
L 71.401845 629.860836 
L 78.70496 629.477238 
L 86.008075 628.92988 
L 93.31119 628.169868 
L 100.614304 627.140065 
L 107.917419 625.774107 
L 115.220534 623.994719 
L 122.523649 621.711484 
L 129.826764 618.818874 
L 137.129879 615.196002 
L 144.432994 610.710039 
L 151.736109 605.225195 
L 159.039224 598.618244 
L 166.342339 590.799919 
L 173.645453 581.739302 
L 180.948568 571.486369 
L 188.251683 560.186819 
L 195.554798 548.083911 
L 217.464143 510.452426 
L 224.767258 498.739762 
L 232.070373 487.98755 
L 239.373488 478.397038 
L 246.676603 470.063025 
L 253.979717 462.97862 
L 261.282832 457.052592 
L 268.585947 452.133929 
L 275.889062 448.037883 
L 283.192177 444.568822 
L 290.495292 441.537133 
L 305.101522 436.1134 
L 312.404637 433.437738 
L 319.707752 430.631417 
L 327.010867 427.601634 
L 334.313981 424.272801 
L 341.617096 420.586431 
L 348.920211 416.501767 
L 356.223326 411.996565 
L 363.526441 407.067365 
L 370.829556 401.728666 
L 378.132671 396.010691 
L 385.435786 389.955794 
L 392.738901 383.613854 
L 400.042016 377.037305 
L 414.648245 363.376004 
L 429.254475 349.293723 
L 451.16382 327.777442 
L 494.982509 284.441621 
L 509.588739 270.34064 
L 524.194969 256.708035 
L 531.498084 250.134718 
L 538.801199 243.762497 
L 546.104314 237.62258 
L 553.407429 231.746993 
L 560.710544 226.167369 
L 568.013658 220.913207 
L 575.316773 216.009853 
L 582.619888 211.476512 
L 589.923003 207.324668 
L 597.226118 203.55719 
L 604.529233 200.168285 
L 611.832348 197.14427 
L 619.135463 194.464989 
L 626.438578 192.105639 
L 633.741693 190.038686 
L 641.044807 188.235653 
L 648.347922 186.668584 
L 655.651037 185.311096 
L 662.954152 184.138998 
L 670.257267 183.13049 
L 677.560382 182.265987 
L 692.166612 180.897911 
L 706.772842 179.88908 
L 728.682186 178.551844 
L 735.985301 177.934724 
L 743.288416 177.071248 
L 750.591531 175.816132 
L 757.894646 173.990756 
L 765.197761 171.391971 
L 772.500876 167.810613 
L 779.803991 163.059662 
L 787.107106 157.009017 
L 794.41022 149.620774 
L 801.713335 140.976738 
L 809.01645 131.289824 
L 816.319565 120.893632 
L 830.925795 99.695215 
L 838.22891 89.787959 
L 845.532025 80.849267 
L 852.83514 73.127218 
L 860.138255 66.739783 
L 867.44137 61.680901 
L 874.744484 57.844575 
L 882.047599 55.05904 
L 889.350714 53.122469 
L 896.653829 51.83336 
L 903.956944 51.011729 
L 911.260059 50.510317 
L 918.563174 50.217333 
L 925.866289 50.053417 
L 925.866289 50.053417 
" style="fill:none;stroke:#55a868;stroke-linecap:round;stroke-width:4;"/>
   </g>
   <g id="patch_3">
    <path d="M 87.63 630.56 
L 87.63 49.88 
" style="fill:none;stroke:#cccccc;stroke-linecap:square;stroke-linejoin:miter;"/>
   </g>
   <g id="patch_4">
    <path d="M 698.7275 630.56 
L 698.7275 49.88 
" style="fill:none;stroke:#cccccc;stroke-linecap:square;stroke-linejoin:miter;"/>
   </g>
   <g id="patch_5">
    <path d="M 87.63 630.56 
L 698.7275 630.56 
" style="fill:none;stroke:#cccccc;stroke-linecap:square;stroke-linejoin:miter;"/>
   </g>
   <g id="patch_6">
    <path d="M 87.63 49.88 
L 698.7275 49.88 
" style="fill:none;stroke:#cccccc;stroke-linecap:square;stroke-linejoin:miter;"/>
   </g>
   <g id="text_14">
    <text style="font-family:Arial;font-size:24.984px;font-style:normal;font-weight:600;text-anchor:middle;" transform="rotate(-0, 159.739505, 166.016)" x="159.739505" y="166.016">1Z6N</text>
   </g>
   <g id="text_15">
    <text style="fill:#262626;font-family:Arial;font-size:36px;font-style:normal;font-weight:400;text-anchor:middle;" transform="rotate(-0, 393.17875, 44.88)" x="393.17875" y="44.88">2FX7: HIV 4e10 (H)</text>
   </g>
   <g id="line2d_27">
    <path clip-path="url(#p2634e9155a)" d="M 196.405355 630.56 
L 196.405355 -1 
" style="fill:none;stroke:#000000;stroke-dasharray:5.6,2.4;stroke-dashoffset:0;stroke-width:2;"/>
   </g>
  </g>
  <g id="axes_2">
   <g id="patch_7">
    <path d="M 794.67 630.56 
L 1405.7675 630.56 
L 1405.7675 49.88 
L 794.67 49.88 
z
" style="fill:#ffffff;"/>
   </g>
   <g id="matplotlib.axis_3">
    <g id="xtick_7">
     <g id="line2d_28">
      <path clip-path="url(#pee560498d5)" d="M 794.67 630.56 
L 794.67 49.88 
" style="fill:none;stroke:#cccccc;stroke-linecap:round;"/>
     </g>
     <g id="line2d_29"/>
     <g id="text_16">
      <text style="fill:#262626;font-family:Arial;font-size:30px;font-style:normal;font-weight:400;text-anchor:middle;" transform="rotate(-0, 794.67, 659.033438)" x="794.67" y="659.033438">0</text>
     </g>
    </g>
    <g id="xtick_8">
     <g id="line2d_30">
      <path clip-path="url(#pee560498d5)" d="M 916.8895 630.56 
L 916.8895 49.88 
" style="fill:none;stroke:#cccccc;stroke-linecap:round;"/>
     </g>
     <g id="line2d_31"/>
     <g id="text_17">
      <text style="fill:#262626;font-family:Arial;font-size:30px;font-style:normal;font-weight:400;text-anchor:middle;" transform="rotate(-0, 916.8895, 659.033438)" x="916.8895" y="659.033438">1</text>
     </g>
    </g>
    <g id="xtick_9">
     <g id="line2d_32">
      <path clip-path="url(#pee560498d5)" d="M 1039.109 630.56 
L 1039.109 49.88 
" style="fill:none;stroke:#cccccc;stroke-linecap:round;"/>
     </g>
     <g id="line2d_33"/>
     <g id="text_18">
      <text style="fill:#262626;font-family:Arial;font-size:30px;font-style:normal;font-weight:400;text-anchor:middle;" transform="rotate(-0, 1039.109, 659.033438)" x="1039.109" y="659.033438">2</text>
     </g>
    </g>
    <g id="xtick_10">
     <g id="line2d_34">
      <path clip-path="url(#pee560498d5)" d="M 1161.3285 630.56 
L 1161.3285 49.88 
" style="fill:none;stroke:#cccccc;stroke-linecap:round;"/>
     </g>
     <g id="line2d_35"/>
     <g id="text_19">
      <text style="fill:#262626;font-family:Arial;font-size:30px;font-style:normal;font-weight:400;text-anchor:middle;" transform="rotate(-0, 1161.3285, 659.033438)" x="1161.3285" y="659.033438">3</text>
     </g>
    </g>
    <g id="xtick_11">
     <g id="line2d_36">
      <path clip-path="url(#pee560498d5)" d="M 1283.548 630.56 
L 1283.548 49.88 
" style="fill:none;stroke:#cccccc;stroke-linecap:round;"/>
     </g>
     <g id="line2d_37"/>
     <g id="text_20">
      <text style="fill:#262626;font-family:Arial;font-size:30px;font-style:normal;font-weight:400;text-anchor:middle;" transform="rotate(-0, 1283.548, 659.033438)" x="1283.548" y="659.033438">4</text>
     </g>
    </g>
    <g id="xtick_12">
     <g id="line2d_38">
      <path clip-path="url(#pee560498d5)" d="M 1405.7675 630.56 
L 1405.7675 49.88 
" style="fill:none;stroke:#cccccc;stroke-linecap:round;"/>
     </g>
     <g id="line2d_39"/>
     <g id="text_21">
      <text style="fill:#262626;font-family:Arial;font-size:30px;font-style:normal;font-weight:400;text-anchor:middle;" transform="rotate(-0, 1405.7675, 659.033438)" x="1405.7675" y="659.033438">5</text>
     </g>
    </g>
    <g id="text_22">
     <text style="fill:#262626;font-family:Arial;font-size:33px;font-style:normal;font-weight:400;text-anchor:middle;" transform="rotate(-0, 1100.21875, 692.616719)" x="1100.21875" y="692.616719">RMSD</text>
    </g>
   </g>
   <g id="matplotlib.axis_4">
    <g id="ytick_7">
     <g id="line2d_40">
      <path clip-path="url(#pee560498d5)" d="M 794.67 630.56 
L 1405.7675 630.56 
" style="fill:none;stroke:#cccccc;stroke-linecap:round;"/>
     </g>
     <g id="line2d_41"/>
     <g id="text_23">
      <text style="fill:#262626;font-family:Arial;font-size:30px;font-style:normal;font-weight:400;text-anchor:end;" transform="rotate(-0, 787.67, 641.296719)" x="787.67" y="641.296719">0.0</text>
     </g>
    </g>
    <g id="ytick_8">
     <g id="line2d_42">
      <path clip-path="url(#pee560498d5)" d="M 794.67 514.424 
L 1405.7675 514.424 
" style="fill:none;stroke:#cccccc;stroke-linecap:round;"/>
     </g>
     <g id="line2d_43"/>
     <g id="text_24">
      <text style="fill:#262626;font-family:Arial;font-size:30px;font-style:normal;font-weight:400;text-anchor:end;" transform="rotate(-0, 787.67, 525.160719)" x="787.67" y="525.160719">0.2</text>
     </g>
    </g>
    <g id="ytick_9">
     <g id="line2d_44">
      <path clip-path="url(#pee560498d5)" d="M 794.67 398.288 
L 1405.7675 398.288 
" style="fill:none;stroke:#cccccc;stroke-linecap:round;"/>
     </g>
     <g id="line2d_45"/>
     <g id="text_25">
      <text style="fill:#262626;font-family:Arial;font-size:30px;font-style:normal;font-weight:400;text-anchor:end;" transform="rotate(-0, 787.67, 409.024719)" x="787.67" y="409.024719">0.4</text>
     </g>
    </g>
    <g id="ytick_10">
     <g id="line2d_46">
      <path clip-path="url(#pee560498d5)" d="M 794.67 282.152 
L 1405.7675 282.152 
" style="fill:none;stroke:#cccccc;stroke-linecap:round;"/>
     </g>
     <g id="line2d_47"/>
     <g id="text_26">
      <text style="fill:#262626;font-family:Arial;font-size:30px;font-style:normal;font-weight:400;text-anchor:end;" transform="rotate(-0, 787.67, 292.888719)" x="787.67" y="292.888719">0.6</text>
     </g>
    </g>
    <g id="ytick_11">
     <g id="line2d_48">
      <path clip-path="url(#pee560498d5)" d="M 794.67 166.016 
L 1405.7675 166.016 
" style="fill:none;stroke:#cccccc;stroke-linecap:round;"/>
     </g>
     <g id="line2d_49"/>
     <g id="text_27">
      <text style="fill:#262626;font-family:Arial;font-size:30px;font-style:normal;font-weight:400;text-anchor:end;" transform="rotate(-0, 787.67, 176.752719)" x="787.67" y="176.752719">0.8</text>
     </g>
    </g>
    <g id="ytick_12">
     <g id="line2d_50">
      <path clip-path="url(#pee560498d5)" d="M 794.67 49.88 
L 1405.7675 49.88 
" style="fill:none;stroke:#cccccc;stroke-linecap:round;"/>
     </g>
     <g id="line2d_51"/>
     <g id="text_28">
      <text style="fill:#262626;font-family:Arial;font-size:30px;font-style:normal;font-weight:400;text-anchor:end;" transform="rotate(-0, 787.67, 60.616719)" x="787.67" y="60.616719">1.0</text>
     </g>
    </g>
   </g>
   <g id="PolyCollection_2">
    <path clip-path="url(#pee560498d5)" d="M 738.860595 630.559955 
L 738.860595 630.56 
L 745.529753 630.56 
L 752.19891 630.56 
L 758.868067 630.56 
L 765.537225 630.56 
L 772.206382 630.56 
L 778.87554 630.56 
L 785.544697 630.56 
L 792.213854 630.56 
L 798.883012 630.56 
L 805.552169 630.56 
L 812.221326 630.56 
L 818.890484 630.56 
L 825.559641 630.56 
L 832.228799 630.56 
L 838.897956 630.56 
L 845.567113 630.56 
L 852.236271 630.56 
L 858.905428 630.56 
L 865.574585 630.56 
L 872.243743 630.56 
L 878.9129 630.56 
L 885.582057 630.56 
L 892.251215 630.56 
L 898.920372 630.56 
L 905.58953 630.56 
L 912.258687 630.56 
L 918.927844 630.56 
L 925.597002 630.56 
L 932.266159 630.56 
L 938.935316 630.56 
L 945.604474 630.56 
L 952.273631 630.56 
L 958.942789 630.56 
L 965.611946 630.56 
L 972.281103 630.56 
L 978.950261 630.56 
L 985.619418 630.56 
L 992.288575 630.56 
L 998.957733 630.56 
L 1005.62689 630.56 
L 1012.296047 630.56 
L 1018.965205 630.56 
L 1025.634362 630.56 
L 1032.30352 630.56 
L 1038.972677 630.56 
L 1045.641834 630.56 
L 1052.310992 630.56 
L 1058.980149 630.56 
L 1065.649306 630.56 
L 1072.318464 630.56 
L 1078.987621 630.56 
L 1085.656779 630.56 
L 1092.325936 630.56 
L 1098.995093 630.56 
L 1105.664251 630.56 
L 1112.333408 630.56 
L 1119.002565 630.56 
L 1125.671723 630.56 
L 1132.34088 630.56 
L 1139.010038 630.56 
L 1145.679195 630.56 
L 1152.348352 630.56 
L 1159.01751 630.56 
L 1165.686667 630.56 
L 1172.355824 630.56 
L 1179.024982 630.56 
L 1185.694139 630.56 
L 1192.363296 630.56 
L 1199.032454 630.56 
L 1205.701611 630.56 
L 1212.370769 630.56 
L 1219.039926 630.56 
L 1225.709083 630.56 
L 1232.378241 630.56 
L 1239.047398 630.56 
L 1245.716555 630.56 
L 1252.385713 630.56 
L 1259.05487 630.56 
L 1265.724028 630.56 
L 1272.393185 630.56 
L 1279.062342 630.56 
L 1285.7315 630.56 
L 1292.400657 630.56 
L 1299.069814 630.56 
L 1305.738972 630.56 
L 1312.408129 630.56 
L 1319.077286 630.56 
L 1325.746444 630.56 
L 1332.415601 630.56 
L 1339.084759 630.56 
L 1345.753916 630.56 
L 1352.423073 630.56 
L 1359.092231 630.56 
L 1365.761388 630.56 
L 1372.430545 630.56 
L 1379.099703 630.56 
L 1385.76886 630.56 
L 1392.438018 630.56 
L 1399.107175 630.56 
L 1405.776332 630.56 
L 1412.44549 630.56 
L 1419.114647 630.56 
L 1425.783804 630.56 
L 1432.452962 630.56 
L 1439.122119 630.56 
L 1445.791277 630.56 
L 1452.460434 630.56 
L 1459.129591 630.56 
L 1465.798749 630.56 
L 1472.467906 630.56 
L 1479.137063 630.56 
L 1485.806221 630.56 
L 1492.475378 630.56 
L 1499.144535 630.56 
L 1505.813693 630.56 
L 1512.48285 630.56 
L 1519.152008 630.56 
L 1525.821165 630.56 
L 1532.490322 630.56 
L 1539.15948 630.56 
L 1545.828637 630.56 
L 1552.497794 630.56 
L 1559.166952 630.56 
L 1565.836109 630.56 
L 1572.505267 630.56 
L 1579.174424 630.56 
L 1585.843581 630.56 
L 1585.843581 50.157448 
L 1585.843581 50.157448 
L 1579.174424 50.698066 
L 1572.505267 52.042072 
L 1565.836109 55.011435 
L 1559.166952 60.842545 
L 1552.497794 71.02319 
L 1545.828637 86.832109 
L 1539.15948 108.679303 
L 1532.490322 135.575309 
L 1525.821165 165.122326 
L 1519.152008 194.173962 
L 1512.48285 219.879492 
L 1505.813693 240.557583 
L 1499.144535 255.971836 
L 1492.475378 266.990088 
L 1485.806221 274.954121 
L 1479.137063 281.135064 
L 1472.467906 286.460885 
L 1465.798749 291.48881 
L 1459.129591 296.500043 
L 1452.460434 301.612674 
L 1445.791277 306.865978 
L 1439.122119 312.270387 
L 1432.452962 317.832185 
L 1425.783804 323.563115 
L 1419.114647 329.482681 
L 1412.44549 335.617966 
L 1405.776332 342.002428 
L 1399.107175 348.672847 
L 1392.438018 355.663565 
L 1385.76886 362.998939 
L 1379.099703 370.686523 
L 1372.430545 378.713922 
L 1365.761388 387.051237 
L 1359.092231 395.65888 
L 1352.423073 404.498068 
L 1345.753916 413.539689 
L 1339.084759 422.767713 
L 1332.415601 432.175634 
L 1325.746444 441.757526 
L 1319.077286 451.497464 
L 1312.408129 461.361493 
L 1305.738972 471.294694 
L 1299.069814 481.223123 
L 1292.400657 491.058397 
L 1285.7315 500.702955 
L 1279.062342 510.056277 
L 1272.393185 519.023831 
L 1265.724028 527.529317 
L 1259.05487 535.527223 
L 1252.385713 543.010192 
L 1245.716555 550.006618 
L 1239.047398 556.568096 
L 1232.378241 562.750976 
L 1225.709083 568.598642 
L 1219.039926 574.130406 
L 1212.370769 579.340105 
L 1205.701611 584.203866 
L 1199.032454 588.693167 
L 1192.363296 592.787504 
L 1185.694139 596.4819 
L 1179.024982 599.787999 
L 1172.355824 602.731065 
L 1165.686667 605.346172 
L 1159.01751 607.674957 
L 1152.348352 609.762026 
L 1145.679195 611.650117 
L 1139.010038 613.374964 
L 1132.34088 614.96214 
L 1125.671723 616.427197 
L 1119.002565 617.778339 
L 1112.333408 619.01969 
L 1105.664251 620.153799 
L 1098.995093 621.183259 
L 1092.325936 622.111803 
L 1085.656779 622.944957 
L 1078.987621 623.689996 
L 1072.318464 624.35528 
L 1065.649306 624.949418 
L 1058.980149 625.48081 
L 1052.310992 625.95764 
L 1045.641834 626.387981 
L 1038.972677 626.779548 
L 1032.30352 627.138975 
L 1025.634362 627.470982 
L 1018.965205 627.777982 
L 1012.296047 628.06044 
L 1005.62689 628.317778 
L 998.957733 628.54929 
L 992.288575 628.754666 
L 985.619418 628.934189 
L 978.950261 629.088943 
L 972.281103 629.221236 
L 965.611946 629.335051 
L 958.942789 629.43606 
L 952.273631 629.53081 
L 945.604474 629.625182 
L 938.935316 629.722663 
L 932.266159 629.823281 
L 925.597002 629.92378 
L 918.927844 630.019046 
L 912.258687 630.104158 
L 905.58953 630.176153 
L 898.920372 630.234778 
L 892.251215 630.282083 
L 885.582057 630.321227 
L 878.9129 630.355184 
L 872.243743 630.385909 
L 865.574585 630.414174 
L 858.905428 630.439891 
L 852.236271 630.462589 
L 845.567113 630.481811 
L 838.897956 630.497351 
L 832.228799 630.509372 
L 825.559641 630.518435 
L 818.890484 630.525388 
L 812.221326 630.531144 
L 805.552169 630.536407 
L 798.883012 630.541493 
L 792.213854 630.546334 
L 785.544697 630.550636 
L 778.87554 630.554109 
L 772.206382 630.556623 
L 765.537225 630.558245 
L 758.868067 630.559177 
L 752.19891 630.559653 
L 745.529753 630.559868 
L 738.860595 630.559955 
z
" style="fill:#55a868;fill-opacity:0.25;"/>
   </g>
   <g id="line2d_52">
    <path clip-path="url(#pee560498d5)" d="M 747.839602 630.559955 
L 839.228181 630.469016 
L 865.339204 630.223241 
L 891.450227 629.701003 
L 911.033494 629.05481 
L 924.089005 628.442269 
L 937.144517 627.681237 
L 950.200028 626.749398 
L 963.25554 625.506578 
L 969.783295 624.702635 
L 976.311051 623.742099 
L 982.838807 622.601469 
L 989.366562 621.260107 
L 995.894318 619.700721 
L 1002.422074 617.909023 
L 1008.949829 615.872311 
L 1015.477585 613.577253 
L 1022.005341 611.00753 
L 1028.533097 608.14289 
L 1035.060852 604.961921 
L 1041.588608 601.448902 
L 1048.116364 597.600081 
L 1054.644119 593.42259 
L 1061.171875 588.924715 
L 1067.699631 584.105332 
L 1074.227386 578.951998 
L 1080.755142 573.448457 
L 1087.282898 567.583144 
L 1093.810654 561.350751 
L 1100.338409 554.746961 
L 1106.866165 547.761958 
L 1113.393921 540.377024 
L 1119.921676 532.564837 
L 1126.449432 524.292563 
L 1132.977188 515.526478 
L 1139.504943 506.236056 
L 1146.032699 496.396005 
L 1152.560455 485.988369 
L 1159.08821 475.008666 
L 1165.615966 463.474758 
L 1172.143722 451.429879 
L 1178.671478 438.933813 
L 1185.199233 426.048407 
L 1191.726989 412.830863 
L 1204.7825 385.648181 
L 1237.421279 316.334812 
L 1257.004546 274.519681 
L 1263.532302 260.928442 
L 1270.060057 247.839942 
L 1276.587813 235.46781 
L 1283.115569 223.983013 
L 1289.643324 213.490268 
L 1296.17108 204.022027 
L 1302.698836 195.546922 
L 1309.226591 187.985504 
L 1315.754347 181.226481 
L 1322.282103 175.140361 
L 1328.809859 169.591155 
L 1335.337614 164.447899 
L 1341.86537 159.595753 
L 1348.393126 154.943988 
L 1361.448637 146.012407 
L 1374.504148 137.44681 
L 1381.031904 133.33123 
L 1387.55966 129.360652 
L 1394.087415 125.547525 
L 1400.615171 121.885263 
L 1413.670683 114.933485 
L 1426.726194 108.396952 
L 1433.25395 105.295779 
L 1439.781705 102.329001 
L 1446.309461 99.523291 
L 1452.837217 96.913337 
L 1459.364972 94.535371 
L 1465.892728 92.413544 
L 1472.420484 90.545425 
L 1478.948239 88.891975 
L 1492.003751 85.826655 
L 1498.531507 84.030913 
L 1505.059262 81.661894 
L 1511.587018 78.401257 
L 1518.114774 74.108151 
L 1524.642529 68.99491 
L 1531.170285 63.643923 
L 1537.698041 58.792935 
L 1544.225796 55.009537 
L 1550.753552 52.479804 
L 1557.281308 51.032333 
L 1563.809064 50.324314 
L 1570.336819 50.028432 
L 1576.864575 49.92283 
L 1576.864575 49.92283 
" style="fill:none;stroke:#4c72b0;stroke-linecap:round;stroke-width:4;"/>
   </g>
   <g id="line2d_53">
    <path clip-path="url(#pee560498d5)" d="M 738.860595 630.559955 
L 852.236271 630.462589 
L 905.58953 630.176153 
L 938.935316 629.722663 
L 985.619418 628.934189 
L 1005.62689 628.317778 
L 1025.634362 627.470982 
L 1045.641834 626.387981 
L 1058.980149 625.48081 
L 1072.318464 624.35528 
L 1085.656779 622.944957 
L 1098.995093 621.183259 
L 1112.333408 619.01969 
L 1125.671723 616.427197 
L 1132.34088 614.96214 
L 1139.010038 613.374964 
L 1145.679195 611.650117 
L 1152.348352 609.762026 
L 1159.01751 607.674957 
L 1165.686667 605.346172 
L 1172.355824 602.731065 
L 1179.024982 599.787999 
L 1185.694139 596.4819 
L 1192.363296 592.787504 
L 1199.032454 588.693167 
L 1205.701611 584.203866 
L 1212.370769 579.340105 
L 1219.039926 574.130406 
L 1225.709083 568.598642 
L 1232.378241 562.750976 
L 1239.047398 556.568096 
L 1245.716555 550.006618 
L 1252.385713 543.010192 
L 1259.05487 535.527223 
L 1265.724028 527.529317 
L 1272.393185 519.023831 
L 1279.062342 510.056277 
L 1285.7315 500.702955 
L 1299.069814 481.223123 
L 1319.077286 451.497464 
L 1332.415601 432.175634 
L 1345.753916 413.539689 
L 1352.423073 404.498068 
L 1359.092231 395.65888 
L 1365.761388 387.051237 
L 1372.430545 378.713922 
L 1379.099703 370.686523 
L 1385.76886 362.998939 
L 1392.438018 355.663565 
L 1399.107175 348.672847 
L 1405.776332 342.002428 
L 1412.44549 335.617966 
L 1419.114647 329.482681 
L 1425.783804 323.563115 
L 1432.452962 317.832185 
L 1439.122119 312.270387 
L 1445.791277 306.865978 
L 1459.129591 296.500043 
L 1472.467906 286.460885 
L 1479.137063 281.135064 
L 1485.806221 274.954121 
L 1492.475378 266.990088 
L 1499.144535 255.971836 
L 1505.813693 240.557583 
L 1512.48285 219.879492 
L 1519.152008 194.173962 
L 1532.490322 135.575309 
L 1539.15948 108.679303 
L 1545.828637 86.832109 
L 1552.497794 71.02319 
L 1559.166952 60.842545 
L 1565.836109 55.011435 
L 1572.505267 52.042072 
L 1579.174424 50.698066 
L 1585.843581 50.157448 
L 1585.843581 50.157448 
" style="fill:none;stroke:#55a868;stroke-linecap:round;stroke-width:4;"/>
   </g>
   <g id="patch_8">
    <path d="M 794.67 630.56 
L 794.67 49.88 
" style="fill:none;stroke:#cccccc;stroke-linecap:square;stroke-linejoin:miter;"/>
   </g>
   <g id="patch_9">
    <path d="M 1405.7675 630.56 
L 1405.7675 49.88 
" style="fill:none;stroke:#cccccc;stroke-linecap:square;stroke-linejoin:miter;"/>
   </g>
   <g id="patch_10">
    <path d="M 794.67 630.56 
L 1405.7675 630.56 
" style="fill:none;stroke:#cccccc;stroke-linecap:square;stroke-linejoin:miter;"/>
   </g>
   <g id="patch_11">
    <path d="M 794.67 49.88 
L 1405.7675 49.88 
" style="fill:none;stroke:#cccccc;stroke-linecap:square;stroke-linejoin:miter;"/>
   </g>
   <g id="text_29">
    <text style="font-family:Arial;font-size:24.984px;font-style:normal;font-weight:600;text-anchor:middle;" transform="rotate(-0, 1040.331195, 166.016)" x="1040.331195" y="166.016">3LHP</text>
   </g>
   <g id="text_30">
    <text style="fill:#ff0000;font-family:Arial;font-size:24.984px;font-style:normal;font-weight:600;text-anchor:middle;" transform="rotate(-0, 1155.217525, 200.8568)" x="1155.217525" y="200.8568">1TIL</text>
   </g>
   <g id="text_31">
    <text style="fill:#ffa500;font-family:Arial;font-size:24.984px;font-style:normal;font-weight:600;text-anchor:middle;" transform="rotate(-0, 1197.99435, 235.6976)" x="1197.99435" y="235.6976">1INV</text>
   </g>
   <g id="text_32">
    <text style="fill:#0000ff;font-family:Arial;font-size:24.984px;font-style:normal;font-weight:600;text-anchor:middle;" transform="rotate(-0, 1210.2163, 270.5384)" x="1210.2163" y="270.5384">1KX8</text>
   </g>
   <g id="text_33">
    <text style="fill:#262626;font-family:Arial;font-size:36px;font-style:normal;font-weight:400;text-anchor:middle;" transform="rotate(-0, 1100.21875, 44.88)" x="1100.21875" y="44.88">3IXT: RSV mota (HLH)</text>
   </g>
   <g id="line2d_54">
    <path clip-path="url(#pee560498d5)" d="M 1076.997045 630.56 
L 1076.997045 -1 
" style="fill:none;stroke:#000000;stroke-dasharray:5.6,2.4;stroke-dashoffset:0;stroke-width:2;"/>
   </g>
   <g id="line2d_55">
    <path clip-path="url(#pee560498d5)" d="M 1191.883375 630.56 
L 1191.883375 -1 
" style="fill:none;stroke:#ff0000;stroke-dasharray:5.6,2.4;stroke-dashoffset:0;stroke-width:2;"/>
   </g>
   <g id="line2d_56">
    <path clip-path="url(#pee560498d5)" d="M 1234.6602 630.56 
L 1234.6602 -1 
" style="fill:none;stroke:#ffa500;stroke-dasharray:5.6,2.4;stroke-dashoffset:0;stroke-width:2;"/>
   </g>
   <g id="line2d_57">
    <path clip-path="url(#pee560498d5)" d="M 1246.88215 630.56 
L 1246.88215 -1 
" style="fill:none;stroke:#0000ff;stroke-dasharray:5.6,2.4;stroke-dashoffset:0;stroke-width:2;"/>
   </g>
  </g>
  <g id="axes_3">
   <g id="patch_12">
    <path d="M 1501.71 630.56 
L 2112.8075 630.56 
L 2112.8075 49.88 
L 1501.71 49.88 
z
" style="fill:#ffffff;"/>
   </g>
   <g id="matplotlib.axis_5">
    <g id="xtick_13">
     <g id="line2d_58">
      <path clip-path="url(#pe59225aa96)" d="M 1501.71 630.56 
L 1501.71 49.88 
" style="fill:none;stroke:#cccccc;stroke-linecap:round;"/>
     </g>
     <g id="line2d_59"/>
     <g id="text_34">
      <text style="fill:#262626;font-family:Arial;font-size:30px;font-style:normal;font-weight:400;text-anchor:middle;" transform="rotate(-0, 1501.71, 659.033438)" x="1501.71" y="659.033438">0</text>
     </g>
    </g>
    <g id="xtick_14">
     <g id="line2d_60">
      <path clip-path="url(#pe59225aa96)" d="M 1623.9295 630.56 
L 1623.9295 49.88 
" style="fill:none;stroke:#cccccc;stroke-linecap:round;"/>
     </g>
     <g id="line2d_61"/>
     <g id="text_35">
      <text style="fill:#262626;font-family:Arial;font-size:30px;font-style:normal;font-weight:400;text-anchor:middle;" transform="rotate(-0, 1623.9295, 659.033438)" x="1623.9295" y="659.033438">1</text>
     </g>
    </g>
    <g id="xtick_15">
     <g id="line2d_62">
      <path clip-path="url(#pe59225aa96)" d="M 1746.149 630.56 
L 1746.149 49.88 
" style="fill:none;stroke:#cccccc;stroke-linecap:round;"/>
     </g>
     <g id="line2d_63"/>
     <g id="text_36">
      <text style="fill:#262626;font-family:Arial;font-size:30px;font-style:normal;font-weight:400;text-anchor:middle;" transform="rotate(-0, 1746.149, 659.033438)" x="1746.149" y="659.033438">2</text>
     </g>
    </g>
    <g id="xtick_16">
     <g id="line2d_64">
      <path clip-path="url(#pe59225aa96)" d="M 1868.3685 630.56 
L 1868.3685 49.88 
" style="fill:none;stroke:#cccccc;stroke-linecap:round;"/>
     </g>
     <g id="line2d_65"/>
     <g id="text_37">
      <text style="fill:#262626;font-family:Arial;font-size:30px;font-style:normal;font-weight:400;text-anchor:middle;" transform="rotate(-0, 1868.3685, 659.033438)" x="1868.3685" y="659.033438">3</text>
     </g>
    </g>
    <g id="xtick_17">
     <g id="line2d_66">
      <path clip-path="url(#pe59225aa96)" d="M 1990.588 630.56 
L 1990.588 49.88 
" style="fill:none;stroke:#cccccc;stroke-linecap:round;"/>
     </g>
     <g id="line2d_67"/>
     <g id="text_38">
      <text style="fill:#262626;font-family:Arial;font-size:30px;font-style:normal;font-weight:400;text-anchor:middle;" transform="rotate(-0, 1990.588, 659.033438)" x="1990.588" y="659.033438">4</text>
     </g>
    </g>
    <g id="xtick_18">
     <g id="line2d_68">
      <path clip-path="url(#pe59225aa96)" d="M 2112.8075 630.56 
L 2112.8075 49.88 
" style="fill:none;stroke:#cccccc;stroke-linecap:round;"/>
     </g>
     <g id="line2d_69"/>
     <g id="text_39">
      <text style="fill:#262626;font-family:Arial;font-size:30px;font-style:normal;font-weight:400;text-anchor:middle;" transform="rotate(-0, 2112.8075, 659.033438)" x="2112.8075" y="659.033438">5</text>
     </g>
    </g>
    <g id="text_40">
     <text style="fill:#262626;font-family:Arial;font-size:33px;font-style:normal;font-weight:400;text-anchor:middle;" transform="rotate(-0, 1807.25875, 692.616719)" x="1807.25875" y="692.616719">RMSD</text>
    </g>
   </g>
   <g id="matplotlib.axis_6">
    <g id="ytick_13">
     <g id="line2d_70">
      <path clip-path="url(#pe59225aa96)" d="M 1501.71 630.56 
L 2112.8075 630.56 
" style="fill:none;stroke:#cccccc;stroke-linecap:round;"/>
     </g>
     <g id="line2d_71"/>
     <g id="text_41">
      <text style="fill:#262626;font-family:Arial;font-size:30px;font-style:normal;font-weight:400;text-anchor:end;" transform="rotate(-0, 1494.71, 641.296719)" x="1494.71" y="641.296719">0.0</text>
     </g>
    </g>
    <g id="ytick_14">
     <g id="line2d_72">
      <path clip-path="url(#pe59225aa96)" d="M 1501.71 514.424 
L 2112.8075 514.424 
" style="fill:none;stroke:#cccccc;stroke-linecap:round;"/>
     </g>
     <g id="line2d_73"/>
     <g id="text_42">
      <text style="fill:#262626;font-family:Arial;font-size:30px;font-style:normal;font-weight:400;text-anchor:end;" transform="rotate(-0, 1494.71, 525.160719)" x="1494.71" y="525.160719">0.2</text>
     </g>
    </g>
    <g id="ytick_15">
     <g id="line2d_74">
      <path clip-path="url(#pe59225aa96)" d="M 1501.71 398.288 
L 2112.8075 398.288 
" style="fill:none;stroke:#cccccc;stroke-linecap:round;"/>
     </g>
     <g id="line2d_75"/>
     <g id="text_43">
      <text style="fill:#262626;font-family:Arial;font-size:30px;font-style:normal;font-weight:400;text-anchor:end;" transform="rotate(-0, 1494.71, 409.024719)" x="1494.71" y="409.024719">0.4</text>
     </g>
    </g>
    <g id="ytick_16">
     <g id="line2d_76">
      <path clip-path="url(#pe59225aa96)" d="M 1501.71 282.152 
L 2112.8075 282.152 
" style="fill:none;stroke:#cccccc;stroke-linecap:round;"/>
     </g>
     <g id="line2d_77"/>
     <g id="text_44">
      <text style="fill:#262626;font-family:Arial;font-size:30px;font-style:normal;font-weight:400;text-anchor:end;" transform="rotate(-0, 1494.71, 292.888719)" x="1494.71" y="292.888719">0.6</text>
     </g>
    </g>
    <g id="ytick_17">
     <g id="line2d_78">
      <path clip-path="url(#pe59225aa96)" d="M 1501.71 166.016 
L 2112.8075 166.016 
" style="fill:none;stroke:#cccccc;stroke-linecap:round;"/>
     </g>
     <g id="line2d_79"/>
     <g id="text_45">
      <text style="fill:#262626;font-family:Arial;font-size:30px;font-style:normal;font-weight:400;text-anchor:end;" transform="rotate(-0, 1494.71, 176.752719)" x="1494.71" y="176.752719">0.8</text>
     </g>
    </g>
    <g id="ytick_18">
     <g id="line2d_80">
      <path clip-path="url(#pe59225aa96)" d="M 1501.71 49.88 
L 2112.8075 49.88 
" style="fill:none;stroke:#cccccc;stroke-linecap:round;"/>
     </g>
     <g id="line2d_81"/>
     <g id="text_46">
      <text style="fill:#262626;font-family:Arial;font-size:30px;font-style:normal;font-weight:400;text-anchor:end;" transform="rotate(-0, 1494.71, 60.616719)" x="1494.71" y="60.616719">1.0</text>
     </g>
    </g>
   </g>
   <g id="PolyCollection_3">
    <path clip-path="url(#pe59225aa96)" d="M 1586.394666 630.559954 
L 1586.394666 630.56 
L 1591.983485 630.56 
L 1597.572303 630.56 
L 1603.161122 630.56 
L 1608.749941 630.56 
L 1614.338759 630.56 
L 1619.927578 630.56 
L 1625.516397 630.56 
L 1631.105216 630.56 
L 1636.694034 630.56 
L 1642.282853 630.56 
L 1647.871672 630.56 
L 1653.46049 630.56 
L 1659.049309 630.56 
L 1664.638128 630.56 
L 1670.226946 630.56 
L 1675.815765 630.56 
L 1681.404584 630.56 
L 1686.993403 630.56 
L 1692.582221 630.56 
L 1698.17104 630.56 
L 1703.759859 630.56 
L 1709.348677 630.56 
L 1714.937496 630.56 
L 1720.526315 630.56 
L 1726.115134 630.56 
L 1731.703952 630.56 
L 1737.292771 630.56 
L 1742.88159 630.56 
L 1748.470408 630.56 
L 1754.059227 630.56 
L 1759.648046 630.56 
L 1765.236864 630.56 
L 1770.825683 630.56 
L 1776.414502 630.56 
L 1782.003321 630.56 
L 1787.592139 630.56 
L 1793.180958 630.56 
L 1798.769777 630.56 
L 1804.358595 630.56 
L 1809.947414 630.56 
L 1815.536233 630.56 
L 1821.125052 630.56 
L 1826.71387 630.56 
L 1832.302689 630.56 
L 1837.891508 630.56 
L 1843.480326 630.56 
L 1849.069145 630.56 
L 1854.657964 630.56 
L 1860.246782 630.56 
L 1865.835601 630.56 
L 1871.42442 630.56 
L 1877.013239 630.56 
L 1882.602057 630.56 
L 1888.190876 630.56 
L 1893.779695 630.56 
L 1899.368513 630.56 
L 1904.957332 630.56 
L 1910.546151 630.56 
L 1916.13497 630.56 
L 1921.723788 630.56 
L 1927.312607 630.56 
L 1932.901426 630.56 
L 1938.490244 630.56 
L 1944.079063 630.56 
L 1949.667882 630.56 
L 1955.2567 630.56 
L 1960.845519 630.56 
L 1966.434338 630.56 
L 1972.023157 630.56 
L 1977.611975 630.56 
L 1983.200794 630.56 
L 1988.789613 630.56 
L 1994.378431 630.56 
L 1999.96725 630.56 
L 2005.556069 630.56 
L 2011.144888 630.56 
L 2016.733706 630.56 
L 2022.322525 630.56 
L 2027.911344 630.56 
L 2033.500162 630.56 
L 2039.088981 630.56 
L 2044.6778 630.56 
L 2050.266618 630.56 
L 2055.855437 630.56 
L 2061.444256 630.56 
L 2067.033075 630.56 
L 2072.621893 630.56 
L 2078.210712 630.56 
L 2083.799531 630.56 
L 2089.388349 630.56 
L 2094.977168 630.56 
L 2100.565987 630.56 
L 2106.154806 630.56 
L 2111.743624 630.56 
L 2117.332443 630.56 
L 2122.921262 630.56 
L 2128.51008 630.56 
L 2134.098899 630.56 
L 2139.687718 630.56 
L 2145.276536 630.56 
L 2150.865355 630.56 
L 2156.454174 630.56 
L 2162.042993 630.56 
L 2167.631811 630.56 
L 2173.22063 630.56 
L 2178.809449 630.56 
L 2184.398267 630.56 
L 2189.987086 630.56 
L 2195.575905 630.56 
L 2201.164724 630.56 
L 2206.753542 630.56 
L 2212.342361 630.56 
L 2217.93118 630.56 
L 2223.519998 630.56 
L 2229.108817 630.56 
L 2234.697636 630.56 
L 2240.286454 630.56 
L 2245.875273 630.56 
L 2251.464092 630.56 
L 2257.052911 630.56 
L 2262.641729 630.56 
L 2268.230548 630.56 
L 2273.819367 630.56 
L 2279.408185 630.56 
L 2284.997004 630.56 
L 2290.585823 630.56 
L 2296.174642 630.56 
L 2296.174642 50.129484 
L 2296.174642 50.129484 
L 2290.585823 50.47305 
L 2284.997004 51.19563 
L 2279.408185 52.606104 
L 2273.819367 55.161525 
L 2268.230548 59.458875 
L 2262.641729 66.167156 
L 2257.052911 75.888765 
L 2251.464092 88.969912 
L 2245.875273 105.316622 
L 2240.286454 124.294126 
L 2234.697636 144.772893 
L 2229.108817 165.331775 
L 2223.519998 184.560457 
L 2217.93118 201.356907 
L 2212.342361 215.118175 
L 2206.753542 225.773042 
L 2201.164724 233.673168 
L 2195.575905 239.408734 
L 2189.987086 243.625015 
L 2184.398267 246.892528 
L 2178.809449 249.646697 
L 2173.22063 252.183833 
L 2167.631811 254.688222 
L 2162.042993 257.267612 
L 2156.454174 259.983625 
L 2150.865355 262.872482 
L 2145.276536 265.956881 
L 2139.687718 269.251789 
L 2134.098899 272.766891 
L 2128.51008 276.50764 
L 2122.921262 280.476061 
L 2117.332443 284.671882 
L 2111.743624 289.094117 
L 2106.154806 293.742884 
L 2100.565987 298.621108 
L 2094.977168 303.735689 
L 2089.388349 309.097855 
L 2083.799531 314.722554 
L 2078.210712 320.626962 
L 2072.621893 326.828322 
L 2067.033075 333.341533 
L 2061.444256 340.177017 
L 2055.855437 347.339402 
L 2050.266618 354.827307 
L 2044.6778 362.634072 
L 2039.088981 370.748698 
L 2033.500162 379.155998 
L 2027.911344 387.835211 
L 2022.322525 396.757192 
L 2016.733706 405.881377 
L 2011.144888 415.154346 
L 2005.556069 424.511569 
L 1999.96725 433.882677 
L 1994.378431 443.199075 
L 1988.789613 452.401581 
L 1983.200794 461.445726 
L 1977.611975 470.303244 
L 1972.023157 478.959716 
L 1966.434338 487.409517 
L 1960.845519 495.649834 
L 1955.2567 503.675464 
L 1949.667882 511.475596 
L 1944.079063 519.033096 
L 1938.490244 526.326095 
L 1932.901426 533.331107 
L 1927.312607 540.026574 
L 1921.723788 546.395811 
L 1916.13497 552.428761 
L 1910.546151 558.122512 
L 1904.957332 563.480963 
L 1899.368513 568.514102 
L 1893.779695 573.237143 
L 1888.190876 577.669546 
L 1882.602057 581.833774 
L 1877.013239 585.753731 
L 1871.42442 589.452944 
L 1865.835601 592.952598 
L 1860.246782 596.269638 
L 1854.657964 599.415226 
L 1849.069145 602.393958 
L 1843.480326 605.204304 
L 1837.891508 607.840389 
L 1832.302689 610.294809 
L 1826.71387 612.561615 
L 1821.125052 614.638554 
L 1815.536233 616.527952 
L 1809.947414 618.236318 
L 1804.358595 619.7732 
L 1798.769777 621.150007 
L 1793.180958 622.379183 
L 1787.592139 623.473752 
L 1782.003321 624.446948 
L 1776.414502 625.311721 
L 1770.825683 626.080067 
L 1765.236864 626.762401 
L 1759.648046 627.367179 
L 1754.059227 627.900916 
L 1748.470408 628.368572 
L 1742.88159 628.774161 
L 1737.292771 629.121413 
L 1731.703952 629.414335 
L 1726.115134 629.657535 
L 1720.526315 629.856268 
L 1714.937496 630.01621 
L 1709.348677 630.143099 
L 1703.759859 630.242381 
L 1698.17104 630.318976 
L 1692.582221 630.377213 
L 1686.993403 630.420875 
L 1681.404584 630.453262 
L 1675.815765 630.477224 
L 1670.226946 630.495143 
L 1664.638128 630.508894 
L 1659.049309 630.519828 
L 1653.46049 630.528811 
L 1647.871672 630.536324 
L 1642.282853 630.542585 
L 1636.694034 630.547681 
L 1631.105216 630.551672 
L 1625.516397 630.554645 
L 1619.927578 630.556739 
L 1614.338759 630.558125 
L 1608.749941 630.558985 
L 1603.161122 630.559483 
L 1597.572303 630.559754 
L 1591.983485 630.55989 
L 1586.394666 630.559954 
z
" style="fill:#55a868;fill-opacity:0.25;"/>
   </g>
   <g id="line2d_82">
    <path clip-path="url(#pe59225aa96)" d="M 1521.921587 630.559955 
L 1622.662732 630.451567 
L 1640.440581 630.227441 
L 1652.29248 629.888311 
L 1658.21843 629.59891 
L 1664.144379 629.186705 
L 1670.070329 628.612994 
L 1675.996279 627.831076 
L 1681.922228 626.782873 
L 1687.848178 625.396009 
L 1693.774127 623.57784 
L 1699.700077 621.20268 
L 1705.626027 618.098068 
L 1711.551976 614.045622 
L 1717.477926 608.805306 
L 1723.403876 602.15295 
L 1729.329825 593.914479 
L 1735.255775 583.992918 
L 1741.181725 572.390155 
L 1747.107674 559.213173 
L 1753.033624 544.651262 
L 1758.959574 528.934334 
L 1764.885523 512.301067 
L 1770.811473 494.987645 
L 1782.663372 459.187855 
L 1800.441221 404.827914 
L 1806.367171 387.005539 
L 1812.293121 369.560536 
L 1818.21907 352.603124 
L 1824.14502 336.17464 
L 1830.07097 320.256373 
L 1835.996919 304.822925 
L 1841.922869 289.905852 
L 1847.848819 275.620397 
L 1853.774768 262.130658 
L 1859.700718 249.576074 
L 1865.626668 238.012293 
L 1871.552617 227.400611 
L 1877.478567 217.635153 
L 1883.404517 208.574943 
L 1889.330466 200.063052 
L 1895.256416 191.938361 
L 1907.108315 176.284219 
L 1924.886164 153.220516 
L 1936.738063 138.129776 
L 1942.664013 130.797289 
L 1948.589963 123.72182 
L 1954.515912 117.030861 
L 1960.441862 110.869236 
L 1966.367812 105.364446 
L 1972.293761 100.587291 
L 1978.219711 96.53308 
L 1984.145661 93.137141 
L 1990.07161 90.311183 
L 1995.99756 87.973014 
L 2001.92351 86.054556 
L 2007.849459 84.494878 
L 2013.775409 83.233283 
L 2019.701359 82.209797 
L 2025.627308 81.370246 
L 2037.479208 80.077146 
L 2049.331107 79.118906 
L 2067.108956 77.991452 
L 2090.812755 76.681504 
L 2114.516553 75.613049 
L 2144.146301 74.665204 
L 2161 74.061452 
L 2161 74.061452 
" style="fill:none;stroke:#4c72b0;stroke-linecap:round;stroke-width:4;"/>
   </g>
   <g id="line2d_83">
    <path clip-path="url(#pe59225aa96)" d="M 1586.394666 630.559954 
L 1681.404584 630.453262 
L 1703.759859 630.242381 
L 1720.526315 629.856268 
L 1731.703952 629.414335 
L 1742.88159 628.774161 
L 1754.059227 627.900916 
L 1765.236864 626.762401 
L 1776.414502 625.311721 
L 1787.592139 623.473752 
L 1793.180958 622.379183 
L 1798.769777 621.150007 
L 1804.358595 619.7732 
L 1809.947414 618.236318 
L 1815.536233 616.527952 
L 1821.125052 614.638554 
L 1826.71387 612.561615 
L 1832.302689 610.294809 
L 1837.891508 607.840389 
L 1843.480326 605.204304 
L 1849.069145 602.393958 
L 1854.657964 599.415226 
L 1860.246782 596.269638 
L 1865.835601 592.952598 
L 1871.42442 589.452944 
L 1877.013239 585.753731 
L 1882.602057 581.833774 
L 1888.190876 577.669546 
L 1893.779695 573.237143 
L 1899.368513 568.514102 
L 1904.957332 563.480963 
L 1910.546151 558.122512 
L 1916.13497 552.428761 
L 1921.723788 546.395811 
L 1927.312607 540.026574 
L 1932.901426 533.331107 
L 1938.490244 526.326095 
L 1944.079063 519.033096 
L 1949.667882 511.475596 
L 1955.2567 503.675464 
L 1960.845519 495.649834 
L 1966.434338 487.409517 
L 1972.023157 478.959716 
L 1983.200794 461.445726 
L 1994.378431 443.199075 
L 2022.322525 396.757192 
L 2027.911344 387.835211 
L 2033.500162 379.155998 
L 2039.088981 370.748698 
L 2044.6778 362.634072 
L 2050.266618 354.827307 
L 2055.855437 347.339402 
L 2061.444256 340.177017 
L 2067.033075 333.341533 
L 2072.621893 326.828322 
L 2078.210712 320.626962 
L 2083.799531 314.722554 
L 2089.388349 309.097855 
L 2094.977168 303.735689 
L 2100.565987 298.621108 
L 2106.154806 293.742884 
L 2111.743624 289.094117 
L 2117.332443 284.671882 
L 2122.921262 280.476061 
L 2128.51008 276.50764 
L 2134.098899 272.766891 
L 2139.687718 269.251789 
L 2145.276536 265.956881 
L 2150.865355 262.872482 
L 2156.454174 259.983625 
L 2161 257.774478 
L 2161 257.774478 
" style="fill:none;stroke:#55a868;stroke-linecap:round;stroke-width:4;"/>
   </g>
   <g id="patch_13">
    <path d="M 1501.71 630.56 
L 1501.71 49.88 
" style="fill:none;stroke:#cccccc;stroke-linecap:square;stroke-linejoin:miter;"/>
   </g>
   <g id="patch_14">
    <path d="M 2112.8075 630.56 
L 2112.8075 49.88 
" style="fill:none;stroke:#cccccc;stroke-linecap:square;stroke-linejoin:miter;"/>
   </g>
   <g id="patch_15">
    <path d="M 1501.71 630.56 
L 2112.8075 630.56 
" style="fill:none;stroke:#cccccc;stroke-linecap:square;stroke-linejoin:miter;"/>
   </g>
   <g id="patch_16">
    <path d="M 1501.71 49.88 
L 2112.8075 49.88 
" style="fill:none;stroke:#cccccc;stroke-linecap:square;stroke-linejoin:miter;"/>
   </g>
   <g id="text_47">
    <text style="fill:#262626;font-family:Arial;font-size:36px;font-style:normal;font-weight:400;text-anchor:middle;" transform="rotate(-0, 1807.25875, 44.88)" x="1807.25875" y="44.88">5TPN: RSV RSV90 (HLE)</text>
   </g>
  </g>
  <g id="axes_4">
   <g id="patch_17">
    <path d="M 87.63 1331.12 
L 698.7275 1331.12 
L 698.7275 750.44 
L 87.63 750.44 
z
" style="fill:#ffffff;"/>
   </g>
   <g id="matplotlib.axis_7">
    <g id="xtick_19">
     <g id="line2d_84">
      <path clip-path="url(#p75723a1067)" d="M 87.63 1331.12 
L 87.63 750.44 
" style="fill:none;stroke:#cccccc;stroke-linecap:round;"/>
     </g>
     <g id="line2d_85"/>
     <g id="text_48">
      <text style="fill:#262626;font-family:Arial;font-size:30px;font-style:normal;font-weight:400;text-anchor:middle;" transform="rotate(-0, 87.63, 1359.593438)" x="87.63" y="1359.593438">0</text>
     </g>
    </g>
    <g id="xtick_20">
     <g id="line2d_86">
      <path clip-path="url(#p75723a1067)" d="M 209.8495 1331.12 
L 209.8495 750.44 
" style="fill:none;stroke:#cccccc;stroke-linecap:round;"/>
     </g>
     <g id="line2d_87"/>
     <g id="text_49">
      <text style="fill:#262626;font-family:Arial;font-size:30px;font-style:normal;font-weight:400;text-anchor:middle;" transform="rotate(-0, 209.8495, 1359.593438)" x="209.8495" y="1359.593438">1</text>
     </g>
    </g>
    <g id="xtick_21">
     <g id="line2d_88">
      <path clip-path="url(#p75723a1067)" d="M 332.069 1331.12 
L 332.069 750.44 
" style="fill:none;stroke:#cccccc;stroke-linecap:round;"/>
     </g>
     <g id="line2d_89"/>
     <g id="text_50">
      <text style="fill:#262626;font-family:Arial;font-size:30px;font-style:normal;font-weight:400;text-anchor:middle;" transform="rotate(-0, 332.069, 1359.593438)" x="332.069" y="1359.593438">2</text>
     </g>
    </g>
    <g id="xtick_22">
     <g id="line2d_90">
      <path clip-path="url(#p75723a1067)" d="M 454.2885 1331.12 
L 454.2885 750.44 
" style="fill:none;stroke:#cccccc;stroke-linecap:round;"/>
     </g>
     <g id="line2d_91"/>
     <g id="text_51">
      <text style="fill:#262626;font-family:Arial;font-size:30px;font-style:normal;font-weight:400;text-anchor:middle;" transform="rotate(-0, 454.2885, 1359.593438)" x="454.2885" y="1359.593438">3</text>
     </g>
    </g>
    <g id="xtick_23">
     <g id="line2d_92">
      <path clip-path="url(#p75723a1067)" d="M 576.508 1331.12 
L 576.508 750.44 
" style="fill:none;stroke:#cccccc;stroke-linecap:round;"/>
     </g>
     <g id="line2d_93"/>
     <g id="text_52">
      <text style="fill:#262626;font-family:Arial;font-size:30px;font-style:normal;font-weight:400;text-anchor:middle;" transform="rotate(-0, 576.508, 1359.593438)" x="576.508" y="1359.593438">4</text>
     </g>
    </g>
    <g id="xtick_24">
     <g id="line2d_94">
      <path clip-path="url(#p75723a1067)" d="M 698.7275 1331.12 
L 698.7275 750.44 
" style="fill:none;stroke:#cccccc;stroke-linecap:round;"/>
     </g>
     <g id="line2d_95"/>
     <g id="text_53">
      <text style="fill:#262626;font-family:Arial;font-size:30px;font-style:normal;font-weight:400;text-anchor:middle;" transform="rotate(-0, 698.7275, 1359.593438)" x="698.7275" y="1359.593438">5</text>
     </g>
    </g>
    <g id="text_54">
     <text style="fill:#262626;font-family:Arial;font-size:33px;font-style:normal;font-weight:400;text-anchor:middle;" transform="rotate(-0, 393.17875, 1393.176719)" x="393.17875" y="1393.176719">RMSD</text>
    </g>
   </g>
   <g id="matplotlib.axis_8">
    <g id="ytick_19">
     <g id="line2d_96">
      <path clip-path="url(#p75723a1067)" d="M 87.63 1331.12 
L 698.7275 1331.12 
" style="fill:none;stroke:#cccccc;stroke-linecap:round;"/>
     </g>
     <g id="line2d_97"/>
     <g id="text_55">
      <text style="fill:#262626;font-family:Arial;font-size:30px;font-style:normal;font-weight:400;text-anchor:end;" transform="rotate(-0, 80.63, 1341.856719)" x="80.63" y="1341.856719">0.0</text>
     </g>
    </g>
    <g id="ytick_20">
     <g id="line2d_98">
      <path clip-path="url(#p75723a1067)" d="M 87.63 1214.984 
L 698.7275 1214.984 
" style="fill:none;stroke:#cccccc;stroke-linecap:round;"/>
     </g>
     <g id="line2d_99"/>
     <g id="text_56">
      <text style="fill:#262626;font-family:Arial;font-size:30px;font-style:normal;font-weight:400;text-anchor:end;" transform="rotate(-0, 80.63, 1225.720719)" x="80.63" y="1225.720719">0.2</text>
     </g>
    </g>
    <g id="ytick_21">
     <g id="line2d_100">
      <path clip-path="url(#p75723a1067)" d="M 87.63 1098.848 
L 698.7275 1098.848 
" style="fill:none;stroke:#cccccc;stroke-linecap:round;"/>
     </g>
     <g id="line2d_101"/>
     <g id="text_57">
      <text style="fill:#262626;font-family:Arial;font-size:30px;font-style:normal;font-weight:400;text-anchor:end;" transform="rotate(-0, 80.63, 1109.584719)" x="80.63" y="1109.584719">0.4</text>
     </g>
    </g>
    <g id="ytick_22">
     <g id="line2d_102">
      <path clip-path="url(#p75723a1067)" d="M 87.63 982.712 
L 698.7275 982.712 
" style="fill:none;stroke:#cccccc;stroke-linecap:round;"/>
     </g>
     <g id="line2d_103"/>
     <g id="text_58">
      <text style="fill:#262626;font-family:Arial;font-size:30px;font-style:normal;font-weight:400;text-anchor:end;" transform="rotate(-0, 80.63, 993.448719)" x="80.63" y="993.448719">0.6</text>
     </g>
    </g>
    <g id="ytick_23">
     <g id="line2d_104">
      <path clip-path="url(#p75723a1067)" d="M 87.63 866.576 
L 698.7275 866.576 
" style="fill:none;stroke:#cccccc;stroke-linecap:round;"/>
     </g>
     <g id="line2d_105"/>
     <g id="text_59">
      <text style="fill:#262626;font-family:Arial;font-size:30px;font-style:normal;font-weight:400;text-anchor:end;" transform="rotate(-0, 80.63, 877.312719)" x="80.63" y="877.312719">0.8</text>
     </g>
    </g>
    <g id="ytick_24">
     <g id="line2d_106">
      <path clip-path="url(#p75723a1067)" d="M 87.63 750.44 
L 698.7275 750.44 
" style="fill:none;stroke:#cccccc;stroke-linecap:round;"/>
     </g>
     <g id="line2d_107"/>
     <g id="text_60">
      <text style="fill:#262626;font-family:Arial;font-size:30px;font-style:normal;font-weight:400;text-anchor:end;" transform="rotate(-0, 80.63, 761.176719)" x="80.63" y="761.176719">1.0</text>
     </g>
    </g>
   </g>
   <g id="PolyCollection_4">
    <path clip-path="url(#p75723a1067)" d="M 77.940248 1331.119905 
L 77.940248 1331.12 
L 84.49138 1331.12 
L 91.042512 1331.12 
L 97.593643 1331.12 
L 104.144775 1331.12 
L 110.695907 1331.12 
L 117.247039 1331.12 
L 123.798171 1331.12 
L 130.349302 1331.12 
L 136.900434 1331.12 
L 143.451566 1331.12 
L 150.002698 1331.12 
L 156.55383 1331.12 
L 163.104961 1331.12 
L 169.656093 1331.12 
L 176.207225 1331.12 
L 182.758357 1331.12 
L 189.309489 1331.12 
L 195.86062 1331.12 
L 202.411752 1331.12 
L 208.962884 1331.12 
L 215.514016 1331.12 
L 222.065148 1331.12 
L 228.616279 1331.12 
L 235.167411 1331.12 
L 241.718543 1331.12 
L 248.269675 1331.12 
L 254.820806 1331.12 
L 261.371938 1331.12 
L 267.92307 1331.12 
L 274.474202 1331.12 
L 281.025334 1331.12 
L 287.576465 1331.12 
L 294.127597 1331.12 
L 300.678729 1331.12 
L 307.229861 1331.12 
L 313.780993 1331.12 
L 320.332124 1331.12 
L 326.883256 1331.12 
L 333.434388 1331.12 
L 339.98552 1331.12 
L 346.536652 1331.12 
L 353.087783 1331.12 
L 359.638915 1331.12 
L 366.190047 1331.12 
L 372.741179 1331.12 
L 379.292311 1331.12 
L 385.843442 1331.12 
L 392.394574 1331.12 
L 398.945706 1331.12 
L 405.496838 1331.12 
L 412.047969 1331.12 
L 418.599101 1331.12 
L 425.150233 1331.12 
L 431.701365 1331.12 
L 438.252497 1331.12 
L 444.803628 1331.12 
L 451.35476 1331.12 
L 457.905892 1331.12 
L 464.457024 1331.12 
L 471.008156 1331.12 
L 477.559287 1331.12 
L 484.110419 1331.12 
L 490.661551 1331.12 
L 497.212683 1331.12 
L 503.763815 1331.12 
L 510.314946 1331.12 
L 516.866078 1331.12 
L 523.41721 1331.12 
L 529.968342 1331.12 
L 536.519474 1331.12 
L 543.070605 1331.12 
L 549.621737 1331.12 
L 556.172869 1331.12 
L 562.724001 1331.12 
L 569.275133 1331.12 
L 575.826264 1331.12 
L 582.377396 1331.12 
L 588.928528 1331.12 
L 595.47966 1331.12 
L 602.030791 1331.12 
L 608.581923 1331.12 
L 615.133055 1331.12 
L 621.684187 1331.12 
L 628.235319 1331.12 
L 634.78645 1331.12 
L 641.337582 1331.12 
L 647.888714 1331.12 
L 654.439846 1331.12 
L 660.990978 1331.12 
L 667.542109 1331.12 
L 674.093241 1331.12 
L 680.644373 1331.12 
L 687.195505 1331.12 
L 693.746637 1331.12 
L 700.297768 1331.12 
L 706.8489 1331.12 
L 713.400032 1331.12 
L 719.951164 1331.12 
L 726.502296 1331.12 
L 733.053427 1331.12 
L 739.604559 1331.12 
L 746.155691 1331.12 
L 752.706823 1331.12 
L 759.257954 1331.12 
L 765.809086 1331.12 
L 772.360218 1331.12 
L 778.91135 1331.12 
L 785.462482 1331.12 
L 792.013613 1331.12 
L 798.564745 1331.12 
L 805.115877 1331.12 
L 811.667009 1331.12 
L 818.218141 1331.12 
L 824.769272 1331.12 
L 831.320404 1331.12 
L 837.871536 1331.12 
L 844.422668 1331.12 
L 850.9738 1331.12 
L 857.524931 1331.12 
L 864.076063 1331.12 
L 870.627195 1331.12 
L 877.178327 1331.12 
L 883.729459 1331.12 
L 890.28059 1331.12 
L 896.831722 1331.12 
L 903.382854 1331.12 
L 909.933986 1331.12 
L 909.933986 751.009883 
L 909.933986 751.009883 
L 903.382854 751.590464 
L 896.831722 752.660399 
L 890.28059 754.538647 
L 883.729459 757.679513 
L 877.178327 762.682709 
L 870.627195 770.274557 
L 864.076063 781.248173 
L 857.524931 796.357833 
L 850.9738 816.175968 
L 844.422668 840.937341 
L 837.871536 870.4081 
L 831.320404 903.820966 
L 824.769272 939.907376 
L 818.218141 977.033841 
L 811.667009 1013.420097 
L 805.115877 1047.391298 
L 798.564745 1077.605695 
L 792.013613 1103.207021 
L 785.462482 1123.874332 
L 778.91135 1139.771756 
L 772.360218 1151.425842 
L 765.809086 1159.571033 
L 759.257954 1165.00238 
L 752.706823 1168.462636 
L 746.155691 1170.574791 
L 739.604559 1171.817116 
L 733.053427 1172.529341 
L 726.502296 1172.936261 
L 719.951164 1173.177064 
L 713.400032 1173.33269 
L 706.8489 1173.447567 
L 700.297768 1173.544975 
L 693.746637 1173.636931 
L 687.195505 1173.73003 
L 680.644373 1173.82861 
L 674.093241 1173.936292 
L 667.542109 1174.056612 
L 660.990978 1174.193151 
L 654.439846 1174.349444 
L 647.888714 1174.528797 
L 641.337582 1174.734136 
L 634.78645 1174.967939 
L 628.235319 1175.232323 
L 621.684187 1175.529294 
L 615.133055 1175.861135 
L 608.581923 1176.230888 
L 602.030791 1176.642804 
L 595.47966 1177.102636 
L 588.928528 1177.617651 
L 582.377396 1178.19625 
L 575.826264 1178.8472 
L 569.275133 1179.578561 
L 562.724001 1180.396519 
L 556.172869 1181.30441 
L 549.621737 1182.302243 
L 543.070605 1183.386895 
L 536.519474 1184.553029 
L 529.968342 1185.794534 
L 523.41721 1187.106119 
L 516.866078 1188.484663 
L 510.314946 1189.929969 
L 503.763815 1191.444812 
L 497.212683 1193.034377 
L 490.661551 1194.705378 
L 484.110419 1196.465215 
L 477.559287 1198.321383 
L 471.008156 1200.281241 
L 464.457024 1202.352051 
L 457.905892 1204.541137 
L 451.35476 1206.856089 
L 444.803628 1209.305052 
L 438.252497 1211.897263 
L 431.701365 1214.643978 
L 425.150233 1217.559774 
L 418.599101 1220.663971 
L 412.047969 1223.981591 
L 405.496838 1227.543218 
L 398.945706 1231.383133 
L 392.394574 1235.535487 
L 385.843442 1240.028726 
L 379.292311 1244.879009 
L 372.741179 1250.083752 
L 366.190047 1255.616598 
L 359.638915 1261.424957 
L 353.087783 1267.430891 
L 346.536652 1273.535486 
L 339.98552 1279.626242 
L 333.434388 1285.5864 
L 326.883256 1291.30481 
L 320.332124 1296.684854 
L 313.780993 1301.651178 
L 307.229861 1306.153454 
L 300.678729 1310.166965 
L 294.127597 1313.690391 
L 287.576465 1316.741556 
L 281.025334 1319.352143 
L 274.474202 1321.56232 
L 267.92307 1323.416041 
L 261.371938 1324.957456 
L 254.820806 1326.228561 
L 248.269675 1327.267949 
L 241.718543 1328.110378 
L 235.167411 1328.786819 
L 228.616279 1329.324718 
L 222.065148 1329.748273 
L 215.514016 1330.078648 
L 208.962884 1330.334125 
L 202.411752 1330.530229 
L 195.86062 1330.67987 
L 189.309489 1330.793546 
L 182.758357 1330.879603 
L 176.207225 1330.944546 
L 169.656093 1330.993363 
L 163.104961 1331.029847 
L 156.55383 1331.056878 
L 150.002698 1331.076661 
L 143.451566 1331.090907 
L 136.900434 1331.100957 
L 130.349302 1331.107879 
L 123.798171 1331.112514 
L 117.247039 1331.115524 
L 110.695907 1331.117414 
L 104.144775 1331.118559 
L 97.593643 1331.119226 
L 91.042512 1331.1196 
L 84.49138 1331.119802 
L 77.940248 1331.119905 
z
" style="fill:#55a868;fill-opacity:0.25;"/>
   </g>
   <g id="line2d_108">
    <path clip-path="url(#p75723a1067)" d="M 99.256741 1331.119938 
L 122.620721 1331.063557 
L 134.302711 1330.855486 
L 140.143706 1330.546142 
L 145.984701 1329.88216 
L 151.825696 1328.618715 
L 157.666691 1326.552295 
L 163.507686 1323.512561 
L 169.348681 1319.331946 
L 175.189676 1313.784063 
L 181.030671 1306.504567 
L 186.871666 1297.164616 
L 192.712661 1285.614258 
L 198.553656 1271.721151 
L 204.394651 1255.290076 
L 210.235646 1236.351034 
L 216.076641 1215.174469 
L 221.917636 1192.145668 
L 227.758631 1167.587397 
L 233.599626 1141.516125 
L 239.440621 1114.012664 
L 245.281616 1085.416663 
L 256.963606 1026.333982 
L 262.804601 996.589748 
L 268.645596 967.45727 
L 274.486591 939.254162 
L 280.327586 912.446602 
L 286.168581 887.756585 
L 292.009576 865.599358 
L 297.850571 846.169555 
L 303.691566 829.76912 
L 309.532561 816.456388 
L 315.373556 805.800447 
L 321.214551 797.314608 
L 327.055546 790.601263 
L 332.896542 785.222855 
L 338.737537 780.905744 
L 344.578532 777.449433 
L 350.419527 774.584889 
L 356.260522 772.197156 
L 362.101517 770.267617 
L 367.942512 768.673167 
L 373.783507 767.294893 
L 379.624502 766.11567 
L 391.306492 764.195822 
L 414.670472 760.749056 
L 420.511467 759.707786 
L 426.352462 758.506935 
L 432.193457 757.090171 
L 443.875447 753.675647 
L 449.716442 752.276375 
L 455.557437 751.53067 
L 461.398432 751.279212 
L 478.921417 751.163432 
L 525.649377 751.067226 
L 730.084202 750.969727 
L 811.858132 750.923304 
L 835.222112 750.44881 
L 841.063107 750.440715 
L 841.063107 750.440715 
" style="fill:none;stroke:#4c72b0;stroke-linecap:round;stroke-width:4;"/>
   </g>
   <g id="line2d_109">
    <path clip-path="url(#p75723a1067)" d="M 77.940248 1331.119905 
L 163.104961 1331.029847 
L 189.309489 1330.793546 
L 202.411752 1330.530229 
L 215.514016 1330.078648 
L 228.616279 1329.324718 
L 235.167411 1328.786819 
L 241.718543 1328.110378 
L 248.269675 1327.267949 
L 254.820806 1326.228561 
L 261.371938 1324.957456 
L 267.92307 1323.416041 
L 274.474202 1321.56232 
L 281.025334 1319.352143 
L 287.576465 1316.741556 
L 294.127597 1313.690391 
L 300.678729 1310.166965 
L 307.229861 1306.153454 
L 313.780993 1301.651178 
L 320.332124 1296.684854 
L 326.883256 1291.30481 
L 333.434388 1285.5864 
L 346.536652 1273.535486 
L 359.638915 1261.424957 
L 366.190047 1255.616598 
L 372.741179 1250.083752 
L 379.292311 1244.879009 
L 385.843442 1240.028726 
L 392.394574 1235.535487 
L 398.945706 1231.383133 
L 405.496838 1227.543218 
L 412.047969 1223.981591 
L 418.599101 1220.663971 
L 425.150233 1217.559774 
L 431.701365 1214.643978 
L 438.252497 1211.897263 
L 444.803628 1209.305052 
L 451.35476 1206.856089 
L 457.905892 1204.541137 
L 464.457024 1202.352051 
L 477.559287 1198.321383 
L 490.661551 1194.705378 
L 503.763815 1191.444812 
L 516.866078 1188.484663 
L 529.968342 1185.794534 
L 543.070605 1183.386895 
L 556.172869 1181.30441 
L 569.275133 1179.578561 
L 582.377396 1178.19625 
L 595.47966 1177.102636 
L 608.581923 1176.230888 
L 628.235319 1175.232323 
L 647.888714 1174.528797 
L 667.542109 1174.056612 
L 700.297768 1173.544975 
L 719.951164 1173.177064 
L 726.502296 1172.936261 
L 733.053427 1172.529341 
L 739.604559 1171.817116 
L 746.155691 1170.574791 
L 752.706823 1168.462636 
L 759.257954 1165.00238 
L 765.809086 1159.571033 
L 772.360218 1151.425842 
L 778.91135 1139.771756 
L 785.462482 1123.874332 
L 792.013613 1103.207021 
L 798.564745 1077.605695 
L 805.115877 1047.391298 
L 811.667009 1013.420097 
L 818.218141 977.033841 
L 824.769272 939.907376 
L 831.320404 903.820966 
L 837.871536 870.4081 
L 844.422668 840.937341 
L 850.9738 816.175968 
L 857.524931 796.357833 
L 864.076063 781.248173 
L 870.627195 770.274557 
L 877.178327 762.682709 
L 883.729459 757.679513 
L 890.28059 754.538647 
L 896.831722 752.660399 
L 903.382854 751.590464 
L 909.933986 751.009883 
L 909.933986 751.009883 
" style="fill:none;stroke:#55a868;stroke-linecap:round;stroke-width:4;"/>
   </g>
   <g id="patch_18">
    <path d="M 87.63 1331.12 
L 87.63 750.44 
" style="fill:none;stroke:#cccccc;stroke-linecap:square;stroke-linejoin:miter;"/>
   </g>
   <g id="patch_19">
    <path d="M 698.7275 1331.12 
L 698.7275 750.44 
" style="fill:none;stroke:#cccccc;stroke-linecap:square;stroke-linejoin:miter;"/>
   </g>
   <g id="patch_20">
    <path d="M 87.63 1331.12 
L 698.7275 1331.12 
" style="fill:none;stroke:#cccccc;stroke-linecap:square;stroke-linejoin:miter;"/>
   </g>
   <g id="patch_21">
    <path d="M 87.63 750.44 
L 698.7275 750.44 
" style="fill:none;stroke:#cccccc;stroke-linecap:square;stroke-linejoin:miter;"/>
   </g>
   <g id="text_61">
    <text style="fill:#262626;font-family:Arial;font-size:36px;font-style:normal;font-weight:400;text-anchor:middle;" transform="rotate(-0, 393.17875, 745.44)" x="393.17875" y="745.44">3O41: RSV 101F (E)</text>
   </g>
  </g>
  <g id="axes_5">
   <g id="patch_22">
    <path d="M 794.67 1331.12 
L 1405.7675 1331.12 
L 1405.7675 750.44 
L 794.67 750.44 
z
" style="fill:#ffffff;"/>
   </g>
   <g id="matplotlib.axis_9">
    <g id="xtick_25">
     <g id="line2d_110">
      <path clip-path="url(#p7b1f0c4379)" d="M 794.67 1331.12 
L 794.67 750.44 
" style="fill:none;stroke:#cccccc;stroke-linecap:round;"/>
     </g>
     <g id="line2d_111"/>
     <g id="text_62">
      <text style="fill:#262626;font-family:Arial;font-size:30px;font-style:normal;font-weight:400;text-anchor:middle;" transform="rotate(-0, 794.67, 1359.593438)" x="794.67" y="1359.593438">0</text>
     </g>
    </g>
    <g id="xtick_26">
     <g id="line2d_112">
      <path clip-path="url(#p7b1f0c4379)" d="M 916.8895 1331.12 
L 916.8895 750.44 
" style="fill:none;stroke:#cccccc;stroke-linecap:round;"/>
     </g>
     <g id="line2d_113"/>
     <g id="text_63">
      <text style="fill:#262626;font-family:Arial;font-size:30px;font-style:normal;font-weight:400;text-anchor:middle;" transform="rotate(-0, 916.8895, 1359.593438)" x="916.8895" y="1359.593438">1</text>
     </g>
    </g>
    <g id="xtick_27">
     <g id="line2d_114">
      <path clip-path="url(#p7b1f0c4379)" d="M 1039.109 1331.12 
L 1039.109 750.44 
" style="fill:none;stroke:#cccccc;stroke-linecap:round;"/>
     </g>
     <g id="line2d_115"/>
     <g id="text_64">
      <text style="fill:#262626;font-family:Arial;font-size:30px;font-style:normal;font-weight:400;text-anchor:middle;" transform="rotate(-0, 1039.109, 1359.593438)" x="1039.109" y="1359.593438">2</text>
     </g>
    </g>
    <g id="xtick_28">
     <g id="line2d_116">
      <path clip-path="url(#p7b1f0c4379)" d="M 1161.3285 1331.12 
L 1161.3285 750.44 
" style="fill:none;stroke:#cccccc;stroke-linecap:round;"/>
     </g>
     <g id="line2d_117"/>
     <g id="text_65">
      <text style="fill:#262626;font-family:Arial;font-size:30px;font-style:normal;font-weight:400;text-anchor:middle;" transform="rotate(-0, 1161.3285, 1359.593438)" x="1161.3285" y="1359.593438">3</text>
     </g>
    </g>
    <g id="xtick_29">
     <g id="line2d_118">
      <path clip-path="url(#p7b1f0c4379)" d="M 1283.548 1331.12 
L 1283.548 750.44 
" style="fill:none;stroke:#cccccc;stroke-linecap:round;"/>
     </g>
     <g id="line2d_119"/>
     <g id="text_66">
      <text style="fill:#262626;font-family:Arial;font-size:30px;font-style:normal;font-weight:400;text-anchor:middle;" transform="rotate(-0, 1283.548, 1359.593438)" x="1283.548" y="1359.593438">4</text>
     </g>
    </g>
    <g id="xtick_30">
     <g id="line2d_120">
      <path clip-path="url(#p7b1f0c4379)" d="M 1405.7675 1331.12 
L 1405.7675 750.44 
" style="fill:none;stroke:#cccccc;stroke-linecap:round;"/>
     </g>
     <g id="line2d_121"/>
     <g id="text_67">
      <text style="fill:#262626;font-family:Arial;font-size:30px;font-style:normal;font-weight:400;text-anchor:middle;" transform="rotate(-0, 1405.7675, 1359.593438)" x="1405.7675" y="1359.593438">5</text>
     </g>
    </g>
    <g id="text_68">
     <text style="fill:#262626;font-family:Arial;font-size:33px;font-style:normal;font-weight:400;text-anchor:middle;" transform="rotate(-0, 1100.21875, 1393.176719)" x="1100.21875" y="1393.176719">RMSD</text>
    </g>
   </g>
   <g id="matplotlib.axis_10">
    <g id="ytick_25">
     <g id="line2d_122">
      <path clip-path="url(#p7b1f0c4379)" d="M 794.67 1331.12 
L 1405.7675 1331.12 
" style="fill:none;stroke:#cccccc;stroke-linecap:round;"/>
     </g>
     <g id="line2d_123"/>
     <g id="text_69">
      <text style="fill:#262626;font-family:Arial;font-size:30px;font-style:normal;font-weight:400;text-anchor:end;" transform="rotate(-0, 787.67, 1341.856719)" x="787.67" y="1341.856719">0.0</text>
     </g>
    </g>
    <g id="ytick_26">
     <g id="line2d_124">
      <path clip-path="url(#p7b1f0c4379)" d="M 794.67 1214.984 
L 1405.7675 1214.984 
" style="fill:none;stroke:#cccccc;stroke-linecap:round;"/>
     </g>
     <g id="line2d_125"/>
     <g id="text_70">
      <text style="fill:#262626;font-family:Arial;font-size:30px;font-style:normal;font-weight:400;text-anchor:end;" transform="rotate(-0, 787.67, 1225.720719)" x="787.67" y="1225.720719">0.2</text>
     </g>
    </g>
    <g id="ytick_27">
     <g id="line2d_126">
      <path clip-path="url(#p7b1f0c4379)" d="M 794.67 1098.848 
L 1405.7675 1098.848 
" style="fill:none;stroke:#cccccc;stroke-linecap:round;"/>
     </g>
     <g id="line2d_127"/>
     <g id="text_71">
      <text style="fill:#262626;font-family:Arial;font-size:30px;font-style:normal;font-weight:400;text-anchor:end;" transform="rotate(-0, 787.67, 1109.584719)" x="787.67" y="1109.584719">0.4</text>
     </g>
    </g>
    <g id="ytick_28">
     <g id="line2d_128">
      <path clip-path="url(#p7b1f0c4379)" d="M 794.67 982.712 
L 1405.7675 982.712 
" style="fill:none;stroke:#cccccc;stroke-linecap:round;"/>
     </g>
     <g id="line2d_129"/>
     <g id="text_72">
      <text style="fill:#262626;font-family:Arial;font-size:30px;font-style:normal;font-weight:400;text-anchor:end;" transform="rotate(-0, 787.67, 993.448719)" x="787.67" y="993.448719">0.6</text>
     </g>
    </g>
    <g id="ytick_29">
     <g id="line2d_130">
      <path clip-path="url(#p7b1f0c4379)" d="M 794.67 866.576 
L 1405.7675 866.576 
" style="fill:none;stroke:#cccccc;stroke-linecap:round;"/>
     </g>
     <g id="line2d_131"/>
     <g id="text_73">
      <text style="fill:#262626;font-family:Arial;font-size:30px;font-style:normal;font-weight:400;text-anchor:end;" transform="rotate(-0, 787.67, 877.312719)" x="787.67" y="877.312719">0.8</text>
     </g>
    </g>
    <g id="ytick_30">
     <g id="line2d_132">
      <path clip-path="url(#p7b1f0c4379)" d="M 794.67 750.44 
L 1405.7675 750.44 
" style="fill:none;stroke:#cccccc;stroke-linecap:round;"/>
     </g>
     <g id="line2d_133"/>
     <g id="text_74">
      <text style="fill:#262626;font-family:Arial;font-size:30px;font-style:normal;font-weight:400;text-anchor:end;" transform="rotate(-0, 787.67, 761.176719)" x="787.67" y="761.176719">1.0</text>
     </g>
    </g>
   </g>
   <g id="line2d_134">
    <path clip-path="url(#p7b1f0c4379)" d="M 816.143281 1331.119955 
L 879.903157 1331.026163 
L 903.088566 1330.839629 
L 920.477624 1330.452593 
L 932.070328 1330.036157 
L 943.663033 1329.451793 
L 955.255738 1328.628364 
L 961.05209 1328.028778 
L 966.848443 1327.266744 
L 972.644795 1326.331344 
L 978.441147 1325.190404 
L 984.2375 1323.781766 
L 990.033852 1322.01734 
L 995.830205 1319.775041 
L 1001.626557 1316.91716 
L 1007.422909 1313.3096 
L 1013.219262 1308.814237 
L 1019.015614 1303.264345 
L 1024.811966 1296.449998 
L 1030.608319 1288.148234 
L 1036.404671 1278.151551 
L 1042.201024 1266.269109 
L 1047.997376 1252.342549 
L 1053.793728 1236.219867 
L 1059.590081 1217.724596 
L 1065.386433 1196.875641 
L 1071.182786 1174.18626 
L 1076.979138 1150.441851 
L 1082.77549 1126.113355 
L 1088.571843 1101.244072 
L 1105.9609 1025.070744 
L 1111.757252 1000.613822 
L 1117.553605 977.133781 
L 1123.349957 954.827582 
L 1129.146309 934.097595 
L 1134.942662 915.408017 
L 1140.739014 898.915381 
L 1146.535366 884.369577 
L 1152.331719 871.325378 
L 1158.128071 859.324373 
L 1163.924424 848.025875 
L 1169.720776 837.344708 
L 1175.517128 827.404409 
L 1181.313481 818.35556 
L 1187.109833 810.325 
L 1192.906186 803.431493 
L 1198.702538 797.686404 
L 1204.49889 792.928625 
L 1210.295243 788.945516 
L 1216.091595 785.601467 
L 1221.887947 782.812671 
L 1227.6843 780.486985 
L 1233.480652 778.548341 
L 1239.277005 776.954044 
L 1245.073357 775.663175 
L 1250.869709 774.612733 
L 1262.462414 772.950562 
L 1274.055119 771.653249 
L 1285.647824 770.612772 
L 1314.629586 768.140485 
L 1326.22229 766.8556 
L 1343.611348 764.55299 
L 1349.4077 763.613269 
L 1355.204052 762.391134 
L 1361.000405 760.78675 
L 1366.796757 758.933874 
L 1372.593109 757.262841 
L 1378.389462 756.16273 
L 1384.185814 755.640022 
L 1389.982167 755.445072 
L 1407.371224 755.287783 
L 1482.723805 754.730102 
L 1511.705567 754.362272 
L 1517.501919 754.028915 
L 1523.298271 753.280335 
L 1534.890976 751.212556 
L 1540.687329 750.66867 
L 1546.483681 750.483736 
L 1552.280033 750.445278 
L 1552.280033 750.445278 
" style="fill:none;stroke:#4c72b0;stroke-linecap:round;stroke-width:4;"/>
   </g>
   <g id="patch_23">
    <path d="M 794.67 1331.12 
L 794.67 750.44 
" style="fill:none;stroke:#cccccc;stroke-linecap:square;stroke-linejoin:miter;"/>
   </g>
   <g id="patch_24">
    <path d="M 1405.7675 1331.12 
L 1405.7675 750.44 
" style="fill:none;stroke:#cccccc;stroke-linecap:square;stroke-linejoin:miter;"/>
   </g>
   <g id="patch_25">
    <path d="M 794.67 1331.12 
L 1405.7675 1331.12 
" style="fill:none;stroke:#cccccc;stroke-linecap:square;stroke-linejoin:miter;"/>
   </g>
   <g id="patch_26">
    <path d="M 794.67 750.44 
L 1405.7675 750.44 
" style="fill:none;stroke:#cccccc;stroke-linecap:square;stroke-linejoin:miter;"/>
   </g>
   <g id="text_75">
    <text style="font-family:Arial;font-size:24.984px;font-style:normal;font-weight:600;text-anchor:middle;" transform="rotate(-0, 841.11341, 866.576)" x="841.11341" y="866.576">3WEI</text>
   </g>
   <g id="text_76">
    <text style="fill:#262626;font-family:Arial;font-size:36px;font-style:normal;font-weight:400;text-anchor:middle;" transform="rotate(-0, 1100.21875, 745.44)" x="1100.21875" y="745.44">3VTT: DEN3 ED3 (ELE)</text>
   </g>
   <g id="line2d_135">
    <path clip-path="url(#p7b1f0c4379)" d="M 877.77926 1331.12 
L 877.77926 -1 
" style="fill:none;stroke:#000000;stroke-dasharray:5.6,2.4;stroke-dashoffset:0;stroke-width:2;"/>
   </g>
  </g>
  <g id="axes_6">
   <g id="patch_27">
    <path d="M 1501.71 1331.12 
L 2112.8075 1331.12 
L 2112.8075 750.44 
L 1501.71 750.44 
z
" style="fill:#ffffff;"/>
   </g>
   <g id="matplotlib.axis_11">
    <g id="xtick_31">
     <g id="line2d_136">
      <path clip-path="url(#pf7a31def1e)" d="M 1501.71 1331.12 
L 1501.71 750.44 
" style="fill:none;stroke:#cccccc;stroke-linecap:round;"/>
     </g>
     <g id="line2d_137"/>
     <g id="text_77">
      <text style="fill:#262626;font-family:Arial;font-size:30px;font-style:normal;font-weight:400;text-anchor:middle;" transform="rotate(-0, 1501.71, 1359.593438)" x="1501.71" y="1359.593438">0</text>
     </g>
    </g>
    <g id="xtick_32">
     <g id="line2d_138">
      <path clip-path="url(#pf7a31def1e)" d="M 1623.9295 1331.12 
L 1623.9295 750.44 
" style="fill:none;stroke:#cccccc;stroke-linecap:round;"/>
     </g>
     <g id="line2d_139"/>
     <g id="text_78">
      <text style="fill:#262626;font-family:Arial;font-size:30px;font-style:normal;font-weight:400;text-anchor:middle;" transform="rotate(-0, 1623.9295, 1359.593438)" x="1623.9295" y="1359.593438">1</text>
     </g>
    </g>
    <g id="xtick_33">
     <g id="line2d_140">
      <path clip-path="url(#pf7a31def1e)" d="M 1746.149 1331.12 
L 1746.149 750.44 
" style="fill:none;stroke:#cccccc;stroke-linecap:round;"/>
     </g>
     <g id="line2d_141"/>
     <g id="text_79">
      <text style="fill:#262626;font-family:Arial;font-size:30px;font-style:normal;font-weight:400;text-anchor:middle;" transform="rotate(-0, 1746.149, 1359.593438)" x="1746.149" y="1359.593438">2</text>
     </g>
    </g>
    <g id="xtick_34">
     <g id="line2d_142">
      <path clip-path="url(#pf7a31def1e)" d="M 1868.3685 1331.12 
L 1868.3685 750.44 
" style="fill:none;stroke:#cccccc;stroke-linecap:round;"/>
     </g>
     <g id="line2d_143"/>
     <g id="text_80">
      <text style="fill:#262626;font-family:Arial;font-size:30px;font-style:normal;font-weight:400;text-anchor:middle;" transform="rotate(-0, 1868.3685, 1359.593438)" x="1868.3685" y="1359.593438">3</text>
     </g>
    </g>
    <g id="xtick_35">
     <g id="line2d_144">
      <path clip-path="url(#pf7a31def1e)" d="M 1990.588 1331.12 
L 1990.588 750.44 
" style="fill:none;stroke:#cccccc;stroke-linecap:round;"/>
     </g>
     <g id="line2d_145"/>
     <g id="text_81">
      <text style="fill:#262626;font-family:Arial;font-size:30px;font-style:normal;font-weight:400;text-anchor:middle;" transform="rotate(-0, 1990.588, 1359.593438)" x="1990.588" y="1359.593438">4</text>
     </g>
    </g>
    <g id="xtick_36">
     <g id="line2d_146">
      <path clip-path="url(#pf7a31def1e)" d="M 2112.8075 1331.12 
L 2112.8075 750.44 
" style="fill:none;stroke:#cccccc;stroke-linecap:round;"/>
     </g>
     <g id="line2d_147"/>
     <g id="text_82">
      <text style="fill:#262626;font-family:Arial;font-size:30px;font-style:normal;font-weight:400;text-anchor:middle;" transform="rotate(-0, 2112.8075, 1359.593438)" x="2112.8075" y="1359.593438">5</text>
     </g>
    </g>
    <g id="text_83">
     <text style="fill:#262626;font-family:Arial;font-size:33px;font-style:normal;font-weight:400;text-anchor:middle;" transform="rotate(-0, 1807.25875, 1393.176719)" x="1807.25875" y="1393.176719">RMSD</text>
    </g>
   </g>
   <g id="matplotlib.axis_12">
    <g id="ytick_31">
     <g id="line2d_148">
      <path clip-path="url(#pf7a31def1e)" d="M 1501.71 1331.12 
L 2112.8075 1331.12 
" style="fill:none;stroke:#cccccc;stroke-linecap:round;"/>
     </g>
     <g id="line2d_149"/>
     <g id="text_84">
      <text style="fill:#262626;font-family:Arial;font-size:30px;font-style:normal;font-weight:400;text-anchor:end;" transform="rotate(-0, 1494.71, 1341.856719)" x="1494.71" y="1341.856719">0.0</text>
     </g>
    </g>
    <g id="ytick_32">
     <g id="line2d_150">
      <path clip-path="url(#pf7a31def1e)" d="M 1501.71 1214.984 
L 2112.8075 1214.984 
" style="fill:none;stroke:#cccccc;stroke-linecap:round;"/>
     </g>
     <g id="line2d_151"/>
     <g id="text_85">
      <text style="fill:#262626;font-family:Arial;font-size:30px;font-style:normal;font-weight:400;text-anchor:end;" transform="rotate(-0, 1494.71, 1225.720719)" x="1494.71" y="1225.720719">0.2</text>
     </g>
    </g>
    <g id="ytick_33">
     <g id="line2d_152">
      <path clip-path="url(#pf7a31def1e)" d="M 1501.71 1098.848 
L 2112.8075 1098.848 
" style="fill:none;stroke:#cccccc;stroke-linecap:round;"/>
     </g>
     <g id="line2d_153"/>
     <g id="text_86">
      <text style="fill:#262626;font-family:Arial;font-size:30px;font-style:normal;font-weight:400;text-anchor:end;" transform="rotate(-0, 1494.71, 1109.584719)" x="1494.71" y="1109.584719">0.4</text>
     </g>
    </g>
    <g id="ytick_34">
     <g id="line2d_154">
      <path clip-path="url(#pf7a31def1e)" d="M 1501.71 982.712 
L 2112.8075 982.712 
" style="fill:none;stroke:#cccccc;stroke-linecap:round;"/>
     </g>
     <g id="line2d_155"/>
     <g id="text_87">
      <text style="fill:#262626;font-family:Arial;font-size:30px;font-style:normal;font-weight:400;text-anchor:end;" transform="rotate(-0, 1494.71, 993.448719)" x="1494.71" y="993.448719">0.6</text>
     </g>
    </g>
    <g id="ytick_35">
     <g id="line2d_156">
      <path clip-path="url(#pf7a31def1e)" d="M 1501.71 866.576 
L 2112.8075 866.576 
" style="fill:none;stroke:#cccccc;stroke-linecap:round;"/>
     </g>
     <g id="line2d_157"/>
     <g id="text_88">
      <text style="fill:#262626;font-family:Arial;font-size:30px;font-style:normal;font-weight:400;text-anchor:end;" transform="rotate(-0, 1494.71, 877.312719)" x="1494.71" y="877.312719">0.8</text>
     </g>
    </g>
    <g id="ytick_36">
     <g id="line2d_158">
      <path clip-path="url(#pf7a31def1e)" d="M 1501.71 750.44 
L 2112.8075 750.44 
" style="fill:none;stroke:#cccccc;stroke-linecap:round;"/>
     </g>
     <g id="line2d_159"/>
     <g id="text_89">
      <text style="fill:#262626;font-family:Arial;font-size:30px;font-style:normal;font-weight:400;text-anchor:end;" transform="rotate(-0, 1494.71, 761.176719)" x="1494.71" y="761.176719">1.0</text>
     </g>
    </g>
   </g>
   <g id="line2d_160">
    <path clip-path="url(#pf7a31def1e)" d="M 1619.724789 1331.119955 
L 1706.988448 1331.031878 
L 1723.350384 1330.832825 
L 1734.258341 1330.510889 
L 1745.166299 1329.889889 
L 1750.620277 1329.407933 
L 1756.074256 1328.77083 
L 1761.528235 1327.941713 
L 1766.982213 1326.878448 
L 1772.436192 1325.533382 
L 1777.890171 1323.853048 
L 1783.344149 1321.777856 
L 1788.798128 1319.241859 
L 1794.252107 1316.172788 
L 1799.706085 1312.492672 
L 1805.160064 1308.119392 
L 1810.614043 1302.969586 
L 1816.068022 1296.963193 
L 1821.522 1290.029689 
L 1826.975979 1282.115765 
L 1832.429958 1273.193735 
L 1837.883936 1263.269627 
L 1843.337915 1252.389629 
L 1848.791894 1240.643601 
L 1854.245872 1228.164608 
L 1859.699851 1215.124013 
L 1881.515766 1161.523977 
L 1886.969744 1148.809725 
L 1892.423723 1136.716962 
L 1897.877702 1125.358753 
L 1903.33168 1114.807961 
L 1908.785659 1105.099196 
L 1914.239638 1096.233477 
L 1919.693617 1088.184577 
L 1925.147595 1080.906045 
L 1930.601574 1074.338032 
L 1936.055553 1068.41326 
L 1941.509531 1063.061806 
L 1946.96351 1058.214572 
L 1952.417489 1053.805572 
L 1957.871467 1049.773294 
L 1963.325446 1046.061419 
L 1968.779425 1042.619187 
L 1974.233403 1039.401569 
L 1979.687382 1036.369345 
L 1990.595339 1030.732813 
L 2001.503297 1025.505891 
L 2012.411254 1020.555369 
L 2028.77319 1013.457998 
L 2072.40502 994.870112 
L 2088.766956 987.865774 
L 2099.674913 983.515839 
L 2105.128892 981.530811 
L 2110.582871 979.713104 
L 2116.036849 978.086742 
L 2121.490828 976.667475 
L 2126.944807 975.461083 
L 2132.398785 974.462589 
L 2137.852764 973.656178 
L 2143.306743 973.015306 
L 2154.2147 972.065593 
L 2161 971.509882 
L 2161 971.509882 
" style="fill:none;stroke:#4c72b0;stroke-linecap:round;stroke-width:4;"/>
   </g>
   <g id="patch_28">
    <path d="M 1501.71 1331.12 
L 1501.71 750.44 
" style="fill:none;stroke:#cccccc;stroke-linecap:square;stroke-linejoin:miter;"/>
   </g>
   <g id="patch_29">
    <path d="M 2112.8075 1331.12 
L 2112.8075 750.44 
" style="fill:none;stroke:#cccccc;stroke-linecap:square;stroke-linejoin:miter;"/>
   </g>
   <g id="patch_30">
    <path d="M 1501.71 1331.12 
L 2112.8075 1331.12 
" style="fill:none;stroke:#cccccc;stroke-linecap:square;stroke-linejoin:miter;"/>
   </g>
   <g id="patch_31">
    <path d="M 1501.71 750.44 
L 2112.8075 750.44 
" style="fill:none;stroke:#cccccc;stroke-linecap:square;stroke-linejoin:miter;"/>
   </g>
   <g id="text_90">
    <text style="fill:#262626;font-family:Arial;font-size:36px;font-style:normal;font-weight:400;text-anchor:middle;" transform="rotate(-0, 1807.25875, 745.44)" x="1807.25875" y="745.44">4JHW: RSV D25 (HxL)</text>
   </g>
  </g>
 </g>
 <defs>
  <clipPath id="p2634e9155a">
   <rect height="580.68" width="611.0975" x="87.63" y="49.88"/>
  </clipPath>
  <clipPath id="pee560498d5">
   <rect height="580.68" width="611.0975" x="794.67" y="49.88"/>
  </clipPath>
  <clipPath id="pe59225aa96">
   <rect height="580.68" width="611.0975" x="1501.71" y="49.88"/>
  </clipPath>
  <clipPath id="p75723a1067">
   <rect height="580.68" width="611.0975" x="87.63" y="750.44"/>
  </clipPath>
  <clipPath id="p7b1f0c4379">
   <rect height="580.68" width="611.0975" x="794.67" y="750.44"/>
  </clipPath>
  <clipPath id="pf7a31def1e">
   <rect height="580.68" width="611.0975" x="1501.71" y="750.44"/>
  </clipPath>
 </defs>
</svg>
