<?xml version="1.0" encoding="utf-8" standalone="no"?>
<!DOCTYPE svg PUBLIC "-//W3C//DTD SVG 1.1//EN"
  "http://www.w3.org/Graphics/SVG/1.1/DTD/svg11.dtd">
<!-- Created with matplotlib (http://matplotlib.org/) -->
<svg height="1296pt" version="1.1" viewBox="0 0 7200 1296" width="7200pt" xmlns="http://www.w3.org/2000/svg" xmlns:xlink="http://www.w3.org/1999/xlink">
 <defs>
  <style type="text/css">
*{stroke-linecap:butt;stroke-linejoin:round;}
  </style>
 </defs>
 <g id="figure_1">
  <g id="patch_1">
   <path d="M 0 1296 
L 7200 1296 
L 7200 0 
L 0 0 
z
" style="fill:#ffffff;"/>
  </g>
  <g id="axes_1">
   <g id="patch_2">
    <path d="M 87.63 1187.12 
L 1185.2075 1187.12 
L 1185.2075 49.88 
L 87.63 49.88 
z
" style="fill:#ffffff;"/>
   </g>
   <g id="matplotlib.axis_1">
    <g id="xtick_1">
     <g id="line2d_1">
      <path clip-path="url(#p473d5b4ead)" d="M 87.63 1187.12 
L 87.63 49.88 
" style="fill:none;stroke:#cccccc;stroke-linecap:round;"/>
     </g>
     <g id="line2d_2"/>
     <g id="text_1">
      <text style="fill:#262626;font-family:Arial;font-size:30px;font-style:normal;font-weight:400;text-anchor:middle;" transform="rotate(-0, 87.63, 1215.593437)" x="87.63" y="1215.593437">0</text>
     </g>
    </g>
    <g id="xtick_2">
     <g id="line2d_3">
      <path clip-path="url(#p473d5b4ead)" d="M 307.1455 1187.12 
L 307.1455 49.88 
" style="fill:none;stroke:#cccccc;stroke-linecap:round;"/>
     </g>
     <g id="line2d_4"/>
     <g id="text_2">
      <text style="fill:#262626;font-family:Arial;font-size:30px;font-style:normal;font-weight:400;text-anchor:middle;" transform="rotate(-0, 307.1455, 1215.593437)" x="307.1455" y="1215.593437">1</text>
     </g>
    </g>
    <g id="xtick_3">
     <g id="line2d_5">
      <path clip-path="url(#p473d5b4ead)" d="M 526.661 1187.12 
L 526.661 49.88 
" style="fill:none;stroke:#cccccc;stroke-linecap:round;"/>
     </g>
     <g id="line2d_6"/>
     <g id="text_3">
      <text style="fill:#262626;font-family:Arial;font-size:30px;font-style:normal;font-weight:400;text-anchor:middle;" transform="rotate(-0, 526.661, 1215.593437)" x="526.661" y="1215.593437">2</text>
     </g>
    </g>
    <g id="xtick_4">
     <g id="line2d_7">
      <path clip-path="url(#p473d5b4ead)" d="M 746.1765 1187.12 
L 746.1765 49.88 
" style="fill:none;stroke:#cccccc;stroke-linecap:round;"/>
     </g>
     <g id="line2d_8"/>
     <g id="text_4">
      <text style="fill:#262626;font-family:Arial;font-size:30px;font-style:normal;font-weight:400;text-anchor:middle;" transform="rotate(-0, 746.1765, 1215.593437)" x="746.1765" y="1215.593437">3</text>
     </g>
    </g>
    <g id="xtick_5">
     <g id="line2d_9">
      <path clip-path="url(#p473d5b4ead)" d="M 965.692 1187.12 
L 965.692 49.88 
" style="fill:none;stroke:#cccccc;stroke-linecap:round;"/>
     </g>
     <g id="line2d_10"/>
     <g id="text_5">
      <text style="fill:#262626;font-family:Arial;font-size:30px;font-style:normal;font-weight:400;text-anchor:middle;" transform="rotate(-0, 965.692, 1215.593437)" x="965.692" y="1215.593437">4</text>
     </g>
    </g>
    <g id="xtick_6">
     <g id="line2d_11">
      <path clip-path="url(#p473d5b4ead)" d="M 1185.2075 1187.12 
L 1185.2075 49.88 
" style="fill:none;stroke:#cccccc;stroke-linecap:round;"/>
     </g>
     <g id="line2d_12"/>
     <g id="text_6">
      <text style="fill:#262626;font-family:Arial;font-size:30px;font-style:normal;font-weight:400;text-anchor:middle;" transform="rotate(-0, 1185.2075, 1215.593437)" x="1185.2075" y="1215.593437">5</text>
     </g>
    </g>
    <g id="text_7">
     <text style="fill:#262626;font-family:Arial;font-size:33px;font-style:normal;font-weight:400;text-anchor:middle;" transform="rotate(-0, 636.41875, 1249.176719)" x="636.41875" y="1249.176719">RMSD</text>
    </g>
   </g>
   <g id="matplotlib.axis_2">
    <g id="ytick_1">
     <g id="line2d_13">
      <path clip-path="url(#p473d5b4ead)" d="M 87.63 1187.12 
L 1185.2075 1187.12 
" style="fill:none;stroke:#cccccc;stroke-linecap:round;"/>
     </g>
     <g id="line2d_14"/>
     <g id="text_8">
      <text style="fill:#262626;font-family:Arial;font-size:30px;font-style:normal;font-weight:400;text-anchor:end;" transform="rotate(-0, 80.63, 1197.856719)" x="80.63" y="1197.856719">0.0</text>
     </g>
    </g>
    <g id="ytick_2">
     <g id="line2d_15">
      <path clip-path="url(#p473d5b4ead)" d="M 87.63 959.672 
L 1185.2075 959.672 
" style="fill:none;stroke:#cccccc;stroke-linecap:round;"/>
     </g>
     <g id="line2d_16"/>
     <g id="text_9">
      <text style="fill:#262626;font-family:Arial;font-size:30px;font-style:normal;font-weight:400;text-anchor:end;" transform="rotate(-0, 80.63, 970.408719)" x="80.63" y="970.408719">0.2</text>
     </g>
    </g>
    <g id="ytick_3">
     <g id="line2d_17">
      <path clip-path="url(#p473d5b4ead)" d="M 87.63 732.224 
L 1185.2075 732.224 
" style="fill:none;stroke:#cccccc;stroke-linecap:round;"/>
     </g>
     <g id="line2d_18"/>
     <g id="text_10">
      <text style="fill:#262626;font-family:Arial;font-size:30px;font-style:normal;font-weight:400;text-anchor:end;" transform="rotate(-0, 80.63, 742.960719)" x="80.63" y="742.960719">0.4</text>
     </g>
    </g>
    <g id="ytick_4">
     <g id="line2d_19">
      <path clip-path="url(#p473d5b4ead)" d="M 87.63 504.776 
L 1185.2075 504.776 
" style="fill:none;stroke:#cccccc;stroke-linecap:round;"/>
     </g>
     <g id="line2d_20"/>
     <g id="text_11">
      <text style="fill:#262626;font-family:Arial;font-size:30px;font-style:normal;font-weight:400;text-anchor:end;" transform="rotate(-0, 80.63, 515.512719)" x="80.63" y="515.512719">0.6</text>
     </g>
    </g>
    <g id="ytick_5">
     <g id="line2d_21">
      <path clip-path="url(#p473d5b4ead)" d="M 87.63 277.328 
L 1185.2075 277.328 
" style="fill:none;stroke:#cccccc;stroke-linecap:round;"/>
     </g>
     <g id="line2d_22"/>
     <g id="text_12">
      <text style="fill:#262626;font-family:Arial;font-size:30px;font-style:normal;font-weight:400;text-anchor:end;" transform="rotate(-0, 80.63, 288.064719)" x="80.63" y="288.064719">0.8</text>
     </g>
    </g>
    <g id="ytick_6">
     <g id="line2d_23">
      <path clip-path="url(#p473d5b4ead)" d="M 87.63 49.88 
L 1185.2075 49.88 
" style="fill:none;stroke:#cccccc;stroke-linecap:round;"/>
     </g>
     <g id="line2d_24"/>
     <g id="text_13">
      <text style="fill:#262626;font-family:Arial;font-size:30px;font-style:normal;font-weight:400;text-anchor:end;" transform="rotate(-0, 80.63, 60.616719)" x="80.63" y="60.616719">1.0</text>
     </g>
    </g>
   </g>
   <g id="PolyCollection_1">
    <path clip-path="url(#p473d5b4ead)" d="M -72.686486 1187.117173 
L -72.686486 1187.12 
L -59.569538 1187.12 
L -46.452589 1187.12 
L -33.33564 1187.12 
L -20.218691 1187.12 
L -7.101743 1187.12 
L 6.015206 1187.12 
L 19.132155 1187.12 
L 32.249104 1187.12 
L 45.366053 1187.12 
L 58.483001 1187.12 
L 71.59995 1187.12 
L 84.716899 1187.12 
L 97.833848 1187.12 
L 110.950796 1187.12 
L 124.067745 1187.12 
L 137.184694 1187.12 
L 150.301643 1187.12 
L 163.418591 1187.12 
L 176.53554 1187.12 
L 189.652489 1187.12 
L 202.769438 1187.12 
L 215.886387 1187.12 
L 229.003335 1187.12 
L 242.120284 1187.12 
L 255.237233 1187.12 
L 268.354182 1187.12 
L 281.47113 1187.12 
L 294.588079 1187.12 
L 307.705028 1187.12 
L 320.821977 1187.12 
L 333.938925 1187.12 
L 347.055874 1187.12 
L 360.172823 1187.12 
L 373.289772 1187.12 
L 386.406721 1187.12 
L 399.523669 1187.12 
L 412.640618 1187.12 
L 425.757567 1187.12 
L 438.874516 1187.12 
L 451.991464 1187.12 
L 465.108413 1187.12 
L 478.225362 1187.12 
L 491.342311 1187.12 
L 504.459259 1187.12 
L 517.576208 1187.12 
L 530.693157 1187.12 
L 543.810106 1187.12 
L 556.927055 1187.12 
L 570.044003 1187.12 
L 583.160952 1187.12 
L 596.277901 1187.12 
L 609.39485 1187.12 
L 622.511798 1187.12 
L 635.628747 1187.12 
L 648.745696 1187.12 
L 661.862645 1187.12 
L 674.979594 1187.12 
L 688.096542 1187.12 
L 701.213491 1187.12 
L 714.33044 1187.12 
L 727.447389 1187.12 
L 740.564337 1187.12 
L 753.681286 1187.12 
L 766.798235 1187.12 
L 779.915184 1187.12 
L 793.032132 1187.12 
L 806.149081 1187.12 
L 819.26603 1187.12 
L 832.382979 1187.12 
L 845.499928 1187.12 
L 858.616876 1187.12 
L 871.733825 1187.12 
L 884.850774 1187.12 
L 897.967723 1187.12 
L 911.084671 1187.12 
L 924.20162 1187.12 
L 937.318569 1187.12 
L 950.435518 1187.12 
L 963.552466 1187.12 
L 976.669415 1187.12 
L 989.786364 1187.12 
L 1002.903313 1187.12 
L 1016.020262 1187.12 
L 1029.13721 1187.12 
L 1042.254159 1187.12 
L 1055.371108 1187.12 
L 1068.488057 1187.12 
L 1081.605005 1187.12 
L 1094.721954 1187.12 
L 1107.838903 1187.12 
L 1120.955852 1187.12 
L 1134.0728 1187.12 
L 1147.189749 1187.12 
L 1160.306698 1187.12 
L 1173.423647 1187.12 
L 1186.540596 1187.12 
L 1199.657544 1187.12 
L 1212.774493 1187.12 
L 1225.891442 1187.12 
L 1239.008391 1187.12 
L 1252.125339 1187.12 
L 1265.242288 1187.12 
L 1278.359237 1187.12 
L 1291.476186 1187.12 
L 1304.593134 1187.12 
L 1317.710083 1187.12 
L 1330.827032 1187.12 
L 1343.943981 1187.12 
L 1357.06093 1187.12 
L 1370.177878 1187.12 
L 1383.294827 1187.12 
L 1396.411776 1187.12 
L 1409.528725 1187.12 
L 1422.645673 1187.12 
L 1435.762622 1187.12 
L 1448.879571 1187.12 
L 1461.99652 1187.12 
L 1475.113468 1187.12 
L 1488.230417 1187.12 
L 1501.347366 1187.12 
L 1514.464315 1187.12 
L 1527.581264 1187.12 
L 1540.698212 1187.12 
L 1553.815161 1187.12 
L 1566.93211 1187.12 
L 1580.049059 1187.12 
L 1593.166007 1187.12 
L 1593.166007 50.219632 
L 1593.166007 50.219632 
L 1580.049059 50.540655 
L 1566.93211 51.114452 
L 1553.815161 52.096449 
L 1540.698212 53.705582 
L 1527.581264 56.230254 
L 1514.464315 60.022956 
L 1501.347366 65.478322 
L 1488.230417 72.991622 
L 1475.113468 82.899252 
L 1461.99652 95.408805 
L 1448.879571 110.532148 
L 1435.762622 128.038241 
L 1422.645673 147.44123 
L 1409.528725 168.032818 
L 1396.411776 188.957535 
L 1383.294827 209.318087 
L 1370.177878 228.289545 
L 1357.06093 245.218565 
L 1343.943981 259.688162 
L 1330.827032 271.538124 
L 1317.710083 280.842683 
L 1304.593134 287.856638 
L 1291.476186 292.946261 
L 1278.359237 296.521191 
L 1265.242288 298.979288 
L 1252.125339 300.670374 
L 1239.008391 301.878981 
L 1225.891442 302.822375 
L 1212.774493 303.658392 
L 1199.657544 304.497906 
L 1186.540596 305.418015 
L 1173.423647 306.473664 
L 1160.306698 307.706792 
L 1147.189749 309.15299 
L 1134.0728 310.846088 
L 1120.955852 312.821212 
L 1107.838903 315.116722 
L 1094.721954 317.775312 
L 1081.605005 320.844358 
L 1068.488057 324.37553 
L 1055.371108 328.42358 
L 1042.254159 333.044279 
L 1029.13721 338.291549 
L 1016.020262 344.21397 
L 1002.903313 350.851012 
L 989.786364 358.229477 
L 976.669415 366.360709 
L 963.552466 375.239087 
L 950.435518 384.842121 
L 937.318569 395.1322 
L 924.20162 406.059685 
L 911.084671 417.566801 
L 897.967723 429.591599 
L 884.850774 442.071354 
L 871.733825 454.944949 
L 858.616876 468.154137 
L 845.499928 481.643894 
L 832.382979 495.362259 
L 819.26603 509.260137 
L 806.149081 523.291419 
L 793.032132 537.413556 
L 779.915184 551.588459 
L 766.798235 565.783424 
L 753.681286 579.971621 
L 740.564337 594.131716 
L 727.447389 608.246301 
L 714.33044 622.299017 
L 701.213491 636.270546 
L 688.096542 650.133955 
L 674.979594 663.850166 
L 661.862645 677.36451 
L 648.745696 690.605311 
L 635.628747 703.485235 
L 622.511798 715.905686 
L 609.39485 727.763976 
L 596.277901 738.962415 
L 583.160952 749.418058 
L 570.044003 759.07171 
L 556.927055 767.894979 
L 543.810106 775.894641 
L 530.693157 783.114258 
L 517.576208 789.633653 
L 504.459259 795.567369 
L 491.342311 801.063444 
L 478.225362 806.303627 
L 465.108413 811.505489 
L 451.991464 816.925804 
L 438.874516 822.863253 
L 425.757567 829.657281 
L 412.640618 837.679232 
L 399.523669 847.312249 
L 386.406721 858.918153 
L 373.289772 872.792694 
L 360.172823 889.114547 
L 347.055874 907.897205 
L 333.938925 928.955008 
L 320.821977 951.893821 
L 307.705028 976.132807 
L 294.588079 1000.957096 
L 281.47113 1025.593672 
L 268.354182 1049.296764 
L 255.237233 1071.426509 
L 242.120284 1091.506494 
L 229.003335 1109.251374 
L 215.886387 1124.56327 
L 202.769438 1137.502735 
L 189.652489 1148.244596 
L 176.53554 1157.030186 
L 163.418591 1164.125446 
L 150.301643 1169.790512 
L 137.184694 1174.262143 
L 124.067745 1177.747008 
L 110.950796 1180.422185 
L 97.833848 1182.439015 
L 84.716899 1183.92747 
L 71.59995 1184.999452 
L 58.483001 1185.750714 
L 45.366053 1186.261796 
L 32.249104 1186.598625 
L 19.132155 1186.813329 
L 6.015206 1186.945525 
L -7.101743 1187.024067 
L -20.218691 1187.069059 
L -33.33564 1187.093893 
L -46.452589 1187.107093 
L -59.569538 1187.113847 
L -72.686486 1187.117173 
z
" style="fill:#55a868;fill-opacity:0.25;"/>
   </g>
   <g id="line2d_25">
    <path clip-path="url(#p473d5b4ead)" d="M 80.173647 1187.119687 
L 90.839187 1187.109906 
L 101.504727 1186.965534 
L 112.170267 1185.847551 
L 122.835808 1180.788442 
L 133.501348 1165.944366 
L 144.166888 1134.86151 
L 154.832428 1085.248821 
L 165.497968 1020.848428 
L 186.829049 875.903976 
L 197.494589 807.923261 
L 208.160129 747.849743 
L 218.82567 694.534324 
L 229.49121 642.807547 
L 240.15675 586.162219 
L 250.82229 517.582272 
L 261.48783 433.675834 
L 272.153371 345.449992 
L 282.818911 273.558167 
L 293.484451 228.552109 
L 304.149991 205.214933 
L 314.815531 193.498702 
L 325.481072 186.772591 
L 336.146612 182.346673 
L 346.812152 179.24622 
L 357.477692 176.795208 
L 368.143232 174.634151 
L 378.808773 172.70626 
L 432.136474 163.760105 
L 453.467554 160.477517 
L 485.464175 155.85089 
L 496.129715 153.89674 
L 506.795255 151.801886 
L 528.126336 147.891318 
L 538.791876 145.699721 
L 560.122956 140.680209 
L 581.454037 136.1211 
L 592.119577 133.570274 
L 613.450657 127.718019 
L 624.116197 124.775945 
L 634.781738 122.090506 
L 656.112818 117.34074 
L 666.778358 114.570794 
L 677.443898 111.169797 
L 688.109439 107.418679 
L 698.774979 103.513474 
L 709.440519 99.375348 
L 730.771599 90.59052 
L 741.43714 86.572134 
L 762.76822 79.096061 
L 773.43376 75.509881 
L 784.099301 72.584368 
L 794.764841 70.09528 
L 805.430381 67.752419 
L 816.095921 65.700648 
L 826.761461 64.045622 
L 837.427002 62.735756 
L 848.092542 61.752245 
L 880.089162 59.266331 
L 912.085783 57.250003 
L 922.751323 56.740574 
L 944.082404 56.057389 
L 976.079024 55.322799 
L 1029.406725 54.330663 
L 1050.737806 54.024457 
L 1093.399967 53.708384 
L 1178.724288 53.316477 
L 1221.386449 53.220238 
L 1274.71415 53.186873 
L 1381.369552 53.154761 
L 1392.035092 52.849361 
L 1402.700633 51.798654 
L 1413.366173 50.51989 
L 1424.031713 49.968118 
L 1434.697253 49.884464 
L 1434.697253 49.884464 
" style="fill:none;stroke:#4c72b0;stroke-linecap:round;stroke-width:4;"/>
   </g>
   <g id="line2d_26">
    <path clip-path="url(#p473d5b4ead)" d="M -1 1186.987531 
L 19.132155 1186.813329 
L 32.249104 1186.598625 
L 45.366053 1186.261796 
L 58.483001 1185.750714 
L 71.59995 1184.999452 
L 84.716899 1183.92747 
L 97.833848 1182.439015 
L 110.950796 1180.422185 
L 124.067745 1177.747008 
L 137.184694 1174.262143 
L 150.301643 1169.790512 
L 163.418591 1164.125446 
L 176.53554 1157.030186 
L 189.652489 1148.244596 
L 202.769438 1137.502735 
L 215.886387 1124.56327 
L 229.003335 1109.251374 
L 242.120284 1091.506494 
L 255.237233 1071.426509 
L 268.354182 1049.296764 
L 281.47113 1025.593672 
L 320.821977 951.893821 
L 333.938925 928.955008 
L 347.055874 907.897205 
L 360.172823 889.114547 
L 373.289772 872.792694 
L 386.406721 858.918153 
L 399.523669 847.312249 
L 412.640618 837.679232 
L 425.757567 829.657281 
L 438.874516 822.863253 
L 451.991464 816.925804 
L 465.108413 811.505489 
L 491.342311 801.063444 
L 504.459259 795.567369 
L 517.576208 789.633653 
L 530.693157 783.114258 
L 543.810106 775.894641 
L 556.927055 767.894979 
L 570.044003 759.07171 
L 583.160952 749.418058 
L 596.277901 738.962415 
L 609.39485 727.763976 
L 622.511798 715.905686 
L 635.628747 703.485235 
L 648.745696 690.605311 
L 661.862645 677.36451 
L 674.979594 663.850166 
L 701.213491 636.270546 
L 727.447389 608.246301 
L 766.798235 565.783424 
L 806.149081 523.291419 
L 832.382979 495.362259 
L 845.499928 481.643894 
L 858.616876 468.154137 
L 871.733825 454.944949 
L 884.850774 442.071354 
L 897.967723 429.591599 
L 911.084671 417.566801 
L 924.20162 406.059685 
L 937.318569 395.1322 
L 950.435518 384.842121 
L 963.552466 375.239087 
L 976.669415 366.360709 
L 989.786364 358.229477 
L 1002.903313 350.851012 
L 1016.020262 344.21397 
L 1029.13721 338.291549 
L 1042.254159 333.044279 
L 1055.371108 328.42358 
L 1068.488057 324.37553 
L 1081.605005 320.844358 
L 1094.721954 317.775312 
L 1107.838903 315.116722 
L 1120.955852 312.821212 
L 1134.0728 310.846088 
L 1147.189749 309.15299 
L 1160.306698 307.706792 
L 1173.423647 306.473664 
L 1186.540596 305.418015 
L 1212.774493 303.658392 
L 1239.008391 301.878981 
L 1252.125339 300.670374 
L 1265.242288 298.979288 
L 1278.359237 296.521191 
L 1291.476186 292.946261 
L 1304.593134 287.856638 
L 1317.710083 280.842683 
L 1330.827032 271.538124 
L 1343.943981 259.688162 
L 1357.06093 245.218565 
L 1370.177878 228.289545 
L 1383.294827 209.318087 
L 1396.411776 188.957535 
L 1409.528725 168.032818 
L 1422.645673 147.44123 
L 1435.762622 128.038241 
L 1448.879571 110.532148 
L 1461.99652 95.408805 
L 1475.113468 82.899252 
L 1488.230417 72.991622 
L 1501.347366 65.478322 
L 1514.464315 60.022956 
L 1527.581264 56.230254 
L 1540.698212 53.705582 
L 1553.815161 52.096449 
L 1566.93211 51.114452 
L 1580.049059 50.540655 
L 1593.166007 50.219632 
L 1593.166007 50.219632 
" style="fill:none;stroke:#55a868;stroke-linecap:round;stroke-width:4;"/>
   </g>
   <g id="patch_3">
    <path d="M 87.63 1187.12 
L 87.63 49.88 
" style="fill:none;stroke:#cccccc;stroke-linecap:square;stroke-linejoin:miter;"/>
   </g>
   <g id="patch_4">
    <path d="M 1185.2075 1187.12 
L 1185.2075 49.88 
" style="fill:none;stroke:#cccccc;stroke-linecap:square;stroke-linejoin:miter;"/>
   </g>
   <g id="patch_5">
    <path d="M 87.63 1187.12 
L 1185.2075 1187.12 
" style="fill:none;stroke:#cccccc;stroke-linecap:square;stroke-linejoin:miter;"/>
   </g>
   <g id="patch_6">
    <path d="M 87.63 49.88 
L 1185.2075 49.88 
" style="fill:none;stroke:#cccccc;stroke-linecap:square;stroke-linejoin:miter;"/>
   </g>
   <g id="text_14">
    <text style="font-family:Arial;font-size:24.984px;font-style:normal;font-weight:600;text-anchor:middle;" transform="rotate(-0, 217.144145, 277.328)" x="217.144145" y="277.328">1Z6N</text>
   </g>
   <g id="text_15">
    <text style="fill:#262626;font-family:Arial;font-size:36px;font-style:normal;font-weight:400;text-anchor:middle;" transform="rotate(-0, 636.41875, 44.88)" x="636.41875" y="44.88">2FX7: HIV 4e10 (H)</text>
   </g>
   <g id="line2d_27">
    <path clip-path="url(#p473d5b4ead)" d="M 282.998795 1187.12 
L 282.998795 -1 
" style="fill:none;stroke:#000000;stroke-dasharray:5.6,2.4;stroke-dashoffset:0;stroke-width:2;"/>
   </g>
  </g>
  <g id="axes_2">
   <g id="patch_7">
    <path d="M 2474.67 1187.12 
L 3572.2475 1187.12 
L 3572.2475 49.88 
L 2474.67 49.88 
z
" style="fill:#ffffff;"/>
   </g>
   <g id="matplotlib.axis_3">
    <g id="xtick_7">
     <g id="line2d_28">
      <path clip-path="url(#p90f55ef2a0)" d="M 2474.67 1187.12 
L 2474.67 49.88 
" style="fill:none;stroke:#cccccc;stroke-linecap:round;"/>
     </g>
     <g id="line2d_29"/>
     <g id="text_16">
      <text style="fill:#262626;font-family:Arial;font-size:30px;font-style:normal;font-weight:400;text-anchor:middle;" transform="rotate(-0, 2474.67, 1215.593437)" x="2474.67" y="1215.593437">0</text>
     </g>
    </g>
    <g id="xtick_8">
     <g id="line2d_30">
      <path clip-path="url(#p90f55ef2a0)" d="M 2694.1855 1187.12 
L 2694.1855 49.88 
" style="fill:none;stroke:#cccccc;stroke-linecap:round;"/>
     </g>
     <g id="line2d_31"/>
     <g id="text_17">
      <text style="fill:#262626;font-family:Arial;font-size:30px;font-style:normal;font-weight:400;text-anchor:middle;" transform="rotate(-0, 2694.1855, 1215.593437)" x="2694.1855" y="1215.593437">1</text>
     </g>
    </g>
    <g id="xtick_9">
     <g id="line2d_32">
      <path clip-path="url(#p90f55ef2a0)" d="M 2913.701 1187.12 
L 2913.701 49.88 
" style="fill:none;stroke:#cccccc;stroke-linecap:round;"/>
     </g>
     <g id="line2d_33"/>
     <g id="text_18">
      <text style="fill:#262626;font-family:Arial;font-size:30px;font-style:normal;font-weight:400;text-anchor:middle;" transform="rotate(-0, 2913.701, 1215.593437)" x="2913.701" y="1215.593437">2</text>
     </g>
    </g>
    <g id="xtick_10">
     <g id="line2d_34">
      <path clip-path="url(#p90f55ef2a0)" d="M 3133.2165 1187.12 
L 3133.2165 49.88 
" style="fill:none;stroke:#cccccc;stroke-linecap:round;"/>
     </g>
     <g id="line2d_35"/>
     <g id="text_19">
      <text style="fill:#262626;font-family:Arial;font-size:30px;font-style:normal;font-weight:400;text-anchor:middle;" transform="rotate(-0, 3133.2165, 1215.593437)" x="3133.2165" y="1215.593437">3</text>
     </g>
    </g>
    <g id="xtick_11">
     <g id="line2d_36">
      <path clip-path="url(#p90f55ef2a0)" d="M 3352.732 1187.12 
L 3352.732 49.88 
" style="fill:none;stroke:#cccccc;stroke-linecap:round;"/>
     </g>
     <g id="line2d_37"/>
     <g id="text_20">
      <text style="fill:#262626;font-family:Arial;font-size:30px;font-style:normal;font-weight:400;text-anchor:middle;" transform="rotate(-0, 3352.732, 1215.593437)" x="3352.732" y="1215.593437">4</text>
     </g>
    </g>
    <g id="xtick_12">
     <g id="line2d_38">
      <path clip-path="url(#p90f55ef2a0)" d="M 3572.2475 1187.12 
L 3572.2475 49.88 
" style="fill:none;stroke:#cccccc;stroke-linecap:round;"/>
     </g>
     <g id="line2d_39"/>
     <g id="text_21">
      <text style="fill:#262626;font-family:Arial;font-size:30px;font-style:normal;font-weight:400;text-anchor:middle;" transform="rotate(-0, 3572.2475, 1215.593437)" x="3572.2475" y="1215.593437">5</text>
     </g>
    </g>
    <g id="text_22">
     <text style="fill:#262626;font-family:Arial;font-size:33px;font-style:normal;font-weight:400;text-anchor:middle;" transform="rotate(-0, 3023.45875, 1249.176719)" x="3023.45875" y="1249.176719">RMSD</text>
    </g>
   </g>
   <g id="matplotlib.axis_4">
    <g id="ytick_7">
     <g id="line2d_40">
      <path clip-path="url(#p90f55ef2a0)" d="M 2474.67 1187.12 
L 3572.2475 1187.12 
" style="fill:none;stroke:#cccccc;stroke-linecap:round;"/>
     </g>
     <g id="line2d_41"/>
     <g id="text_23">
      <text style="fill:#262626;font-family:Arial;font-size:30px;font-style:normal;font-weight:400;text-anchor:end;" transform="rotate(-0, 2467.67, 1197.856719)" x="2467.67" y="1197.856719">0.0</text>
     </g>
    </g>
    <g id="ytick_8">
     <g id="line2d_42">
      <path clip-path="url(#p90f55ef2a0)" d="M 2474.67 959.672 
L 3572.2475 959.672 
" style="fill:none;stroke:#cccccc;stroke-linecap:round;"/>
     </g>
     <g id="line2d_43"/>
     <g id="text_24">
      <text style="fill:#262626;font-family:Arial;font-size:30px;font-style:normal;font-weight:400;text-anchor:end;" transform="rotate(-0, 2467.67, 970.408719)" x="2467.67" y="970.408719">0.2</text>
     </g>
    </g>
    <g id="ytick_9">
     <g id="line2d_44">
      <path clip-path="url(#p90f55ef2a0)" d="M 2474.67 732.224 
L 3572.2475 732.224 
" style="fill:none;stroke:#cccccc;stroke-linecap:round;"/>
     </g>
     <g id="line2d_45"/>
     <g id="text_25">
      <text style="fill:#262626;font-family:Arial;font-size:30px;font-style:normal;font-weight:400;text-anchor:end;" transform="rotate(-0, 2467.67, 742.960719)" x="2467.67" y="742.960719">0.4</text>
     </g>
    </g>
    <g id="ytick_10">
     <g id="line2d_46">
      <path clip-path="url(#p90f55ef2a0)" d="M 2474.67 504.776 
L 3572.2475 504.776 
" style="fill:none;stroke:#cccccc;stroke-linecap:round;"/>
     </g>
     <g id="line2d_47"/>
     <g id="text_26">
      <text style="fill:#262626;font-family:Arial;font-size:30px;font-style:normal;font-weight:400;text-anchor:end;" transform="rotate(-0, 2467.67, 515.512719)" x="2467.67" y="515.512719">0.6</text>
     </g>
    </g>
    <g id="ytick_11">
     <g id="line2d_48">
      <path clip-path="url(#p90f55ef2a0)" d="M 2474.67 277.328 
L 3572.2475 277.328 
" style="fill:none;stroke:#cccccc;stroke-linecap:round;"/>
     </g>
     <g id="line2d_49"/>
     <g id="text_27">
      <text style="fill:#262626;font-family:Arial;font-size:30px;font-style:normal;font-weight:400;text-anchor:end;" transform="rotate(-0, 2467.67, 288.064719)" x="2467.67" y="288.064719">0.8</text>
     </g>
    </g>
    <g id="ytick_12">
     <g id="line2d_50">
      <path clip-path="url(#p90f55ef2a0)" d="M 2474.67 49.88 
L 3572.2475 49.88 
" style="fill:none;stroke:#cccccc;stroke-linecap:round;"/>
     </g>
     <g id="line2d_51"/>
     <g id="text_28">
      <text style="fill:#262626;font-family:Arial;font-size:30px;font-style:normal;font-weight:400;text-anchor:end;" transform="rotate(-0, 2467.67, 60.616719)" x="2467.67" y="60.616719">1.0</text>
     </g>
    </g>
   </g>
   <g id="PolyCollection_2">
    <path clip-path="url(#p90f55ef2a0)" d="M 2374.432073 1187.119912 
L 2374.432073 1187.12 
L 2386.410386 1187.12 
L 2398.388698 1187.12 
L 2410.367011 1187.12 
L 2422.345324 1187.12 
L 2434.323637 1187.12 
L 2446.30195 1187.12 
L 2458.280263 1187.12 
L 2470.258576 1187.12 
L 2482.236889 1187.12 
L 2494.215202 1187.12 
L 2506.193515 1187.12 
L 2518.171828 1187.12 
L 2530.15014 1187.12 
L 2542.128453 1187.12 
L 2554.106766 1187.12 
L 2566.085079 1187.12 
L 2578.063392 1187.12 
L 2590.041705 1187.12 
L 2602.020018 1187.12 
L 2613.998331 1187.12 
L 2625.976644 1187.12 
L 2637.954957 1187.12 
L 2649.93327 1187.12 
L 2661.911582 1187.12 
L 2673.889895 1187.12 
L 2685.868208 1187.12 
L 2697.846521 1187.12 
L 2709.824834 1187.12 
L 2721.803147 1187.12 
L 2733.78146 1187.12 
L 2745.759773 1187.12 
L 2757.738086 1187.12 
L 2769.716399 1187.12 
L 2781.694711 1187.12 
L 2793.673024 1187.12 
L 2805.651337 1187.12 
L 2817.62965 1187.12 
L 2829.607963 1187.12 
L 2841.586276 1187.12 
L 2853.564589 1187.12 
L 2865.542902 1187.12 
L 2877.521215 1187.12 
L 2889.499528 1187.12 
L 2901.477841 1187.12 
L 2913.456153 1187.12 
L 2925.434466 1187.12 
L 2937.412779 1187.12 
L 2949.391092 1187.12 
L 2961.369405 1187.12 
L 2973.347718 1187.12 
L 2985.326031 1187.12 
L 2997.304344 1187.12 
L 3009.282657 1187.12 
L 3021.26097 1187.12 
L 3033.239283 1187.12 
L 3045.217595 1187.12 
L 3057.195908 1187.12 
L 3069.174221 1187.12 
L 3081.152534 1187.12 
L 3093.130847 1187.12 
L 3105.10916 1187.12 
L 3117.087473 1187.12 
L 3129.065786 1187.12 
L 3141.044099 1187.12 
L 3153.022412 1187.12 
L 3165.000725 1187.12 
L 3176.979037 1187.12 
L 3188.95735 1187.12 
L 3200.935663 1187.12 
L 3212.913976 1187.12 
L 3224.892289 1187.12 
L 3236.870602 1187.12 
L 3248.848915 1187.12 
L 3260.827228 1187.12 
L 3272.805541 1187.12 
L 3284.783854 1187.12 
L 3296.762167 1187.12 
L 3308.740479 1187.12 
L 3320.718792 1187.12 
L 3332.697105 1187.12 
L 3344.675418 1187.12 
L 3356.653731 1187.12 
L 3368.632044 1187.12 
L 3380.610357 1187.12 
L 3392.58867 1187.12 
L 3404.566983 1187.12 
L 3416.545296 1187.12 
L 3428.523609 1187.12 
L 3440.501921 1187.12 
L 3452.480234 1187.12 
L 3464.458547 1187.12 
L 3476.43686 1187.12 
L 3488.415173 1187.12 
L 3500.393486 1187.12 
L 3512.371799 1187.12 
L 3524.350112 1187.12 
L 3536.328425 1187.12 
L 3548.306738 1187.12 
L 3560.285051 1187.12 
L 3572.263363 1187.12 
L 3584.241676 1187.12 
L 3596.219989 1187.12 
L 3608.198302 1187.12 
L 3620.176615 1187.12 
L 3632.154928 1187.12 
L 3644.133241 1187.12 
L 3656.111554 1187.12 
L 3668.089867 1187.12 
L 3680.06818 1187.12 
L 3692.046493 1187.12 
L 3704.024805 1187.12 
L 3716.003118 1187.12 
L 3727.981431 1187.12 
L 3739.959744 1187.12 
L 3751.938057 1187.12 
L 3763.91637 1187.12 
L 3775.894683 1187.12 
L 3787.872996 1187.12 
L 3799.851309 1187.12 
L 3811.829622 1187.12 
L 3823.807935 1187.12 
L 3835.786247 1187.12 
L 3847.76456 1187.12 
L 3859.742873 1187.12 
L 3871.721186 1187.12 
L 3883.699499 1187.12 
L 3895.677812 1187.12 
L 3895.677812 50.423371 
L 3895.677812 50.423371 
L 3883.699499 51.482151 
L 3871.721186 54.114337 
L 3859.742873 59.929722 
L 3847.76456 71.349734 
L 3835.786247 91.288145 
L 3823.807935 122.24932 
L 3811.829622 165.03623 
L 3799.851309 217.711049 
L 3787.872996 275.577774 
L 3775.894683 332.474312 
L 3763.91637 382.817629 
L 3751.938057 423.314894 
L 3739.959744 453.50313 
L 3727.981431 475.081964 
L 3716.003118 490.679223 
L 3704.024805 502.78437 
L 3692.046493 513.21479 
L 3680.06818 523.061792 
L 3668.089867 532.876105 
L 3656.111554 542.888999 
L 3644.133241 553.1774 
L 3632.154928 563.761731 
L 3620.176615 574.654304 
L 3608.198302 585.878116 
L 3596.219989 597.471364 
L 3584.241676 609.487088 
L 3572.263363 621.990819 
L 3560.285051 635.054584 
L 3548.306738 648.745642 
L 3536.328425 663.111697 
L 3524.350112 678.167542 
L 3512.371799 693.888903 
L 3500.393486 710.217221 
L 3488.415173 727.074967 
L 3476.43686 744.386184 
L 3464.458547 762.093862 
L 3452.480234 780.1666 
L 3440.501921 798.59166 
L 3428.523609 817.357435 
L 3416.545296 836.432739 
L 3404.566983 855.751071 
L 3392.58867 875.204872 
L 3380.610357 894.649328 
L 3368.632044 913.911342 
L 3356.653731 932.799849 
L 3344.675418 951.117977 
L 3332.697105 968.680596 
L 3320.718792 985.338271 
L 3308.740479 1001.00187 
L 3296.762167 1015.656984 
L 3284.783854 1029.359222 
L 3272.805541 1042.209631 
L 3260.827228 1054.31857 
L 3248.848915 1065.771004 
L 3236.870602 1076.604756 
L 3224.892289 1086.807756 
L 3212.913976 1096.333249 
L 3200.935663 1105.125379 
L 3188.95735 1113.143984 
L 3176.979037 1120.37932 
L 3165.000725 1126.854191 
L 3153.022412 1132.618074 
L 3141.044099 1137.739664 
L 3129.065786 1142.300502 
L 3117.087473 1146.387949 
L 3105.10916 1150.085703 
L 3093.130847 1153.463752 
L 3081.152534 1156.572177 
L 3069.174221 1159.441435 
L 3057.195908 1162.087595 
L 3045.217595 1164.518735 
L 3033.239283 1166.739846 
L 3021.26097 1168.756004 
L 3009.282657 1170.574524 
L 2997.304344 1172.206224 
L 2985.326031 1173.665356 
L 2973.347718 1174.968288 
L 2961.369405 1176.131886 
L 2949.391092 1177.172596 
L 2937.412779 1178.10645 
L 2925.434466 1178.949258 
L 2913.456153 1179.716127 
L 2901.477841 1180.420052 
L 2889.499528 1181.070275 
L 2877.521215 1181.671522 
L 2865.542902 1182.224705 
L 2853.564589 1182.728693 
L 2841.586276 1183.1821 
L 2829.607963 1183.58432 
L 2817.62965 1183.935909 
L 2805.651337 1184.23899 
L 2793.673024 1184.498081 
L 2781.694711 1184.720984 
L 2769.716399 1184.918805 
L 2757.738086 1185.104371 
L 2745.759773 1185.289194 
L 2733.78146 1185.480106 
L 2721.803147 1185.677163 
L 2709.824834 1185.873987 
L 2697.846521 1186.060562 
L 2685.868208 1186.227251 
L 2673.889895 1186.368249 
L 2661.911582 1186.483064 
L 2649.93327 1186.57571 
L 2637.954957 1186.652372 
L 2625.976644 1186.718875 
L 2613.998331 1186.77905 
L 2602.020018 1186.834406 
L 2590.041705 1186.88477 
L 2578.063392 1186.929224 
L 2566.085079 1186.966871 
L 2554.106766 1186.997304 
L 2542.128453 1187.020847 
L 2530.15014 1187.038596 
L 2518.171828 1187.052214 
L 2506.193515 1187.063487 
L 2494.215202 1187.073793 
L 2482.236889 1187.083755 
L 2470.258576 1187.093235 
L 2458.280263 1187.101662 
L 2446.30195 1187.108464 
L 2434.323637 1187.113387 
L 2422.345324 1187.116564 
L 2410.367011 1187.118388 
L 2398.388698 1187.11932 
L 2386.410386 1187.119742 
L 2374.432073 1187.119912 
z
" style="fill:#55a868;fill-opacity:0.25;"/>
   </g>
   <g id="line2d_52">
    <path clip-path="url(#p90f55ef2a0)" d="M 2390.55905 1187.119912 
L 2531.251187 1187.025321 
L 2566.424221 1186.866968 
L 2601.597255 1186.460471 
L 2636.77029 1185.750085 
L 2660.218979 1185.077229 
L 2683.667669 1184.172141 
L 2707.116358 1182.972504 
L 2730.565048 1181.482051 
L 2754.013737 1179.657079 
L 2765.738082 1178.541376 
L 2777.462427 1177.223063 
L 2789.186772 1175.64857 
L 2800.911116 1173.767396 
L 2812.635461 1171.533515 
L 2824.359806 1168.906509 
L 2836.084151 1165.852509 
L 2847.808496 1162.343537 
L 2859.53284 1158.354713 
L 2871.257185 1153.859926 
L 2882.98153 1148.827221 
L 2894.705875 1143.21693 
L 2906.430219 1136.987123 
L 2918.154564 1130.107006 
L 2929.878909 1122.569235 
L 2941.603254 1114.387775 
L 2953.327598 1105.578855 
L 2965.051943 1096.140276 
L 2976.776288 1086.047663 
L 2988.500633 1075.269185 
L 3000.224978 1063.782189 
L 3011.949322 1051.576282 
L 3023.673667 1038.643007 
L 3035.398012 1024.963141 
L 3047.122357 1010.500024 
L 3058.846701 995.20015 
L 3070.571046 978.999211 
L 3082.295391 961.831163 
L 3094.019736 943.636219 
L 3105.74408 924.364848 
L 3117.468425 903.981882 
L 3129.19277 882.478547 
L 3140.917115 859.889821 
L 3152.641459 836.300377 
L 3164.365804 811.8273 
L 3176.090149 786.591716 
L 3187.814494 760.705651 
L 3199.538839 734.284924 
L 3222.987528 680.419951 
L 3269.884907 571.721755 
L 3305.057941 489.82839 
L 3316.782286 463.210457 
L 3328.506631 437.577121 
L 3340.230976 413.346764 
L 3351.95532 390.85422 
L 3363.679665 370.304574 
L 3375.40401 351.761379 
L 3387.128355 335.163203 
L 3398.8527 320.35445 
L 3410.577044 307.117157 
L 3422.301389 295.197718 
L 3434.025734 284.329808 
L 3445.750079 274.256932 
L 3457.474423 264.754188 
L 3469.198768 255.643879 
L 3480.923113 246.801002 
L 3492.647458 238.151713 
L 3504.371802 229.670682 
L 3516.096147 221.376313 
L 3527.820492 213.316105 
L 3539.544837 205.539876 
L 3551.269181 198.072009 
L 3562.993526 190.899606 
L 3574.717871 183.983789 
L 3586.442216 177.284811 
L 3598.166561 170.782881 
L 3609.890905 164.483255 
L 3621.61525 158.409725 
L 3633.339595 152.599401 
L 3645.06394 147.104523 
L 3656.788284 141.993027 
L 3668.512629 137.33587 
L 3680.236974 133.180351 
L 3691.961319 129.521709 
L 3703.685663 126.283489 
L 3727.134353 120.280176 
L 3738.858698 116.763282 
L 3750.583043 112.123646 
L 3762.307387 105.737811 
L 3774.031732 97.329925 
L 3785.756077 87.315834 
L 3797.480422 76.836128 
L 3809.204766 67.335649 
L 3820.929111 59.926007 
L 3832.653456 54.971619 
L 3844.377801 52.136801 
L 3856.102145 50.750173 
L 3867.82649 50.170699 
L 3879.550835 49.963881 
L 3879.550835 49.963881 
" style="fill:none;stroke:#4c72b0;stroke-linecap:round;stroke-width:4;"/>
   </g>
   <g id="line2d_53">
    <path clip-path="url(#p90f55ef2a0)" d="M 2374.432073 1187.119912 
L 2542.128453 1187.020847 
L 2613.998331 1186.77905 
L 2673.889895 1186.368249 
L 2709.824834 1185.873987 
L 2805.651337 1184.23899 
L 2829.607963 1183.58432 
L 2853.564589 1182.728693 
L 2877.521215 1181.671522 
L 2901.477841 1180.420052 
L 2925.434466 1178.949258 
L 2949.391092 1177.172596 
L 2961.369405 1176.131886 
L 2973.347718 1174.968288 
L 2985.326031 1173.665356 
L 2997.304344 1172.206224 
L 3009.282657 1170.574524 
L 3021.26097 1168.756004 
L 3033.239283 1166.739846 
L 3045.217595 1164.518735 
L 3057.195908 1162.087595 
L 3069.174221 1159.441435 
L 3081.152534 1156.572177 
L 3093.130847 1153.463752 
L 3105.10916 1150.085703 
L 3117.087473 1146.387949 
L 3129.065786 1142.300502 
L 3141.044099 1137.739664 
L 3153.022412 1132.618074 
L 3165.000725 1126.854191 
L 3176.979037 1120.37932 
L 3188.95735 1113.143984 
L 3200.935663 1105.125379 
L 3212.913976 1096.333249 
L 3224.892289 1086.807756 
L 3236.870602 1076.604756 
L 3248.848915 1065.771004 
L 3260.827228 1054.31857 
L 3272.805541 1042.209631 
L 3284.783854 1029.359222 
L 3296.762167 1015.656984 
L 3308.740479 1001.00187 
L 3320.718792 985.338271 
L 3332.697105 968.680596 
L 3344.675418 951.117977 
L 3356.653731 932.799849 
L 3368.632044 913.911342 
L 3392.58867 875.204872 
L 3416.545296 836.432739 
L 3428.523609 817.357435 
L 3440.501921 798.59166 
L 3452.480234 780.1666 
L 3464.458547 762.093862 
L 3476.43686 744.386184 
L 3488.415173 727.074967 
L 3500.393486 710.217221 
L 3512.371799 693.888903 
L 3524.350112 678.167542 
L 3536.328425 663.111697 
L 3548.306738 648.745642 
L 3560.285051 635.054584 
L 3572.263363 621.990819 
L 3584.241676 609.487088 
L 3596.219989 597.471364 
L 3608.198302 585.878116 
L 3620.176615 574.654304 
L 3632.154928 563.761731 
L 3644.133241 553.1774 
L 3656.111554 542.888999 
L 3668.089867 532.876105 
L 3692.046493 513.21479 
L 3704.024805 502.78437 
L 3716.003118 490.679223 
L 3727.981431 475.081964 
L 3739.959744 453.50313 
L 3751.938057 423.314894 
L 3763.91637 382.817629 
L 3775.894683 332.474312 
L 3787.872996 275.577774 
L 3799.851309 217.711049 
L 3811.829622 165.03623 
L 3823.807935 122.24932 
L 3835.786247 91.288145 
L 3847.76456 71.349734 
L 3859.742873 59.929722 
L 3871.721186 54.114337 
L 3883.699499 51.482151 
L 3895.677812 50.423371 
L 3895.677812 50.423371 
" style="fill:none;stroke:#55a868;stroke-linecap:round;stroke-width:4;"/>
   </g>
   <g id="patch_8">
    <path d="M 2474.67 1187.12 
L 2474.67 49.88 
" style="fill:none;stroke:#cccccc;stroke-linecap:square;stroke-linejoin:miter;"/>
   </g>
   <g id="patch_9">
    <path d="M 3572.2475 1187.12 
L 3572.2475 49.88 
" style="fill:none;stroke:#cccccc;stroke-linecap:square;stroke-linejoin:miter;"/>
   </g>
   <g id="patch_10">
    <path d="M 2474.67 1187.12 
L 3572.2475 1187.12 
" style="fill:none;stroke:#cccccc;stroke-linecap:square;stroke-linejoin:miter;"/>
   </g>
   <g id="patch_11">
    <path d="M 2474.67 49.88 
L 3572.2475 49.88 
" style="fill:none;stroke:#cccccc;stroke-linecap:square;stroke-linejoin:miter;"/>
   </g>
   <g id="text_29">
    <text style="font-family:Arial;font-size:24.984px;font-style:normal;font-weight:600;text-anchor:middle;" transform="rotate(-0, 2915.896155, 277.328)" x="2915.896155" y="277.328">3LHP</text>
   </g>
   <g id="text_30">
    <text style="fill:#262626;font-family:Arial;font-size:36px;font-style:normal;font-weight:400;text-anchor:middle;" transform="rotate(-0, 3023.45875, 44.88)" x="3023.45875" y="44.88">3IXT: RSV mota (HLH)</text>
   </g>
   <g id="line2d_54">
    <path clip-path="url(#p90f55ef2a0)" d="M 2981.750805 1187.12 
L 2981.750805 -1 
" style="fill:none;stroke:#000000;stroke-dasharray:5.6,2.4;stroke-dashoffset:0;stroke-width:2;"/>
   </g>
  </g>
  <g id="axes_3">
   <g id="patch_12">
    <path d="M 4861.71 1187.12 
L 5959.2875 1187.12 
L 5959.2875 49.88 
L 4861.71 49.88 
z
" style="fill:#ffffff;"/>
   </g>
   <g id="matplotlib.axis_5">
    <g id="xtick_13">
     <g id="line2d_55">
      <path clip-path="url(#pef93c34b60)" d="M 4861.71 1187.12 
L 4861.71 49.88 
" style="fill:none;stroke:#cccccc;stroke-linecap:round;"/>
     </g>
     <g id="line2d_56"/>
     <g id="text_31">
      <text style="fill:#262626;font-family:Arial;font-size:30px;font-style:normal;font-weight:400;text-anchor:middle;" transform="rotate(-0, 4861.71, 1215.593437)" x="4861.71" y="1215.593437">0</text>
     </g>
    </g>
    <g id="xtick_14">
     <g id="line2d_57">
      <path clip-path="url(#pef93c34b60)" d="M 5081.2255 1187.12 
L 5081.2255 49.88 
" style="fill:none;stroke:#cccccc;stroke-linecap:round;"/>
     </g>
     <g id="line2d_58"/>
     <g id="text_32">
      <text style="fill:#262626;font-family:Arial;font-size:30px;font-style:normal;font-weight:400;text-anchor:middle;" transform="rotate(-0, 5081.2255, 1215.593437)" x="5081.2255" y="1215.593437">1</text>
     </g>
    </g>
    <g id="xtick_15">
     <g id="line2d_59">
      <path clip-path="url(#pef93c34b60)" d="M 5300.741 1187.12 
L 5300.741 49.88 
" style="fill:none;stroke:#cccccc;stroke-linecap:round;"/>
     </g>
     <g id="line2d_60"/>
     <g id="text_33">
      <text style="fill:#262626;font-family:Arial;font-size:30px;font-style:normal;font-weight:400;text-anchor:middle;" transform="rotate(-0, 5300.741, 1215.593437)" x="5300.741" y="1215.593437">2</text>
     </g>
    </g>
    <g id="xtick_16">
     <g id="line2d_61">
      <path clip-path="url(#pef93c34b60)" d="M 5520.2565 1187.12 
L 5520.2565 49.88 
" style="fill:none;stroke:#cccccc;stroke-linecap:round;"/>
     </g>
     <g id="line2d_62"/>
     <g id="text_34">
      <text style="fill:#262626;font-family:Arial;font-size:30px;font-style:normal;font-weight:400;text-anchor:middle;" transform="rotate(-0, 5520.2565, 1215.593437)" x="5520.2565" y="1215.593437">3</text>
     </g>
    </g>
    <g id="xtick_17">
     <g id="line2d_63">
      <path clip-path="url(#pef93c34b60)" d="M 5739.772 1187.12 
L 5739.772 49.88 
" style="fill:none;stroke:#cccccc;stroke-linecap:round;"/>
     </g>
     <g id="line2d_64"/>
     <g id="text_35">
      <text style="fill:#262626;font-family:Arial;font-size:30px;font-style:normal;font-weight:400;text-anchor:middle;" transform="rotate(-0, 5739.772, 1215.593437)" x="5739.772" y="1215.593437">4</text>
     </g>
    </g>
    <g id="xtick_18">
     <g id="line2d_65">
      <path clip-path="url(#pef93c34b60)" d="M 5959.2875 1187.12 
L 5959.2875 49.88 
" style="fill:none;stroke:#cccccc;stroke-linecap:round;"/>
     </g>
     <g id="line2d_66"/>
     <g id="text_36">
      <text style="fill:#262626;font-family:Arial;font-size:30px;font-style:normal;font-weight:400;text-anchor:middle;" transform="rotate(-0, 5959.2875, 1215.593437)" x="5959.2875" y="1215.593437">5</text>
     </g>
    </g>
    <g id="text_37">
     <text style="fill:#262626;font-family:Arial;font-size:33px;font-style:normal;font-weight:400;text-anchor:middle;" transform="rotate(-0, 5410.49875, 1249.176719)" x="5410.49875" y="1249.176719">RMSD</text>
    </g>
   </g>
   <g id="matplotlib.axis_6">
    <g id="ytick_13">
     <g id="line2d_67">
      <path clip-path="url(#pef93c34b60)" d="M 4861.71 1187.12 
L 5959.2875 1187.12 
" style="fill:none;stroke:#cccccc;stroke-linecap:round;"/>
     </g>
     <g id="line2d_68"/>
     <g id="text_38">
      <text style="fill:#262626;font-family:Arial;font-size:30px;font-style:normal;font-weight:400;text-anchor:end;" transform="rotate(-0, 4854.71, 1197.856719)" x="4854.71" y="1197.856719">0.0</text>
     </g>
    </g>
    <g id="ytick_14">
     <g id="line2d_69">
      <path clip-path="url(#pef93c34b60)" d="M 4861.71 959.672 
L 5959.2875 959.672 
" style="fill:none;stroke:#cccccc;stroke-linecap:round;"/>
     </g>
     <g id="line2d_70"/>
     <g id="text_39">
      <text style="fill:#262626;font-family:Arial;font-size:30px;font-style:normal;font-weight:400;text-anchor:end;" transform="rotate(-0, 4854.71, 970.408719)" x="4854.71" y="970.408719">0.2</text>
     </g>
    </g>
    <g id="ytick_15">
     <g id="line2d_71">
      <path clip-path="url(#pef93c34b60)" d="M 4861.71 732.224 
L 5959.2875 732.224 
" style="fill:none;stroke:#cccccc;stroke-linecap:round;"/>
     </g>
     <g id="line2d_72"/>
     <g id="text_40">
      <text style="fill:#262626;font-family:Arial;font-size:30px;font-style:normal;font-weight:400;text-anchor:end;" transform="rotate(-0, 4854.71, 742.960719)" x="4854.71" y="742.960719">0.4</text>
     </g>
    </g>
    <g id="ytick_16">
     <g id="line2d_73">
      <path clip-path="url(#pef93c34b60)" d="M 4861.71 504.776 
L 5959.2875 504.776 
" style="fill:none;stroke:#cccccc;stroke-linecap:round;"/>
     </g>
     <g id="line2d_74"/>
     <g id="text_41">
      <text style="fill:#262626;font-family:Arial;font-size:30px;font-style:normal;font-weight:400;text-anchor:end;" transform="rotate(-0, 4854.71, 515.512719)" x="4854.71" y="515.512719">0.6</text>
     </g>
    </g>
    <g id="ytick_17">
     <g id="line2d_75">
      <path clip-path="url(#pef93c34b60)" d="M 4861.71 277.328 
L 5959.2875 277.328 
" style="fill:none;stroke:#cccccc;stroke-linecap:round;"/>
     </g>
     <g id="line2d_76"/>
     <g id="text_42">
      <text style="fill:#262626;font-family:Arial;font-size:30px;font-style:normal;font-weight:400;text-anchor:end;" transform="rotate(-0, 4854.71, 288.064719)" x="4854.71" y="288.064719">0.8</text>
     </g>
    </g>
    <g id="ytick_18">
     <g id="line2d_77">
      <path clip-path="url(#pef93c34b60)" d="M 4861.71 49.88 
L 5959.2875 49.88 
" style="fill:none;stroke:#cccccc;stroke-linecap:round;"/>
     </g>
     <g id="line2d_78"/>
     <g id="text_43">
      <text style="fill:#262626;font-family:Arial;font-size:30px;font-style:normal;font-weight:400;text-anchor:end;" transform="rotate(-0, 4854.71, 60.616719)" x="4854.71" y="60.616719">1.0</text>
     </g>
    </g>
   </g>
   <g id="PolyCollection_3">
    <path clip-path="url(#pef93c34b60)" d="M 5013.810089 1187.11991 
L 5013.810089 1187.12 
L 5023.848031 1187.12 
L 5033.885974 1187.12 
L 5043.923916 1187.12 
L 5053.961859 1187.12 
L 5063.999802 1187.12 
L 5074.037744 1187.12 
L 5084.075687 1187.12 
L 5094.11363 1187.12 
L 5104.151572 1187.12 
L 5114.189515 1187.12 
L 5124.227458 1187.12 
L 5134.2654 1187.12 
L 5144.303343 1187.12 
L 5154.341286 1187.12 
L 5164.379228 1187.12 
L 5174.417171 1187.12 
L 5184.455114 1187.12 
L 5194.493056 1187.12 
L 5204.530999 1187.12 
L 5214.568942 1187.12 
L 5224.606884 1187.12 
L 5234.644827 1187.12 
L 5244.68277 1187.12 
L 5254.720712 1187.12 
L 5264.758655 1187.12 
L 5274.796598 1187.12 
L 5284.83454 1187.12 
L 5294.872483 1187.12 
L 5304.910426 1187.12 
L 5314.948368 1187.12 
L 5324.986311 1187.12 
L 5335.024254 1187.12 
L 5345.062196 1187.12 
L 5355.100139 1187.12 
L 5365.138082 1187.12 
L 5375.176024 1187.12 
L 5385.213967 1187.12 
L 5395.25191 1187.12 
L 5405.289852 1187.12 
L 5415.327795 1187.12 
L 5425.365737 1187.12 
L 5435.40368 1187.12 
L 5445.441623 1187.12 
L 5455.479565 1187.12 
L 5465.517508 1187.12 
L 5475.555451 1187.12 
L 5485.593393 1187.12 
L 5495.631336 1187.12 
L 5505.669279 1187.12 
L 5515.707221 1187.12 
L 5525.745164 1187.12 
L 5535.783107 1187.12 
L 5545.821049 1187.12 
L 5555.858992 1187.12 
L 5565.896935 1187.12 
L 5575.934877 1187.12 
L 5585.97282 1187.12 
L 5596.010763 1187.12 
L 5606.048705 1187.12 
L 5616.086648 1187.12 
L 5626.124591 1187.12 
L 5636.162533 1187.12 
L 5646.200476 1187.12 
L 5656.238419 1187.12 
L 5666.276361 1187.12 
L 5676.314304 1187.12 
L 5686.352247 1187.12 
L 5696.390189 1187.12 
L 5706.428132 1187.12 
L 5716.466075 1187.12 
L 5726.504017 1187.12 
L 5736.54196 1187.12 
L 5746.579903 1187.12 
L 5756.617845 1187.12 
L 5766.655788 1187.12 
L 5776.693731 1187.12 
L 5786.731673 1187.12 
L 5796.769616 1187.12 
L 5806.807558 1187.12 
L 5816.845501 1187.12 
L 5826.883444 1187.12 
L 5836.921386 1187.12 
L 5846.959329 1187.12 
L 5856.997272 1187.12 
L 5867.035214 1187.12 
L 5877.073157 1187.12 
L 5887.1111 1187.12 
L 5897.149042 1187.12 
L 5907.186985 1187.12 
L 5917.224928 1187.12 
L 5927.26287 1187.12 
L 5937.300813 1187.12 
L 5947.338756 1187.12 
L 5957.376698 1187.12 
L 5967.414641 1187.12 
L 5977.452584 1187.12 
L 5987.490526 1187.12 
L 5997.528469 1187.12 
L 6007.566412 1187.12 
L 6017.604354 1187.12 
L 6027.642297 1187.12 
L 6037.68024 1187.12 
L 6047.718182 1187.12 
L 6057.756125 1187.12 
L 6067.794068 1187.12 
L 6077.83201 1187.12 
L 6087.869953 1187.12 
L 6097.907896 1187.12 
L 6107.945838 1187.12 
L 6117.983781 1187.12 
L 6128.021724 1187.12 
L 6138.059666 1187.12 
L 6148.097609 1187.12 
L 6158.135552 1187.12 
L 6168.173494 1187.12 
L 6178.211437 1187.12 
L 6188.249379 1187.12 
L 6198.287322 1187.12 
L 6208.325265 1187.12 
L 6218.363207 1187.12 
L 6228.40115 1187.12 
L 6238.439093 1187.12 
L 6248.477035 1187.12 
L 6258.514978 1187.12 
L 6268.552921 1187.12 
L 6278.590863 1187.12 
L 6288.628806 1187.12 
L 6288.628806 50.368605 
L 6288.628806 50.368605 
L 6278.590863 51.041466 
L 6268.552921 52.456613 
L 6258.514978 55.218973 
L 6248.477035 60.223668 
L 6238.439093 68.639867 
L 6228.40115 81.777784 
L 6218.363207 100.81719 
L 6208.325265 126.436126 
L 6198.287322 158.450545 
L 6188.249379 195.617275 
L 6178.211437 235.724173 
L 6168.173494 275.987971 
L 6158.135552 313.646623 
L 6148.097609 346.541841 
L 6138.059666 373.492768 
L 6128.021724 394.359926 
L 6117.983781 409.832025 
L 6107.945838 421.064918 
L 6097.907896 429.322345 
L 6087.869953 435.721648 
L 6077.83201 441.115584 
L 6067.794068 446.08447 
L 6057.756125 450.989221 
L 6047.718182 456.04086 
L 6037.68024 461.360069 
L 6027.642297 467.017788 
L 6017.604354 473.058467 
L 6007.566412 479.51142 
L 5997.528469 486.395616 
L 5987.490526 493.721733 
L 5977.452584 501.493736 
L 5967.414641 509.711095 
L 5957.376698 518.371876 
L 5947.338756 527.476312 
L 5937.300813 537.03013 
L 5927.26287 547.046846 
L 5917.224928 557.548446 
L 5907.186985 568.564208 
L 5897.149042 580.12777 
L 5887.1111 592.272901 
L 5877.073157 605.02878 
L 5867.035214 618.415819 
L 5856.997272 632.443081 
L 5846.959329 647.107863 
L 5836.921386 662.397119 
L 5826.883444 678.289309 
L 5816.845501 694.754691 
L 5806.807558 711.752604 
L 5796.769616 729.22597 
L 5786.731673 747.095344 
L 5776.693731 765.256106 
L 5766.655788 783.581875 
L 5756.617845 801.93484 
L 5746.579903 820.180655 
L 5736.54196 838.203419 
L 5726.504017 855.916038 
L 5716.466075 873.263154 
L 5706.428132 890.21653 
L 5696.390189 906.765148 
L 5686.352247 922.9035 
L 5676.314304 938.621395 
L 5666.276361 953.897662 
L 5656.238419 968.698741 
L 5646.200476 982.981806 
L 5636.162533 996.70086 
L 5626.124591 1009.813681 
L 5616.086648 1022.287593 
L 5606.048705 1034.1029 
L 5596.010763 1045.253897 
L 5585.97282 1055.748223 
L 5575.934877 1065.605435 
L 5565.896935 1074.855335 
L 5555.858992 1083.536031 
L 5545.821049 1091.691514 
L 5535.783107 1099.368603 
L 5525.745164 1106.613373 
L 5515.707221 1113.467313 
L 5505.669279 1119.963613 
L 5495.631336 1126.124128 
L 5485.593393 1131.957864 
L 5475.555451 1137.46182 
L 5465.517508 1142.624494 
L 5455.479565 1147.431383 
L 5445.441623 1151.870839 
L 5435.40368 1155.938444 
L 5425.365737 1159.63876 
L 5415.327795 1162.98453 
L 5405.289852 1165.994457 
L 5395.25191 1168.690881 
L 5385.213967 1171.098177 
L 5375.176024 1173.241849 
L 5365.138082 1175.147818 
L 5355.100139 1176.841442 
L 5345.062196 1178.346219 
L 5335.024254 1179.682545 
L 5324.986311 1180.866979 
L 5314.948368 1181.912283 
L 5304.910426 1182.82817 
L 5294.872483 1183.622501 
L 5284.83454 1184.302581 
L 5274.796598 1184.876257 
L 5264.758655 1185.352557 
L 5254.720712 1185.741767 
L 5244.68277 1186.055007 
L 5234.644827 1186.303516 
L 5224.606884 1186.497955 
L 5214.568942 1186.647963 
L 5204.530999 1186.762019 
L 5194.493056 1186.84753 
L 5184.455114 1186.910958 
L 5174.417171 1186.957886 
L 5164.379228 1186.992981 
L 5154.341286 1187.019912 
L 5144.303343 1187.041324 
L 5134.2654 1187.058918 
L 5124.227458 1187.073632 
L 5114.189515 1187.085893 
L 5104.151572 1187.095874 
L 5094.11363 1187.103689 
L 5084.075687 1187.109513 
L 5074.037744 1187.113613 
L 5063.999802 1187.116327 
L 5053.961859 1187.118011 
L 5043.923916 1187.118988 
L 5033.885974 1187.119517 
L 5023.848031 1187.119784 
L 5013.810089 1187.11991 
z
" style="fill:#55a868;fill-opacity:0.25;"/>
   </g>
   <g id="line2d_79">
    <path clip-path="url(#pef93c34b60)" d="M 4898.011545 1187.119912 
L 5057.663377 1187.018315 
L 5089.593743 1186.805248 
L 5110.880654 1186.468696 
L 5121.52411 1186.196355 
L 5132.167565 1185.804523 
L 5142.81102 1185.237742 
L 5153.454476 1184.430453 
L 5164.097931 1183.306862 
L 5174.741387 1181.775505 
L 5185.384842 1179.722639 
L 5196.028298 1177.006517 
L 5206.671753 1173.445701 
L 5217.315208 1168.794039 
L 5227.958664 1162.713774 
L 5238.602119 1154.77721 
L 5249.245575 1144.514248 
L 5259.88903 1131.485857 
L 5270.532486 1115.351123 
L 5281.175941 1095.920116 
L 5291.819397 1073.19654 
L 5302.462852 1047.389916 
L 5313.106307 1018.870959 
L 5323.749763 988.089945 
L 5334.393218 955.514316 
L 5345.036674 921.606628 
L 5355.680129 886.807152 
L 5376.96704 815.951804 
L 5398.253951 745.032177 
L 5408.897406 710.127723 
L 5419.540862 675.96234 
L 5430.184317 642.751884 
L 5440.827773 610.577314 
L 5451.471228 579.401986 
L 5462.114684 549.176157 
L 5472.758139 519.961628 
L 5483.401594 491.9841 
L 5494.04505 465.564952 
L 5504.688505 440.977271 
L 5515.331961 418.33004 
L 5525.975416 397.547459 
L 5536.618872 378.422175 
L 5547.262327 360.678093 
L 5557.905783 344.007874 
L 5568.549238 328.095972 
L 5579.192693 312.649357 
L 5600.479604 282.324287 
L 5621.766515 252.268525 
L 5632.409971 237.392924 
L 5643.053426 222.713877 
L 5653.696882 208.353475 
L 5664.340337 194.496435 
L 5674.983792 181.392443 
L 5685.627248 169.325131 
L 5696.270703 158.544206 
L 5706.914159 149.188327 
L 5717.557614 141.248307 
L 5728.20107 134.597488 
L 5738.844525 129.062955 
L 5749.48798 124.483739 
L 5760.131436 120.726512 
L 5770.774891 117.67194 
L 5781.418347 115.201154 
L 5792.061802 113.196696 
L 5802.705258 111.552465 
L 5813.348713 110.181939 
L 5823.992169 109.019979 
L 5834.635624 108.019265 
L 5855.922535 106.358615 
L 5887.852901 104.256349 
L 5919.783268 102.36974 
L 5951.713634 100.740498 
L 5973.000545 99.863389 
L 6047.504733 97.168143 
L 6068.791644 96.148522 
L 6090.078555 94.967812 
L 6111.365465 93.589843 
L 6122.008921 92.673916 
L 6132.652376 91.300648 
L 6143.295832 89.001376 
L 6153.939287 85.217012 
L 6164.582743 79.64708 
L 6175.226198 72.658843 
L 6185.869654 65.342558 
L 6196.513109 59.010606 
L 6207.156564 54.499953 
L 6217.80002 51.860643 
L 6228.443475 50.593516 
L 6239.086931 50.094672 
L 6249.730386 49.933698 
L 6249.730386 49.933698 
" style="fill:none;stroke:#4c72b0;stroke-linecap:round;stroke-width:4;"/>
   </g>
   <g id="line2d_80">
    <path clip-path="url(#pef93c34b60)" d="M 5013.810089 1187.11991 
L 5154.341286 1187.019912 
L 5194.493056 1186.84753 
L 5224.606884 1186.497955 
L 5244.68277 1186.055007 
L 5264.758655 1185.352557 
L 5284.83454 1184.302581 
L 5294.872483 1183.622501 
L 5304.910426 1182.82817 
L 5314.948368 1181.912283 
L 5324.986311 1180.866979 
L 5335.024254 1179.682545 
L 5345.062196 1178.346219 
L 5355.100139 1176.841442 
L 5365.138082 1175.147818 
L 5375.176024 1173.241849 
L 5385.213967 1171.098177 
L 5395.25191 1168.690881 
L 5405.289852 1165.994457 
L 5415.327795 1162.98453 
L 5425.365737 1159.63876 
L 5435.40368 1155.938444 
L 5445.441623 1151.870839 
L 5455.479565 1147.431383 
L 5465.517508 1142.624494 
L 5475.555451 1137.46182 
L 5485.593393 1131.957864 
L 5495.631336 1126.124128 
L 5505.669279 1119.963613 
L 5515.707221 1113.467313 
L 5525.745164 1106.613373 
L 5535.783107 1099.368603 
L 5545.821049 1091.691514 
L 5555.858992 1083.536031 
L 5565.896935 1074.855335 
L 5575.934877 1065.605435 
L 5585.97282 1055.748223 
L 5596.010763 1045.253897 
L 5606.048705 1034.1029 
L 5616.086648 1022.287593 
L 5626.124591 1009.813681 
L 5636.162533 996.70086 
L 5646.200476 982.981806 
L 5656.238419 968.698741 
L 5666.276361 953.897662 
L 5676.314304 938.621395 
L 5686.352247 922.9035 
L 5696.390189 906.765148 
L 5706.428132 890.21653 
L 5716.466075 873.263154 
L 5726.504017 855.916038 
L 5736.54196 838.203419 
L 5756.617845 801.93484 
L 5786.731673 747.095344 
L 5796.769616 729.22597 
L 5806.807558 711.752604 
L 5816.845501 694.754691 
L 5826.883444 678.289309 
L 5836.921386 662.397119 
L 5846.959329 647.107863 
L 5856.997272 632.443081 
L 5867.035214 618.415819 
L 5877.073157 605.02878 
L 5887.1111 592.272901 
L 5897.149042 580.12777 
L 5907.186985 568.564208 
L 5917.224928 557.548446 
L 5927.26287 547.046846 
L 5937.300813 537.03013 
L 5947.338756 527.476312 
L 5957.376698 518.371876 
L 5967.414641 509.711095 
L 5977.452584 501.493736 
L 5987.490526 493.721733 
L 5997.528469 486.395616 
L 6007.566412 479.51142 
L 6017.604354 473.058467 
L 6027.642297 467.017788 
L 6037.68024 461.360069 
L 6047.718182 456.04086 
L 6057.756125 450.989221 
L 6077.83201 441.115584 
L 6087.869953 435.721648 
L 6097.907896 429.322345 
L 6107.945838 421.064918 
L 6117.983781 409.832025 
L 6128.021724 394.359926 
L 6138.059666 373.492768 
L 6148.097609 346.541841 
L 6158.135552 313.646623 
L 6168.173494 275.987971 
L 6188.249379 195.617275 
L 6198.287322 158.450545 
L 6208.325265 126.436126 
L 6218.363207 100.81719 
L 6228.40115 81.777784 
L 6238.439093 68.639867 
L 6248.477035 60.223668 
L 6258.514978 55.218973 
L 6268.552921 52.456613 
L 6278.590863 51.041466 
L 6288.628806 50.368605 
L 6288.628806 50.368605 
" style="fill:none;stroke:#55a868;stroke-linecap:round;stroke-width:4;"/>
   </g>
   <g id="patch_13">
    <path d="M 4861.71 1187.12 
L 4861.71 49.88 
" style="fill:none;stroke:#cccccc;stroke-linecap:square;stroke-linejoin:miter;"/>
   </g>
   <g id="patch_14">
    <path d="M 5959.2875 1187.12 
L 5959.2875 49.88 
" style="fill:none;stroke:#cccccc;stroke-linecap:square;stroke-linejoin:miter;"/>
   </g>
   <g id="patch_15">
    <path d="M 4861.71 1187.12 
L 5959.2875 1187.12 
" style="fill:none;stroke:#cccccc;stroke-linecap:square;stroke-linejoin:miter;"/>
   </g>
   <g id="patch_16">
    <path d="M 4861.71 49.88 
L 5959.2875 49.88 
" style="fill:none;stroke:#cccccc;stroke-linecap:square;stroke-linejoin:miter;"/>
   </g>
   <g id="text_44">
    <text style="fill:#262626;font-family:Arial;font-size:36px;font-style:normal;font-weight:400;text-anchor:middle;" transform="rotate(-0, 5410.49875, 44.88)" x="5410.49875" y="44.88">5TPN: RSV RSV90 (HLE)</text>
   </g>
  </g>
  <g id="axes_4">
   <g id="patch_17">
    <path d="M 1281.15 1187.12 
L 2378.7275 1187.12 
L 2378.7275 49.88 
L 1281.15 49.88 
z
" style="fill:#ffffff;"/>
   </g>
   <g id="matplotlib.axis_7">
    <g id="xtick_19">
     <g id="line2d_81">
      <path clip-path="url(#p57a744a8c5)" d="M 1281.15 1187.12 
L 1281.15 49.88 
" style="fill:none;stroke:#cccccc;stroke-linecap:round;"/>
     </g>
     <g id="line2d_82"/>
     <g id="text_45">
      <text style="fill:#262626;font-family:Arial;font-size:30px;font-style:normal;font-weight:400;text-anchor:middle;" transform="rotate(-0, 1281.15, 1215.593437)" x="1281.15" y="1215.593437">0</text>
     </g>
    </g>
    <g id="xtick_20">
     <g id="line2d_83">
      <path clip-path="url(#p57a744a8c5)" d="M 1500.6655 1187.12 
L 1500.6655 49.88 
" style="fill:none;stroke:#cccccc;stroke-linecap:round;"/>
     </g>
     <g id="line2d_84"/>
     <g id="text_46">
      <text style="fill:#262626;font-family:Arial;font-size:30px;font-style:normal;font-weight:400;text-anchor:middle;" transform="rotate(-0, 1500.6655, 1215.593437)" x="1500.6655" y="1215.593437">1</text>
     </g>
    </g>
    <g id="xtick_21">
     <g id="line2d_85">
      <path clip-path="url(#p57a744a8c5)" d="M 1720.181 1187.12 
L 1720.181 49.88 
" style="fill:none;stroke:#cccccc;stroke-linecap:round;"/>
     </g>
     <g id="line2d_86"/>
     <g id="text_47">
      <text style="fill:#262626;font-family:Arial;font-size:30px;font-style:normal;font-weight:400;text-anchor:middle;" transform="rotate(-0, 1720.181, 1215.593437)" x="1720.181" y="1215.593437">2</text>
     </g>
    </g>
    <g id="xtick_22">
     <g id="line2d_87">
      <path clip-path="url(#p57a744a8c5)" d="M 1939.6965 1187.12 
L 1939.6965 49.88 
" style="fill:none;stroke:#cccccc;stroke-linecap:round;"/>
     </g>
     <g id="line2d_88"/>
     <g id="text_48">
      <text style="fill:#262626;font-family:Arial;font-size:30px;font-style:normal;font-weight:400;text-anchor:middle;" transform="rotate(-0, 1939.6965, 1215.593437)" x="1939.6965" y="1215.593437">3</text>
     </g>
    </g>
    <g id="xtick_23">
     <g id="line2d_89">
      <path clip-path="url(#p57a744a8c5)" d="M 2159.212 1187.12 
L 2159.212 49.88 
" style="fill:none;stroke:#cccccc;stroke-linecap:round;"/>
     </g>
     <g id="line2d_90"/>
     <g id="text_49">
      <text style="fill:#262626;font-family:Arial;font-size:30px;font-style:normal;font-weight:400;text-anchor:middle;" transform="rotate(-0, 2159.212, 1215.593437)" x="2159.212" y="1215.593437">4</text>
     </g>
    </g>
    <g id="xtick_24">
     <g id="line2d_91">
      <path clip-path="url(#p57a744a8c5)" d="M 2378.7275 1187.12 
L 2378.7275 49.88 
" style="fill:none;stroke:#cccccc;stroke-linecap:round;"/>
     </g>
     <g id="line2d_92"/>
     <g id="text_50">
      <text style="fill:#262626;font-family:Arial;font-size:30px;font-style:normal;font-weight:400;text-anchor:middle;" transform="rotate(-0, 2378.7275, 1215.593437)" x="2378.7275" y="1215.593437">5</text>
     </g>
    </g>
    <g id="text_51">
     <text style="fill:#262626;font-family:Arial;font-size:33px;font-style:normal;font-weight:400;text-anchor:middle;" transform="rotate(-0, 1829.93875, 1249.176719)" x="1829.93875" y="1249.176719">RMSD</text>
    </g>
   </g>
   <g id="matplotlib.axis_8">
    <g id="ytick_19">
     <g id="line2d_93">
      <path clip-path="url(#p57a744a8c5)" d="M 1281.15 1187.12 
L 2378.7275 1187.12 
" style="fill:none;stroke:#cccccc;stroke-linecap:round;"/>
     </g>
     <g id="line2d_94"/>
     <g id="text_52">
      <text style="fill:#262626;font-family:Arial;font-size:30px;font-style:normal;font-weight:400;text-anchor:end;" transform="rotate(-0, 1274.15, 1197.856719)" x="1274.15" y="1197.856719">0.0</text>
     </g>
    </g>
    <g id="ytick_20">
     <g id="line2d_95">
      <path clip-path="url(#p57a744a8c5)" d="M 1281.15 959.672 
L 2378.7275 959.672 
" style="fill:none;stroke:#cccccc;stroke-linecap:round;"/>
     </g>
     <g id="line2d_96"/>
     <g id="text_53">
      <text style="fill:#262626;font-family:Arial;font-size:30px;font-style:normal;font-weight:400;text-anchor:end;" transform="rotate(-0, 1274.15, 970.408719)" x="1274.15" y="970.408719">0.2</text>
     </g>
    </g>
    <g id="ytick_21">
     <g id="line2d_97">
      <path clip-path="url(#p57a744a8c5)" d="M 1281.15 732.224 
L 2378.7275 732.224 
" style="fill:none;stroke:#cccccc;stroke-linecap:round;"/>
     </g>
     <g id="line2d_98"/>
     <g id="text_54">
      <text style="fill:#262626;font-family:Arial;font-size:30px;font-style:normal;font-weight:400;text-anchor:end;" transform="rotate(-0, 1274.15, 742.960719)" x="1274.15" y="742.960719">0.4</text>
     </g>
    </g>
    <g id="ytick_22">
     <g id="line2d_99">
      <path clip-path="url(#p57a744a8c5)" d="M 1281.15 504.776 
L 2378.7275 504.776 
" style="fill:none;stroke:#cccccc;stroke-linecap:round;"/>
     </g>
     <g id="line2d_100"/>
     <g id="text_55">
      <text style="fill:#262626;font-family:Arial;font-size:30px;font-style:normal;font-weight:400;text-anchor:end;" transform="rotate(-0, 1274.15, 515.512719)" x="1274.15" y="515.512719">0.6</text>
     </g>
    </g>
    <g id="ytick_23">
     <g id="line2d_101">
      <path clip-path="url(#p57a744a8c5)" d="M 1281.15 277.328 
L 2378.7275 277.328 
" style="fill:none;stroke:#cccccc;stroke-linecap:round;"/>
     </g>
     <g id="line2d_102"/>
     <g id="text_56">
      <text style="fill:#262626;font-family:Arial;font-size:30px;font-style:normal;font-weight:400;text-anchor:end;" transform="rotate(-0, 1274.15, 288.064719)" x="1274.15" y="288.064719">0.8</text>
     </g>
    </g>
    <g id="ytick_24">
     <g id="line2d_103">
      <path clip-path="url(#p57a744a8c5)" d="M 1281.15 49.88 
L 2378.7275 49.88 
" style="fill:none;stroke:#cccccc;stroke-linecap:round;"/>
     </g>
     <g id="line2d_104"/>
     <g id="text_57">
      <text style="fill:#262626;font-family:Arial;font-size:30px;font-style:normal;font-weight:400;text-anchor:end;" transform="rotate(-0, 1274.15, 60.616719)" x="1274.15" y="60.616719">1.0</text>
     </g>
    </g>
   </g>
   <g id="PolyCollection_4">
    <path clip-path="url(#p57a744a8c5)" d="M 1263.74647 1187.119815 
L 1263.74647 1187.12 
L 1275.5128 1187.12 
L 1287.27913 1187.12 
L 1299.04546 1187.12 
L 1310.81179 1187.12 
L 1322.57812 1187.12 
L 1334.34445 1187.12 
L 1346.11078 1187.12 
L 1357.87711 1187.12 
L 1369.64344 1187.12 
L 1381.40977 1187.12 
L 1393.1761 1187.12 
L 1404.94243 1187.12 
L 1416.70876 1187.12 
L 1428.47509 1187.12 
L 1440.24142 1187.12 
L 1452.00775 1187.12 
L 1463.77408 1187.12 
L 1475.54041 1187.12 
L 1487.30674 1187.12 
L 1499.07307 1187.12 
L 1510.8394 1187.12 
L 1522.60573 1187.12 
L 1534.37206 1187.12 
L 1546.13839 1187.12 
L 1557.90472 1187.12 
L 1569.67105 1187.12 
L 1581.43738 1187.12 
L 1593.20371 1187.12 
L 1604.97004 1187.12 
L 1616.73637 1187.12 
L 1628.5027 1187.12 
L 1640.26903 1187.12 
L 1652.03536 1187.12 
L 1663.80169 1187.12 
L 1675.56802 1187.12 
L 1687.33435 1187.12 
L 1699.10068 1187.12 
L 1710.86701 1187.12 
L 1722.63334 1187.12 
L 1734.39967 1187.12 
L 1746.166 1187.12 
L 1757.932331 1187.12 
L 1769.698661 1187.12 
L 1781.464991 1187.12 
L 1793.231321 1187.12 
L 1804.997651 1187.12 
L 1816.763981 1187.12 
L 1828.530311 1187.12 
L 1840.296641 1187.12 
L 1852.062971 1187.12 
L 1863.829301 1187.12 
L 1875.595631 1187.12 
L 1887.361961 1187.12 
L 1899.128291 1187.12 
L 1910.894621 1187.12 
L 1922.660951 1187.12 
L 1934.427281 1187.12 
L 1946.193611 1187.12 
L 1957.959941 1187.12 
L 1969.726271 1187.12 
L 1981.492601 1187.12 
L 1993.258931 1187.12 
L 2005.025261 1187.12 
L 2016.791591 1187.12 
L 2028.557921 1187.12 
L 2040.324251 1187.12 
L 2052.090581 1187.12 
L 2063.856911 1187.12 
L 2075.623241 1187.12 
L 2087.389571 1187.12 
L 2099.155901 1187.12 
L 2110.922231 1187.12 
L 2122.688561 1187.12 
L 2134.454891 1187.12 
L 2146.221221 1187.12 
L 2157.987551 1187.12 
L 2169.753881 1187.12 
L 2181.520211 1187.12 
L 2193.286541 1187.12 
L 2205.052871 1187.12 
L 2216.819201 1187.12 
L 2228.585531 1187.12 
L 2240.351861 1187.12 
L 2252.118191 1187.12 
L 2263.884521 1187.12 
L 2275.650851 1187.12 
L 2287.417181 1187.12 
L 2299.183511 1187.12 
L 2310.949841 1187.12 
L 2322.716171 1187.12 
L 2334.482501 1187.12 
L 2346.248831 1187.12 
L 2358.015161 1187.12 
L 2369.781491 1187.12 
L 2381.547821 1187.12 
L 2393.314151 1187.12 
L 2405.080481 1187.12 
L 2416.846811 1187.12 
L 2428.613141 1187.12 
L 2440.379471 1187.12 
L 2452.145801 1187.12 
L 2463.912131 1187.12 
L 2475.678461 1187.12 
L 2487.444791 1187.12 
L 2499.211121 1187.12 
L 2510.977451 1187.12 
L 2522.743781 1187.12 
L 2534.510111 1187.12 
L 2546.276441 1187.12 
L 2558.042771 1187.12 
L 2569.809101 1187.12 
L 2581.575431 1187.12 
L 2593.341761 1187.12 
L 2605.108091 1187.12 
L 2616.874421 1187.12 
L 2628.640751 1187.12 
L 2640.407081 1187.12 
L 2652.173411 1187.12 
L 2663.939741 1187.12 
L 2675.706071 1187.12 
L 2687.472402 1187.12 
L 2699.238732 1187.12 
L 2711.005062 1187.12 
L 2722.771392 1187.12 
L 2734.537722 1187.12 
L 2746.304052 1187.12 
L 2758.070382 1187.12 
L 2758.070382 50.996094 
L 2758.070382 50.996094 
L 2746.304052 52.133141 
L 2734.537722 54.228569 
L 2722.771392 57.907047 
L 2711.005062 64.058315 
L 2699.238732 73.856886 
L 2687.472402 88.725236 
L 2675.706071 110.216651 
L 2663.939741 139.808353 
L 2652.173411 178.621429 
L 2640.407081 227.115649 
L 2628.640751 284.833024 
L 2616.874421 350.27087 
L 2605.108091 420.944748 
L 2593.341761 493.655539 
L 2581.575431 564.916656 
L 2569.809101 631.44798 
L 2558.042771 690.621742 
L 2546.276441 740.760979 
L 2534.510111 781.237133 
L 2522.743781 812.371641 
L 2510.977451 835.195732 
L 2499.211121 851.147783 
L 2487.444791 861.784871 
L 2475.678461 868.561653 
L 2463.912131 872.698231 
L 2452.145801 875.131277 
L 2440.379471 876.526142 
L 2428.613141 877.32308 
L 2416.846811 877.794683 
L 2405.080481 878.099472 
L 2393.314151 878.324454 
L 2381.547821 878.515224 
L 2369.781491 878.695316 
L 2358.015161 878.877648 
L 2346.248831 879.070712 
L 2334.482501 879.281604 
L 2322.716171 879.517245 
L 2310.949841 879.784652 
L 2299.183511 880.090746 
L 2287.417181 880.442003 
L 2275.650851 880.84415 
L 2263.884521 881.302044 
L 2252.118191 881.819832 
L 2240.351861 882.401437 
L 2228.585531 883.051336 
L 2216.819201 883.775484 
L 2205.052871 884.582205 
L 2193.286541 885.48277 
L 2181.520211 886.491407 
L 2169.753881 887.624571 
L 2157.987551 888.899433 
L 2146.221221 890.331777 
L 2134.454891 891.933715 
L 2122.688561 893.711787 
L 2110.922231 895.666004 
L 2099.155901 897.790254 
L 2087.389571 900.074085 
L 2075.623241 902.505526 
L 2063.856911 905.074216 
L 2052.090581 907.774042 
L 2040.324251 910.60462 
L 2028.557921 913.571384 
L 2016.791591 916.684486 
L 2005.025261 919.95708 
L 1993.258931 923.403655 
L 1981.492601 927.038889 
L 1969.726271 930.877198 
L 1957.959941 934.932802 
L 1946.193611 939.220045 
L 1934.427281 943.75379 
L 1922.660951 948.549993 
L 1910.894621 953.626742 
L 1899.128291 959.006079 
L 1887.361961 964.716558 
L 1875.595631 970.79601 
L 1863.829301 977.293445 
L 1852.062971 984.268758 
L 1840.296641 991.789087 
L 1828.530311 999.921317 
L 1816.763981 1008.721156 
L 1804.997651 1018.220253 
L 1793.231321 1028.413548 
L 1781.464991 1039.24942 
L 1769.698661 1050.624873 
L 1757.932331 1062.387268 
L 1746.166 1074.342889 
L 1734.39967 1086.271407 
L 1722.63334 1097.944153 
L 1710.86701 1109.143444 
L 1699.10068 1119.680058 
L 1687.33435 1129.406417 
L 1675.56802 1138.223955 
L 1663.80169 1146.084267 
L 1652.03536 1152.984765 
L 1640.26903 1158.960357 
L 1628.5027 1164.073093 
L 1616.73637 1168.401642 
L 1604.97004 1172.032085 
L 1593.20371 1175.050888 
L 1581.43738 1177.5403 
L 1569.67105 1179.575904 
L 1557.90472 1181.225769 
L 1546.13839 1182.550553 
L 1534.37206 1183.604008 
L 1522.60573 1184.433523 
L 1510.8394 1185.08055 
L 1499.07307 1185.580894 
L 1487.30674 1185.964956 
L 1475.54041 1186.258022 
L 1463.77408 1186.480652 
L 1452.00775 1186.649192 
L 1440.24142 1186.77638 
L 1428.47509 1186.871986 
L 1416.70876 1186.943438 
L 1404.94243 1186.996378 
L 1393.1761 1187.035123 
L 1381.40977 1187.063022 
L 1369.64344 1187.082706 
L 1357.87711 1187.096261 
L 1346.11078 1187.105339 
L 1334.34445 1187.111234 
L 1322.57812 1187.114936 
L 1310.81179 1187.117177 
L 1299.04546 1187.118484 
L 1287.27913 1187.119217 
L 1275.5128 1187.119611 
L 1263.74647 1187.119815 
z
" style="fill:#55a868;fill-opacity:0.25;"/>
   </g>
   <g id="line2d_105">
    <path clip-path="url(#p57a744a8c5)" d="M 1302.03251 1187.119879 
L 1343.995991 1187.009459 
L 1354.486862 1186.878602 
L 1364.977732 1186.601959 
L 1375.468603 1185.99612 
L 1385.959473 1184.695737 
L 1396.450344 1182.221327 
L 1406.941214 1178.17432 
L 1417.432084 1172.221115 
L 1427.922955 1164.033538 
L 1438.413825 1153.168218 
L 1448.904696 1138.911598 
L 1459.395566 1120.619654 
L 1469.886437 1097.998712 
L 1480.377307 1070.789582 
L 1490.868178 1038.609939 
L 1501.359048 1001.518535 
L 1511.849918 960.045027 
L 1522.340789 914.943984 
L 1532.831659 866.847532 
L 1543.32253 815.787922 
L 1553.8134 761.923427 
L 1564.304271 705.919229 
L 1574.795141 648.494033 
L 1595.776882 531.955049 
L 1606.267752 474.900184 
L 1616.758623 419.665455 
L 1627.249493 367.163854 
L 1637.740364 318.809381 
L 1648.231234 275.415283 
L 1658.722105 237.362743 
L 1669.212975 205.243105 
L 1679.703846 179.170619 
L 1690.194716 158.301359 
L 1700.685586 141.682162 
L 1711.176457 128.534328 
L 1721.667327 118.000917 
L 1732.158198 109.546017 
L 1742.649068 102.776962 
L 1753.139939 97.16686 
L 1763.630809 92.490573 
L 1774.12168 88.711644 
L 1784.61255 85.588973 
L 1795.10342 82.889675 
L 1805.594291 80.580211 
L 1816.085161 78.605605 
L 1837.066902 75.145202 
L 1858.048643 71.874398 
L 1868.539514 70.0699 
L 1879.030384 68.030611 
L 1889.521254 65.67879 
L 1900.012125 62.904109 
L 1910.502995 59.641717 
L 1920.993866 56.216893 
L 1931.484736 53.476471 
L 1941.975607 52.016036 
L 1952.466477 51.523565 
L 1973.448218 51.337708 
L 2057.375182 51.111533 
L 2151.793016 50.985698 
L 2256.70172 50.91745 
L 2581.918704 50.826533 
L 2592.409574 50.591627 
L 2613.391315 49.988133 
L 2634.373056 49.8814 
L 2634.373056 49.8814 
" style="fill:none;stroke:#4c72b0;stroke-linecap:round;stroke-width:4;"/>
   </g>
   <g id="line2d_106">
    <path clip-path="url(#p57a744a8c5)" d="M 1263.74647 1187.119815 
L 1393.1761 1187.035123 
L 1440.24142 1186.77638 
L 1463.77408 1186.480652 
L 1487.30674 1185.964956 
L 1499.07307 1185.580894 
L 1510.8394 1185.08055 
L 1522.60573 1184.433523 
L 1534.37206 1183.604008 
L 1546.13839 1182.550553 
L 1557.90472 1181.225769 
L 1569.67105 1179.575904 
L 1581.43738 1177.5403 
L 1593.20371 1175.050888 
L 1604.97004 1172.032085 
L 1616.73637 1168.401642 
L 1628.5027 1164.073093 
L 1640.26903 1158.960357 
L 1652.03536 1152.984765 
L 1663.80169 1146.084267 
L 1675.56802 1138.223955 
L 1687.33435 1129.406417 
L 1699.10068 1119.680058 
L 1710.86701 1109.143444 
L 1722.63334 1097.944153 
L 1734.39967 1086.271407 
L 1769.698661 1050.624873 
L 1781.464991 1039.24942 
L 1793.231321 1028.413548 
L 1804.997651 1018.220253 
L 1816.763981 1008.721156 
L 1828.530311 999.921317 
L 1840.296641 991.789087 
L 1852.062971 984.268758 
L 1863.829301 977.293445 
L 1875.595631 970.79601 
L 1887.361961 964.716558 
L 1899.128291 959.006079 
L 1910.894621 953.626742 
L 1922.660951 948.549993 
L 1934.427281 943.75379 
L 1946.193611 939.220045 
L 1957.959941 934.932802 
L 1969.726271 930.877198 
L 1981.492601 927.038889 
L 1993.258931 923.403655 
L 2005.025261 919.95708 
L 2016.791591 916.684486 
L 2028.557921 913.571384 
L 2040.324251 910.60462 
L 2052.090581 907.774042 
L 2063.856911 905.074216 
L 2075.623241 902.505526 
L 2087.389571 900.074085 
L 2099.155901 897.790254 
L 2110.922231 895.666004 
L 2122.688561 893.711787 
L 2134.454891 891.933715 
L 2146.221221 890.331777 
L 2157.987551 888.899433 
L 2169.753881 887.624571 
L 2181.520211 886.491407 
L 2205.052871 884.582205 
L 2228.585531 883.051336 
L 2252.118191 881.819832 
L 2275.650851 880.84415 
L 2299.183511 880.090746 
L 2334.482501 879.281604 
L 2416.846811 877.794683 
L 2428.613141 877.32308 
L 2440.379471 876.526142 
L 2452.145801 875.131277 
L 2463.912131 872.698231 
L 2475.678461 868.561653 
L 2487.444791 861.784871 
L 2499.211121 851.147783 
L 2510.977451 835.195732 
L 2522.743781 812.371641 
L 2534.510111 781.237133 
L 2546.276441 740.760979 
L 2558.042771 690.621742 
L 2569.809101 631.44798 
L 2581.575431 564.916656 
L 2593.341761 493.655539 
L 2605.108091 420.944748 
L 2616.874421 350.27087 
L 2628.640751 284.833024 
L 2640.407081 227.115649 
L 2652.173411 178.621429 
L 2663.939741 139.808353 
L 2675.706071 110.216651 
L 2687.472402 88.725236 
L 2699.238732 73.856886 
L 2711.005062 64.058315 
L 2722.771392 57.907047 
L 2734.537722 54.228569 
L 2746.304052 52.133141 
L 2758.070382 50.996094 
L 2758.070382 50.996094 
" style="fill:none;stroke:#55a868;stroke-linecap:round;stroke-width:4;"/>
   </g>
   <g id="patch_18">
    <path d="M 1281.15 1187.12 
L 1281.15 49.88 
" style="fill:none;stroke:#cccccc;stroke-linecap:square;stroke-linejoin:miter;"/>
   </g>
   <g id="patch_19">
    <path d="M 2378.7275 1187.12 
L 2378.7275 49.88 
" style="fill:none;stroke:#cccccc;stroke-linecap:square;stroke-linejoin:miter;"/>
   </g>
   <g id="patch_20">
    <path d="M 1281.15 1187.12 
L 2378.7275 1187.12 
" style="fill:none;stroke:#cccccc;stroke-linecap:square;stroke-linejoin:miter;"/>
   </g>
   <g id="patch_21">
    <path d="M 1281.15 49.88 
L 2378.7275 49.88 
" style="fill:none;stroke:#cccccc;stroke-linecap:square;stroke-linejoin:miter;"/>
   </g>
   <g id="text_58">
    <text style="fill:#262626;font-family:Arial;font-size:36px;font-style:normal;font-weight:400;text-anchor:middle;" transform="rotate(-0, 1829.93875, 44.88)" x="1829.93875" y="44.88">3O41: RSV 101F (E)</text>
   </g>
  </g>
  <g id="axes_5">
   <g id="patch_22">
    <path d="M 3668.19 1187.12 
L 4765.7675 1187.12 
L 4765.7675 49.88 
L 3668.19 49.88 
z
" style="fill:#ffffff;"/>
   </g>
   <g id="matplotlib.axis_9">
    <g id="xtick_25">
     <g id="line2d_107">
      <path clip-path="url(#p9c68010b90)" d="M 3668.19 1187.12 
L 3668.19 49.88 
" style="fill:none;stroke:#cccccc;stroke-linecap:round;"/>
     </g>
     <g id="line2d_108"/>
     <g id="text_59">
      <text style="fill:#262626;font-family:Arial;font-size:30px;font-style:normal;font-weight:400;text-anchor:middle;" transform="rotate(-0, 3668.19, 1215.593437)" x="3668.19" y="1215.593437">0</text>
     </g>
    </g>
    <g id="xtick_26">
     <g id="line2d_109">
      <path clip-path="url(#p9c68010b90)" d="M 3887.7055 1187.12 
L 3887.7055 49.88 
" style="fill:none;stroke:#cccccc;stroke-linecap:round;"/>
     </g>
     <g id="line2d_110"/>
     <g id="text_60">
      <text style="fill:#262626;font-family:Arial;font-size:30px;font-style:normal;font-weight:400;text-anchor:middle;" transform="rotate(-0, 3887.7055, 1215.593437)" x="3887.7055" y="1215.593437">1</text>
     </g>
    </g>
    <g id="xtick_27">
     <g id="line2d_111">
      <path clip-path="url(#p9c68010b90)" d="M 4107.221 1187.12 
L 4107.221 49.88 
" style="fill:none;stroke:#cccccc;stroke-linecap:round;"/>
     </g>
     <g id="line2d_112"/>
     <g id="text_61">
      <text style="fill:#262626;font-family:Arial;font-size:30px;font-style:normal;font-weight:400;text-anchor:middle;" transform="rotate(-0, 4107.221, 1215.593437)" x="4107.221" y="1215.593437">2</text>
     </g>
    </g>
    <g id="xtick_28">
     <g id="line2d_113">
      <path clip-path="url(#p9c68010b90)" d="M 4326.7365 1187.12 
L 4326.7365 49.88 
" style="fill:none;stroke:#cccccc;stroke-linecap:round;"/>
     </g>
     <g id="line2d_114"/>
     <g id="text_62">
      <text style="fill:#262626;font-family:Arial;font-size:30px;font-style:normal;font-weight:400;text-anchor:middle;" transform="rotate(-0, 4326.7365, 1215.593437)" x="4326.7365" y="1215.593437">3</text>
     </g>
    </g>
    <g id="xtick_29">
     <g id="line2d_115">
      <path clip-path="url(#p9c68010b90)" d="M 4546.252 1187.12 
L 4546.252 49.88 
" style="fill:none;stroke:#cccccc;stroke-linecap:round;"/>
     </g>
     <g id="line2d_116"/>
     <g id="text_63">
      <text style="fill:#262626;font-family:Arial;font-size:30px;font-style:normal;font-weight:400;text-anchor:middle;" transform="rotate(-0, 4546.252, 1215.593437)" x="4546.252" y="1215.593437">4</text>
     </g>
    </g>
    <g id="xtick_30">
     <g id="line2d_117">
      <path clip-path="url(#p9c68010b90)" d="M 4765.7675 1187.12 
L 4765.7675 49.88 
" style="fill:none;stroke:#cccccc;stroke-linecap:round;"/>
     </g>
     <g id="line2d_118"/>
     <g id="text_64">
      <text style="fill:#262626;font-family:Arial;font-size:30px;font-style:normal;font-weight:400;text-anchor:middle;" transform="rotate(-0, 4765.7675, 1215.593437)" x="4765.7675" y="1215.593437">5</text>
     </g>
    </g>
    <g id="text_65">
     <text style="fill:#262626;font-family:Arial;font-size:33px;font-style:normal;font-weight:400;text-anchor:middle;" transform="rotate(-0, 4216.97875, 1249.176719)" x="4216.97875" y="1249.176719">RMSD</text>
    </g>
   </g>
   <g id="matplotlib.axis_10">
    <g id="ytick_25">
     <g id="line2d_119">
      <path clip-path="url(#p9c68010b90)" d="M 3668.19 1187.12 
L 4765.7675 1187.12 
" style="fill:none;stroke:#cccccc;stroke-linecap:round;"/>
     </g>
     <g id="line2d_120"/>
     <g id="text_66">
      <text style="fill:#262626;font-family:Arial;font-size:30px;font-style:normal;font-weight:400;text-anchor:end;" transform="rotate(-0, 3661.19, 1197.856719)" x="3661.19" y="1197.856719">0.0</text>
     </g>
    </g>
    <g id="ytick_26">
     <g id="line2d_121">
      <path clip-path="url(#p9c68010b90)" d="M 3668.19 959.672 
L 4765.7675 959.672 
" style="fill:none;stroke:#cccccc;stroke-linecap:round;"/>
     </g>
     <g id="line2d_122"/>
     <g id="text_67">
      <text style="fill:#262626;font-family:Arial;font-size:30px;font-style:normal;font-weight:400;text-anchor:end;" transform="rotate(-0, 3661.19, 970.408719)" x="3661.19" y="970.408719">0.2</text>
     </g>
    </g>
    <g id="ytick_27">
     <g id="line2d_123">
      <path clip-path="url(#p9c68010b90)" d="M 3668.19 732.224 
L 4765.7675 732.224 
" style="fill:none;stroke:#cccccc;stroke-linecap:round;"/>
     </g>
     <g id="line2d_124"/>
     <g id="text_68">
      <text style="fill:#262626;font-family:Arial;font-size:30px;font-style:normal;font-weight:400;text-anchor:end;" transform="rotate(-0, 3661.19, 742.960719)" x="3661.19" y="742.960719">0.4</text>
     </g>
    </g>
    <g id="ytick_28">
     <g id="line2d_125">
      <path clip-path="url(#p9c68010b90)" d="M 3668.19 504.776 
L 4765.7675 504.776 
" style="fill:none;stroke:#cccccc;stroke-linecap:round;"/>
     </g>
     <g id="line2d_126"/>
     <g id="text_69">
      <text style="fill:#262626;font-family:Arial;font-size:30px;font-style:normal;font-weight:400;text-anchor:end;" transform="rotate(-0, 3661.19, 515.512719)" x="3661.19" y="515.512719">0.6</text>
     </g>
    </g>
    <g id="ytick_29">
     <g id="line2d_127">
      <path clip-path="url(#p9c68010b90)" d="M 3668.19 277.328 
L 4765.7675 277.328 
" style="fill:none;stroke:#cccccc;stroke-linecap:round;"/>
     </g>
     <g id="line2d_128"/>
     <g id="text_70">
      <text style="fill:#262626;font-family:Arial;font-size:30px;font-style:normal;font-weight:400;text-anchor:end;" transform="rotate(-0, 3661.19, 288.064719)" x="3661.19" y="288.064719">0.8</text>
     </g>
    </g>
    <g id="ytick_30">
     <g id="line2d_129">
      <path clip-path="url(#p9c68010b90)" d="M 3668.19 49.88 
L 4765.7675 49.88 
" style="fill:none;stroke:#cccccc;stroke-linecap:round;"/>
     </g>
     <g id="line2d_130"/>
     <g id="text_71">
      <text style="fill:#262626;font-family:Arial;font-size:30px;font-style:normal;font-weight:400;text-anchor:end;" transform="rotate(-0, 3661.19, 60.616719)" x="3661.19" y="60.616719">1.0</text>
     </g>
    </g>
   </g>
   <g id="line2d_131">
    <path clip-path="url(#p9c68010b90)" d="M 3706.757642 1187.119912 
L 3790.043153 1187.009567 
L 3842.096598 1186.809058 
L 3862.917976 1186.570905 
L 3883.739353 1186.11434 
L 3904.560731 1185.450206 
L 3925.382109 1184.459885 
L 3946.203487 1183.141031 
L 3956.614176 1182.240225 
L 3967.024865 1181.065957 
L 3977.435553 1179.573543 
L 3987.846242 1177.741597 
L 3998.256931 1175.507108 
L 4008.66762 1172.748345 
L 4019.078309 1169.292781 
L 4029.488998 1164.901323 
L 4039.899687 1159.30427 
L 4050.310376 1152.239 
L 4060.721065 1143.435 
L 4071.131754 1132.565745 
L 4081.542442 1119.220102 
L 4091.953131 1102.961408 
L 4102.36382 1083.383279 
L 4112.774509 1060.111961 
L 4123.185198 1032.837316 
L 4133.595887 1001.261648 
L 4144.006576 965.039355 
L 4154.417265 924.207457 
L 4164.827954 879.771157 
L 4175.238642 833.268622 
L 4185.649331 785.622176 
L 4196.06002 736.916617 
L 4227.292087 587.734011 
L 4237.702776 539.836048 
L 4248.113465 493.851268 
L 4258.524154 450.165414 
L 4268.934843 409.566512 
L 4279.345531 372.963674 
L 4289.75622 340.663465 
L 4300.166909 312.176053 
L 4310.577598 286.629478 
L 4320.988287 263.12596 
L 4331.398976 240.998276 
L 4341.809665 220.079612 
L 4352.220354 200.611908 
L 4362.631043 182.890076 
L 4373.041732 167.162526 
L 4383.45242 153.661852 
L 4393.863109 142.41031 
L 4404.273798 133.092378 
L 4414.684487 125.291608 
L 4425.095176 118.742415 
L 4435.505865 113.280662 
L 4445.916554 108.725893 
L 4456.327243 104.929132 
L 4466.737932 101.806762 
L 4477.14862 99.278643 
L 4487.559309 97.221391 
L 4497.969998 95.485431 
L 4508.380687 93.966092 
L 4518.791376 92.620479 
L 4529.202065 91.425352 
L 4550.023443 89.387618 
L 4591.666198 85.591956 
L 4602.076887 84.545736 
L 4612.487576 83.367781 
L 4633.308954 80.579577 
L 4654.130332 77.519761 
L 4664.541021 75.679353 
L 4674.95171 73.285847 
L 4685.362398 70.143723 
L 4695.773087 66.514934 
L 4706.183776 63.242278 
L 4716.594465 61.087752 
L 4727.005154 60.064048 
L 4737.415843 59.682246 
L 4758.237221 59.444236 
L 4820.701354 58.92702 
L 4851.933421 58.639169 
L 4903.986865 58.282004 
L 4945.629621 57.795684 
L 4956.04031 57.561622 
L 4966.450999 56.908756 
L 4976.861688 55.44269 
L 4987.272376 53.313271 
L 4997.683065 51.393021 
L 5008.093754 50.327841 
L 5018.504443 49.965656 
L 5028.915132 49.890336 
L 5028.915132 49.890336 
" style="fill:none;stroke:#4c72b0;stroke-linecap:round;stroke-width:4;"/>
   </g>
   <g id="patch_23">
    <path d="M 3668.19 1187.12 
L 3668.19 49.88 
" style="fill:none;stroke:#cccccc;stroke-linecap:square;stroke-linejoin:miter;"/>
   </g>
   <g id="patch_24">
    <path d="M 4765.7675 1187.12 
L 4765.7675 49.88 
" style="fill:none;stroke:#cccccc;stroke-linecap:square;stroke-linejoin:miter;"/>
   </g>
   <g id="patch_25">
    <path d="M 3668.19 1187.12 
L 4765.7675 1187.12 
" style="fill:none;stroke:#cccccc;stroke-linecap:square;stroke-linejoin:miter;"/>
   </g>
   <g id="patch_26">
    <path d="M 3668.19 49.88 
L 4765.7675 49.88 
" style="fill:none;stroke:#cccccc;stroke-linecap:square;stroke-linejoin:miter;"/>
   </g>
   <g id="text_72">
    <text style="font-family:Arial;font-size:24.984px;font-style:normal;font-weight:600;text-anchor:middle;" transform="rotate(-0, 3751.60589, 277.328)" x="3751.60589" y="277.328">3WEI</text>
   </g>
   <g id="text_73">
    <text style="fill:#262626;font-family:Arial;font-size:36px;font-style:normal;font-weight:400;text-anchor:middle;" transform="rotate(-0, 4216.97875, 44.88)" x="4216.97875" y="44.88">3VTT: DEN3 ED3 (ELE)</text>
   </g>
   <g id="line2d_132">
    <path clip-path="url(#p9c68010b90)" d="M 3817.46054 1187.12 
L 3817.46054 -1 
" style="fill:none;stroke:#000000;stroke-dasharray:5.6,2.4;stroke-dashoffset:0;stroke-width:2;"/>
   </g>
  </g>
  <g id="axes_6">
   <g id="patch_27">
    <path d="M 6055.23 1187.12 
L 7152.8075 1187.12 
L 7152.8075 49.88 
L 6055.23 49.88 
z
" style="fill:#ffffff;"/>
   </g>
   <g id="matplotlib.axis_11">
    <g id="xtick_31">
     <g id="line2d_133">
      <path clip-path="url(#p9f4903d0c0)" d="M 6055.23 1187.12 
L 6055.23 49.88 
" style="fill:none;stroke:#cccccc;stroke-linecap:round;"/>
     </g>
     <g id="line2d_134"/>
     <g id="text_74">
      <text style="fill:#262626;font-family:Arial;font-size:30px;font-style:normal;font-weight:400;text-anchor:middle;" transform="rotate(-0, 6055.23, 1215.593437)" x="6055.23" y="1215.593437">0</text>
     </g>
    </g>
    <g id="xtick_32">
     <g id="line2d_135">
      <path clip-path="url(#p9f4903d0c0)" d="M 6274.7455 1187.12 
L 6274.7455 49.88 
" style="fill:none;stroke:#cccccc;stroke-linecap:round;"/>
     </g>
     <g id="line2d_136"/>
     <g id="text_75">
      <text style="fill:#262626;font-family:Arial;font-size:30px;font-style:normal;font-weight:400;text-anchor:middle;" transform="rotate(-0, 6274.7455, 1215.593437)" x="6274.7455" y="1215.593437">1</text>
     </g>
    </g>
    <g id="xtick_33">
     <g id="line2d_137">
      <path clip-path="url(#p9f4903d0c0)" d="M 6494.261 1187.12 
L 6494.261 49.88 
" style="fill:none;stroke:#cccccc;stroke-linecap:round;"/>
     </g>
     <g id="line2d_138"/>
     <g id="text_76">
      <text style="fill:#262626;font-family:Arial;font-size:30px;font-style:normal;font-weight:400;text-anchor:middle;" transform="rotate(-0, 6494.261, 1215.593437)" x="6494.261" y="1215.593437">2</text>
     </g>
    </g>
    <g id="xtick_34">
     <g id="line2d_139">
      <path clip-path="url(#p9f4903d0c0)" d="M 6713.7765 1187.12 
L 6713.7765 49.88 
" style="fill:none;stroke:#cccccc;stroke-linecap:round;"/>
     </g>
     <g id="line2d_140"/>
     <g id="text_77">
      <text style="fill:#262626;font-family:Arial;font-size:30px;font-style:normal;font-weight:400;text-anchor:middle;" transform="rotate(-0, 6713.7765, 1215.593437)" x="6713.7765" y="1215.593437">3</text>
     </g>
    </g>
    <g id="xtick_35">
     <g id="line2d_141">
      <path clip-path="url(#p9f4903d0c0)" d="M 6933.292 1187.12 
L 6933.292 49.88 
" style="fill:none;stroke:#cccccc;stroke-linecap:round;"/>
     </g>
     <g id="line2d_142"/>
     <g id="text_78">
      <text style="fill:#262626;font-family:Arial;font-size:30px;font-style:normal;font-weight:400;text-anchor:middle;" transform="rotate(-0, 6933.292, 1215.593437)" x="6933.292" y="1215.593437">4</text>
     </g>
    </g>
    <g id="xtick_36">
     <g id="line2d_143">
      <path clip-path="url(#p9f4903d0c0)" d="M 7152.8075 1187.12 
L 7152.8075 49.88 
" style="fill:none;stroke:#cccccc;stroke-linecap:round;"/>
     </g>
     <g id="line2d_144"/>
     <g id="text_79">
      <text style="fill:#262626;font-family:Arial;font-size:30px;font-style:normal;font-weight:400;text-anchor:middle;" transform="rotate(-0, 7152.8075, 1215.593437)" x="7152.8075" y="1215.593437">5</text>
     </g>
    </g>
    <g id="text_80">
     <text style="fill:#262626;font-family:Arial;font-size:33px;font-style:normal;font-weight:400;text-anchor:middle;" transform="rotate(-0, 6604.01875, 1249.176719)" x="6604.01875" y="1249.176719">RMSD</text>
    </g>
   </g>
   <g id="matplotlib.axis_12">
    <g id="ytick_31">
     <g id="line2d_145">
      <path clip-path="url(#p9f4903d0c0)" d="M 6055.23 1187.12 
L 7152.8075 1187.12 
" style="fill:none;stroke:#cccccc;stroke-linecap:round;"/>
     </g>
     <g id="line2d_146"/>
     <g id="text_81">
      <text style="fill:#262626;font-family:Arial;font-size:30px;font-style:normal;font-weight:400;text-anchor:end;" transform="rotate(-0, 6048.23, 1197.856719)" x="6048.23" y="1197.856719">0.0</text>
     </g>
    </g>
    <g id="ytick_32">
     <g id="line2d_147">
      <path clip-path="url(#p9f4903d0c0)" d="M 6055.23 959.672 
L 7152.8075 959.672 
" style="fill:none;stroke:#cccccc;stroke-linecap:round;"/>
     </g>
     <g id="line2d_148"/>
     <g id="text_82">
      <text style="fill:#262626;font-family:Arial;font-size:30px;font-style:normal;font-weight:400;text-anchor:end;" transform="rotate(-0, 6048.23, 970.408719)" x="6048.23" y="970.408719">0.2</text>
     </g>
    </g>
    <g id="ytick_33">
     <g id="line2d_149">
      <path clip-path="url(#p9f4903d0c0)" d="M 6055.23 732.224 
L 7152.8075 732.224 
" style="fill:none;stroke:#cccccc;stroke-linecap:round;"/>
     </g>
     <g id="line2d_150"/>
     <g id="text_83">
      <text style="fill:#262626;font-family:Arial;font-size:30px;font-style:normal;font-weight:400;text-anchor:end;" transform="rotate(-0, 6048.23, 742.960719)" x="6048.23" y="742.960719">0.4</text>
     </g>
    </g>
    <g id="ytick_34">
     <g id="line2d_151">
      <path clip-path="url(#p9f4903d0c0)" d="M 6055.23 504.776 
L 7152.8075 504.776 
" style="fill:none;stroke:#cccccc;stroke-linecap:round;"/>
     </g>
     <g id="line2d_152"/>
     <g id="text_84">
      <text style="fill:#262626;font-family:Arial;font-size:30px;font-style:normal;font-weight:400;text-anchor:end;" transform="rotate(-0, 6048.23, 515.512719)" x="6048.23" y="515.512719">0.6</text>
     </g>
    </g>
    <g id="ytick_35">
     <g id="line2d_153">
      <path clip-path="url(#p9f4903d0c0)" d="M 6055.23 277.328 
L 7152.8075 277.328 
" style="fill:none;stroke:#cccccc;stroke-linecap:round;"/>
     </g>
     <g id="line2d_154"/>
     <g id="text_85">
      <text style="fill:#262626;font-family:Arial;font-size:30px;font-style:normal;font-weight:400;text-anchor:end;" transform="rotate(-0, 6048.23, 288.064719)" x="6048.23" y="288.064719">0.8</text>
     </g>
    </g>
    <g id="ytick_36">
     <g id="line2d_155">
      <path clip-path="url(#p9f4903d0c0)" d="M 6055.23 49.88 
L 7152.8075 49.88 
" style="fill:none;stroke:#cccccc;stroke-linecap:round;"/>
     </g>
     <g id="line2d_156"/>
     <g id="text_86">
      <text style="fill:#262626;font-family:Arial;font-size:30px;font-style:normal;font-weight:400;text-anchor:end;" transform="rotate(-0, 6048.23, 60.616719)" x="6048.23" y="60.616719">1.0</text>
     </g>
    </g>
   </g>
   <g id="line2d_157">
    <path clip-path="url(#p9f4903d0c0)" d="M 6267.19352 1187.119911 
L 6404.334156 1187.041469 
L 6433.721435 1186.863349 
L 6453.312955 1186.557579 
L 6472.904474 1185.927078 
L 6482.700234 1185.413253 
L 6492.495994 1184.710874 
L 6502.291753 1183.766982 
L 6512.087513 1182.519239 
L 6521.883273 1180.895444 
L 6531.679033 1178.81308 
L 6541.474792 1176.178818 
L 6551.270552 1172.887948 
L 6561.066312 1168.823762 
L 6570.862072 1163.857106 
L 6580.657831 1157.846447 
L 6590.453591 1150.639077 
L 6600.249351 1142.074171 
L 6610.045111 1131.98847 
L 6619.84087 1120.225174 
L 6629.63663 1106.646167 
L 6639.43239 1091.147043 
L 6649.22815 1073.673584 
L 6659.023909 1054.23759 
L 6668.819669 1032.929522 
L 6678.615429 1009.925366 
L 6688.411189 985.485726 
L 6698.206948 959.94621 
L 6717.798468 907.171533 
L 6727.594228 880.792996 
L 6737.389987 854.97255 
L 6747.185747 830.072165 
L 6756.981507 806.388942 
L 6766.777267 784.144316 
L 6776.573026 763.480985 
L 6786.368786 744.466734 
L 6796.164546 727.103555 
L 6805.960306 711.340085 
L 6815.756065 697.085355 
L 6825.551825 684.222146 
L 6835.347585 672.618703 
L 6845.143345 662.138082 
L 6854.939104 652.644955 
L 6864.734864 644.010094 
L 6874.530624 636.113028 
L 6884.326384 628.843461 
L 6894.122143 622.101978 
L 6903.917903 615.800394 
L 6913.713663 609.861897 
L 6923.509422 604.220965 
L 6933.305182 598.822961 
L 6943.100942 593.623309 
L 6952.896702 588.586231 
L 6972.488221 578.890818 
L 6992.079741 569.56199 
L 7021.46702 555.94987 
L 7060.650059 537.817353 
L 7109.628858 514.869472 
L 7119.424617 510.507187 
L 7129.220377 506.350289 
L 7139.016137 502.462687 
L 7148.811897 498.902774 
L 7158.607656 495.717606 
L 7168.403416 492.938025 
L 7178.199176 490.575351 
L 7187.994936 488.619837 
L 7201 486.629306 
L 7201 486.629306 
" style="fill:none;stroke:#4c72b0;stroke-linecap:round;stroke-width:4;"/>
   </g>
   <g id="patch_28">
    <path d="M 6055.23 1187.12 
L 6055.23 49.88 
" style="fill:none;stroke:#cccccc;stroke-linecap:square;stroke-linejoin:miter;"/>
   </g>
   <g id="patch_29">
    <path d="M 7152.8075 1187.12 
L 7152.8075 49.88 
" style="fill:none;stroke:#cccccc;stroke-linecap:square;stroke-linejoin:miter;"/>
   </g>
   <g id="patch_30">
    <path d="M 6055.23 1187.12 
L 7152.8075 1187.12 
" style="fill:none;stroke:#cccccc;stroke-linecap:square;stroke-linejoin:miter;"/>
   </g>
   <g id="patch_31">
    <path d="M 6055.23 49.88 
L 7152.8075 49.88 
" style="fill:none;stroke:#cccccc;stroke-linecap:square;stroke-linejoin:miter;"/>
   </g>
   <g id="text_87">
    <text style="fill:#262626;font-family:Arial;font-size:36px;font-style:normal;font-weight:400;text-anchor:middle;" transform="rotate(-0, 6604.01875, 44.88)" x="6604.01875" y="44.88">4JHW: RSV D25 (HxL)</text>
   </g>
  </g>
 </g>
 <defs>
  <clipPath id="p473d5b4ead">
   <rect height="1137.24" width="1097.5775" x="87.63" y="49.88"/>
  </clipPath>
  <clipPath id="p90f55ef2a0">
   <rect height="1137.24" width="1097.5775" x="2474.67" y="49.88"/>
  </clipPath>
  <clipPath id="pef93c34b60">
   <rect height="1137.24" width="1097.5775" x="4861.71" y="49.88"/>
  </clipPath>
  <clipPath id="p57a744a8c5">
   <rect height="1137.24" width="1097.5775" x="1281.15" y="49.88"/>
  </clipPath>
  <clipPath id="p9c68010b90">
   <rect height="1137.24" width="1097.5775" x="3668.19" y="49.88"/>
  </clipPath>
  <clipPath id="p9f4903d0c0">
   <rect height="1137.24" width="1097.5775" x="6055.23" y="49.88"/>
  </clipPath>
 </defs>
</svg>
